<svg width="1000" height="1000" viewBox="0 0 1000 1000" fill="none" xmlns="http://www.w3.org/2000/svg">
<path d="M774.991 0H225.009C100.74 0 0 100.74 0 225.009V774.991C0 899.26 100.74 1000 225.009 1000H774.991C899.26 1000 1000 899.26 1000 774.991V225.009C1000 100.74 899.26 0 774.991 0Z" fill="#1A1A1A"/>
<path fill-rule="evenodd" clip-rule="evenodd" d="M411 144.5C411 138.136 411 134.954 409.023 132.977C407.046 131 403.864 131 397.5 131H372C366.121 131 363.181 131 361.263 132.708C361.067 132.882 360.882 133.067 360.708 133.263C359 135.181 359 138.121 359 144C359 149.879 359 152.819 360.708 154.737C360.882 154.933 361.067 155.118 361.263 155.292C363.181 157 366.121 157 372 157H372.5C377.897 157 380.596 157 382.437 158.455C382.848 158.78 383.22 159.152 383.545 159.563C385 161.404 385 164.103 385 169.5C385 174.897 385 177.596 383.545 179.437C383.22 179.848 382.848 180.22 382.437 180.545C380.596 182 377.897 182 372.5 182H347.5C341.136 182 337.954 182 335.977 183.977C334 185.954 334 189.136 334 195.5V208V220.5C334 226.864 334 230.046 335.977 232.023C337.954 234 341.136 234 347.5 234H373C377.919 234 380.378 234 382.122 235.221C382.767 235.672 383.328 236.233 383.779 236.878C385 238.622 385 241.081 385 246C385 250.919 385 253.378 383.779 255.122C383.328 255.767 382.767 256.328 382.122 256.779C380.378 258 377.919 258 373 258H372.5C367.103 258 364.404 258 362.563 259.455C362.152 259.78 361.78 260.152 361.455 260.563C360 262.404 360 265.103 360 270.5C360 275.897 360 278.596 358.545 280.437C358.22 280.848 357.848 281.22 357.437 281.545C355.596 283 352.897 283 347.5 283H347C341.121 283 338.181 283 336.263 284.708C336.067 284.882 335.882 285.067 335.708 285.263C334 287.181 334 290.121 334 296V296.5C334 301.897 334 304.596 335.455 306.437C335.78 306.848 336.152 307.22 336.563 307.545C338.404 309 341.103 309 346.5 309C351.897 309 354.596 309 356.437 310.455C356.848 310.78 357.22 311.152 357.545 311.563C359 313.404 359 316.103 359 321.5V334V335V359V360V385V397.5C359 402.897 359 405.596 357.545 407.437C357.22 407.848 356.848 408.22 356.437 408.545C354.596 410 351.897 410 346.5 410C341.103 410 338.404 410 336.563 411.455C336.152 411.78 335.78 412.152 335.455 412.563C334 414.404 334 417.103 334 422.5C334 427.897 334 430.596 332.545 432.437C332.22 432.848 331.848 433.22 331.437 433.545C329.596 435 326.897 435 321.5 435H296C291.081 435 288.622 435 286.878 433.779C286.233 433.328 285.672 432.767 285.221 432.122C284 430.378 284 427.919 284 423C284 418.081 284 415.622 285.221 413.878C285.672 413.233 286.233 412.672 286.878 412.221C288.622 411 291.081 411 296 411H296.5C301.897 411 304.596 411 306.437 409.545C306.848 409.22 307.22 408.848 307.545 408.437C309 406.596 309 403.897 309 398.5C309 393.103 309 390.404 310.455 388.563C310.78 388.152 311.152 387.78 311.563 387.455C313.404 386 316.103 386 321.5 386H322C327.879 386 330.819 386 332.737 384.292C332.933 384.118 333.118 383.933 333.292 383.737C335 381.819 335 378.879 335 373V361V360V348.5C335 342.136 335 338.954 333.023 336.977C331.046 335 327.864 335 321.5 335H296C291.081 335 288.622 335 286.878 336.221C286.233 336.672 285.672 337.233 285.221 337.878C284 339.622 284 342.081 284 347C284 351.919 284 354.378 282.779 356.122C282.328 356.767 281.767 357.328 281.122 357.779C279.378 359 276.919 359 272 359H271.5C266.103 359 263.404 359 261.563 357.545C261.152 357.22 260.78 356.848 260.455 356.437C259 354.596 259 351.897 259 346.5V346C259 340.121 259 337.181 257.292 335.263C257.118 335.067 256.933 334.882 256.737 334.708C254.819 333 251.879 333 246 333H220.5C214.136 333 210.954 333 208.977 334.977C207 336.954 207 340.136 207 346.5V359V372C207 377.879 207 380.819 205.292 382.737C205.118 382.933 204.933 383.118 204.737 383.292C202.819 385 199.879 385 194 385C188.121 385 185.181 385 183.263 386.708C183.067 386.882 182.882 387.067 182.708 387.263C181 389.181 181 392.121 181 398C181 403.879 181 406.819 179.292 408.737C179.118 408.933 178.933 409.118 178.737 409.292C176.819 411 173.879 411 168 411H157H144.5C138.136 411 134.954 411 132.977 412.977C131 414.954 131 418.136 131 424.5V437V450C131 455.879 131 458.819 132.708 460.737C132.882 460.933 133.067 461.118 133.263 461.292C135.181 463 138.121 463 144 463C149.879 463 152.819 463 154.737 461.292C154.933 461.118 155.118 460.933 155.292 460.737C157 458.819 157 455.879 157 450C157 444.121 157 441.181 158.708 439.263C158.882 439.067 159.067 438.882 159.263 438.708C161.181 437 164.121 437 170 437C175.879 437 178.819 437 180.737 435.292C180.933 435.118 181.118 434.933 181.292 434.737C183 432.819 183 429.879 183 424V423C183 418.081 183 415.622 184.221 413.878C184.672 413.233 185.233 412.672 185.878 412.221C187.622 411 190.081 411 195 411C199.919 411 202.378 411 204.122 412.221C204.767 412.672 205.328 413.233 205.779 413.878C207 415.622 207 418.081 207 423V424C207 429.879 207 432.819 208.708 434.737C208.882 434.933 209.067 435.118 209.263 435.292C211.181 437 214.121 437 220 437H221C225.919 437 228.378 437 230.122 438.221C230.767 438.672 231.328 439.233 231.779 439.878C233 441.622 233 444.081 233 449C233 453.919 233 456.378 231.779 458.122C231.328 458.767 230.767 459.328 230.122 459.779C228.378 461 225.919 461 221 461H195C189.121 461 186.181 461 184.263 462.708C184.067 462.882 183.882 463.067 183.708 463.263C182 465.181 182 468.121 182 474V486.5C182 486.776 181.776 487 181.5 487C181.224 487 181 487.224 181 487.5V500C181 505.879 181 508.819 179.292 510.737C179.118 510.933 178.933 511.118 178.737 511.292C176.819 513 173.879 513 168 513L144 513C138.121 513 135.181 513 133.263 514.708C133.067 514.882 132.882 515.067 132.708 515.263C131 517.181 131 520.121 131 526C131 531.879 131 534.819 132.708 536.737C132.882 536.933 133.067 537.118 133.263 537.292C135.181 539 138.121 539 144 539C149.879 539 152.819 539 154.737 540.708C154.933 540.882 155.118 541.067 155.292 541.263C157 543.181 157 546.121 157 552C157 557.879 157 560.819 155.292 562.737C155.118 562.933 154.933 563.118 154.737 563.292C152.819 565 149.879 565 144 565C138.121 565 135.181 565 133.263 566.708C133.067 566.882 132.882 567.067 132.708 567.263C131 569.181 131 572.121 131 578V591V617V643V655.5C131 661.864 131 665.046 132.977 667.023C134.954 669 138.136 669 144.5 669H195C200.879 669 203.819 669 205.737 667.292C205.933 667.118 206.118 666.933 206.292 666.737C208 664.819 208 661.879 208 656V655.5C208 650.103 208 647.404 209.455 645.563C209.78 645.152 210.152 644.78 210.563 644.455C212.404 643 215.103 643 220.5 643C225.897 643 228.596 643 230.437 644.455C230.848 644.78 231.22 645.152 231.545 645.563C233 647.404 233 650.103 233 655.5V656C233 661.879 233 664.819 234.708 666.737C234.882 666.933 235.067 667.118 235.263 667.292C237.181 669 240.121 669 246 669H296C301.879 669 304.819 669 306.737 667.292C306.933 667.118 307.118 666.933 307.292 666.737C309 664.819 309 661.879 309 656C309 650.121 309 647.181 307.292 645.263C307.118 645.067 306.933 644.882 306.737 644.708C304.819 643 301.879 643 296 643H272C266.121 643 263.181 643 261.263 641.292C261.067 641.118 260.882 640.933 260.708 640.737C259 638.819 259 635.879 259 630C259 624.121 259 621.181 257.292 619.263C257.118 619.067 256.933 618.882 256.737 618.708C254.819 617 251.879 617 246 617H196C190.121 617 187.181 617 185.263 615.292C185.067 615.118 184.882 614.933 184.708 614.737C183 612.819 183 609.879 183 604V603C183 598.081 183 595.622 184.221 593.878C184.672 593.233 185.233 592.672 185.878 592.221C187.622 591 190.081 591 195 591H196C199.969 591 201.954 591 203.454 591.809C204.614 592.434 205.566 593.386 206.191 594.546C207 596.046 207 598.031 207 602C207 605.969 207 607.954 207.809 609.454C208.434 610.614 209.386 611.566 210.546 612.191C212.046 613 214.031 613 218 613H220C225.879 613 228.819 613 230.737 611.292C230.933 611.118 231.118 610.933 231.292 610.737C233 608.819 233 605.879 233 600C233 594.121 233 591.181 231.292 589.263C231.118 589.067 230.933 588.882 230.737 588.708C228.819 587 225.879 587 220 587H218C214.031 587 212.046 587 210.546 586.191C209.386 585.566 208.434 584.614 207.809 583.454C207 581.954 207 579.969 207 576C207 572.031 207 570.046 207.809 568.546C208.434 567.386 209.386 566.434 210.546 565.809C212.046 565 214.031 565 218 565H220C225.879 565 228.819 565 230.737 563.292C230.933 563.118 231.118 562.933 231.292 562.737C233 560.819 233 557.879 233 552C233 546.121 233 543.181 234.708 541.263C234.882 541.067 235.067 540.882 235.263 540.708C237.181 539 240.121 539 246 539C251.879 539 254.819 539 256.737 537.292C256.933 537.118 257.118 536.933 257.292 536.737C259 534.819 259 531.879 259 526C259 520.121 259 517.181 257.292 515.263C257.118 515.067 256.933 514.882 256.737 514.708C254.819 513 251.879 513 246 513C240.121 513 237.181 513 235.263 511.292C235.067 511.118 234.882 510.933 234.708 510.737C233 508.819 233 505.879 233 500C233 494.121 233 491.181 234.708 489.263C234.882 489.067 235.067 488.882 235.263 488.708C237.181 487 240.121 487 246 487C251.879 487 254.819 487 256.737 485.292C256.933 485.118 257.118 484.933 257.292 484.737C259 482.819 259 479.879 259 474V461V448C259 443.081 259 440.622 260.221 438.878C260.672 438.233 261.233 437.672 261.878 437.221C263.622 436 266.081 436 271 436C275.919 436 278.378 436 280.122 437.221C280.767 437.672 281.328 438.233 281.779 438.878C283 440.622 283 443.081 283 448V448.5C283 453.897 283 456.596 284.455 458.437C284.78 458.848 285.152 459.22 285.563 459.545C287.404 461 290.103 461 295.5 461H345.5C351.864 461 355.046 461 357.023 462.977C359 464.954 359 468.136 359 474.5V486V499C359 504.879 359 507.819 360.708 509.737C360.882 509.933 361.067 510.118 361.263 510.292C363.181 512 366.121 512 372 512C377.879 512 380.819 512 382.737 510.292C382.933 510.118 383.118 509.933 383.292 509.737C385 507.819 385 504.879 385 499V486V472.5C385 467.103 385 464.404 383.545 462.563C383.22 462.152 382.848 461.78 382.437 461.455C380.596 460 377.897 460 372.5 460C367.103 460 364.404 460 362.563 458.545C362.152 458.22 361.78 457.848 361.455 457.437C360 455.596 360 452.897 360 447.5V436L360 435V423.5C360 418.103 360 415.404 361.455 413.563C361.78 413.152 362.152 412.78 362.563 412.455C364.404 411 367.103 411 372.5 411C377.897 411 380.596 411 382.437 409.545C382.848 409.22 383.22 408.848 383.545 408.437C385 406.596 385 403.897 385 398.5V385V372C385 367.081 385 364.622 386.221 362.878C386.672 362.233 387.233 361.672 387.878 361.221C389.622 360 392.081 360 397 360C401.919 360 404.378 360 406.122 361.221C406.767 361.672 407.328 362.233 407.779 362.878C409 364.622 409 367.081 409 372V372.5C409 377.897 409 380.596 410.455 382.437C410.78 382.848 411.152 383.22 411.563 383.545C413.404 385 416.103 385 421.5 385H447.5C453.864 385 457.046 385 459.023 383.023C461 381.046 461 377.864 461 371.5V360V359V346.5C461 341.103 461 338.404 459.545 336.563C459.22 336.152 458.848 335.78 458.437 335.455C456.596 334 453.897 334 448.5 334C443.103 334 440.404 334 438.563 332.545C438.152 332.22 437.78 331.848 437.455 331.437C436 329.596 436 326.897 436 321.5C436 316.103 436 313.404 437.455 311.563C437.78 311.152 438.152 310.78 438.563 310.455C440.404 309 443.103 309 448.5 309C453.897 309 456.596 309 458.437 307.545C458.848 307.22 459.22 306.848 459.545 306.437C461 304.596 461 301.897 461 296.5V295.5C461 290.103 461 287.404 459.545 285.563C459.22 285.152 458.848 284.78 458.437 284.455C456.596 283 453.897 283 448.5 283C443.103 283 440.404 283 438.563 281.545C438.152 281.22 437.78 280.848 437.455 280.437C436 278.596 436 275.897 436 270.5C436 265.103 436 262.404 434.545 260.563C434.22 260.152 433.848 259.78 433.437 259.455C431.596 258 428.897 258 423.5 258C418.103 258 415.404 258 413.563 256.545C413.152 256.22 412.78 255.848 412.455 255.437C411 253.596 411 250.897 411 245.5V234V221C411 215.121 411 212.181 409.292 210.263C409.118 210.067 408.933 209.882 408.737 209.708C406.819 208 403.879 208 398 208H397.5C392.103 208 389.404 208 387.563 206.545C387.152 206.22 386.78 205.848 386.455 205.437C385 203.596 385 200.897 385 195.5C385 190.103 385 187.404 386.455 185.563C386.78 185.152 387.152 184.78 387.563 184.455C389.404 183 392.103 183 397.5 183H398C403.879 183 406.819 183 408.737 181.292C408.933 181.118 409.118 180.933 409.292 180.737C411 178.819 411 175.879 411 170L411 157V144.5ZM461 144C461 138.121 461 135.181 459.292 133.263C459.118 133.067 458.933 132.882 458.737 132.708C456.819 131 453.879 131 448 131C442.121 131 439.181 131 437.263 132.708C437.067 132.882 436.882 133.067 436.708 133.263C435 135.181 435 138.121 435 144V156V157V182V195C435 200.879 435 203.819 436.708 205.737C436.882 205.933 437.067 206.118 437.263 206.292C439.181 208 442.121 208 448 208C453.879 208 456.819 208 458.737 206.292C458.933 206.118 459.118 205.933 459.292 205.737C461 203.819 461 200.879 461 195V182V157V156V144ZM511 144C511 138.121 511 135.181 512.708 133.263C512.882 133.067 513.067 132.882 513.263 132.708C515.181 131 518.121 131 524 131H524.5C529.897 131 532.596 131 534.437 132.455C534.848 132.78 535.22 133.152 535.545 133.563C537 135.404 537 138.103 537 143.5C537 148.897 537 151.596 538.455 153.437C538.78 153.848 539.152 154.22 539.563 154.545C541.404 156 544.103 156 549.5 156H575.5C580.897 156 583.596 156 585.437 154.545C585.848 154.22 586.22 153.848 586.545 153.437C588 151.596 588 148.897 588 143.5C588 138.103 588 135.404 589.455 133.563C589.78 133.152 590.152 132.78 590.563 132.455C592.404 131 595.103 131 600.5 131H628.5C631.998 131 633.746 131 635.103 131.632C636.541 132.303 637.697 133.459 638.368 134.897C639 136.254 639 138.002 639 141.5C639 144.998 639 146.746 639.632 148.103C640.303 149.541 641.459 150.697 642.897 151.368C644.254 152 646.002 152 649.5 152H651.5C656.897 152 659.596 152 661.437 153.455C661.848 153.78 662.22 154.152 662.545 154.563C664 156.404 664 159.103 664 164.5V178V204V230V256V282V308V334V347C664 352.879 664 355.819 665.708 357.737C665.882 357.933 666.067 358.118 666.263 358.292C668.181 360 671.121 360 677 360L677.5 360C682.898 360 685.596 360 687.437 361.455C687.848 361.78 688.22 362.152 688.545 362.563C690 364.404 690 367.103 690 372.5V373.5C690 377.943 690 380.164 691.005 381.793C691.557 382.689 692.311 383.443 693.207 383.995C694.836 385 697.057 385 701.5 385C705.942 385 708.164 385 709.793 383.995C710.688 383.443 711.442 382.689 711.995 381.793C712.999 380.164 712.999 377.943 712.999 373.5V372C712.999 366.121 712.999 363.181 714.707 361.263C714.881 361.067 715.066 360.882 715.262 360.708C717.181 359 720.12 359 725.999 359H752C757.879 359 760.818 359 762.737 357.292C762.933 357.118 763.118 356.933 763.292 356.737C765 354.819 765 351.879 765 346C765 340.121 765 337.181 766.707 335.263C766.881 335.067 767.067 334.882 767.262 334.708C769.181 333 772.12 333 778 333H803C808.879 333 811.818 333 813.737 334.708C813.933 334.882 814.118 335.067 814.292 335.263C816 337.181 816 340.121 816 346V346.5C816 351.897 816 354.596 814.544 356.437C814.219 356.848 813.847 357.22 813.436 357.545C811.596 359 808.897 359 803.5 359C798.102 359 795.403 359 793.563 360.455C793.152 360.78 792.78 361.152 792.455 361.563C790.999 363.404 790.999 366.103 790.999 371.5V385V398.5C790.999 403.897 790.999 406.596 789.544 408.437C789.219 408.848 788.847 409.22 788.436 409.545C786.596 411 783.897 411 778.499 411C773.102 411 770.403 411 768.563 412.455C768.152 412.78 767.78 413.152 767.455 413.563C766 415.404 766 418.103 766 423.5C766 428.897 766 431.596 764.544 433.437C764.219 433.848 763.847 434.22 763.436 434.545C761.596 436 758.897 436 753.499 436H728.5C722.136 436 718.954 436 716.977 437.977C715 439.954 715 443.136 715 449.5V461V474C715 478.919 715 481.378 716.221 483.121C716.672 483.767 717.233 484.328 717.879 484.779C719.622 486 722.081 486 727 486C731.918 486 734.378 486 736.121 484.779C736.766 484.328 737.327 483.767 737.779 483.121C739 481.378 739 478.919 739 474V473.5C739 468.103 739 465.404 740.455 463.563C740.78 463.152 741.152 462.78 741.563 462.455C743.403 461 746.102 461 751.5 461H752.5C757.897 461 760.596 461 762.436 462.455C762.847 462.78 763.219 463.152 763.544 463.563C765 465.404 765 468.103 765 473.5C765 478.897 765 481.596 766.455 483.437C766.78 483.848 767.152 484.22 767.563 484.545C769.403 486 772.102 486 777.5 486H778.5C783.897 486 786.596 486 788.436 484.545C788.847 484.22 789.219 483.848 789.544 483.437C791 481.596 791 478.897 791 473.5C790.999 468.103 790.999 465.404 792.455 463.563C792.78 463.152 793.152 462.78 793.563 462.455C795.403 461 798.102 461 803.5 461C808.897 461 811.596 461 813.436 459.545C813.847 459.22 814.219 458.848 814.544 458.437C816 456.596 816 453.897 816 448.5V447.5C816 442.103 816 439.404 817.455 437.563C817.78 437.152 818.152 436.78 818.563 436.455C820.403 435 823.102 435 828.5 435C833.897 435 836.596 435 838.436 433.545C838.847 433.22 839.219 432.848 839.544 432.437C841 430.596 841 427.897 841 422.5C841 417.103 841 414.404 842.455 412.563C842.78 412.152 843.152 411.78 843.563 411.455C845.403 410 848.102 410 853.5 410H854C859.879 410 862.818 410 864.737 411.708C864.933 411.882 865.118 412.067 865.292 412.263C867 414.181 867 417.121 867 423V423.5C867 428.897 867 431.596 865.544 433.437C865.219 433.848 864.847 434.22 864.436 434.545C862.596 436 859.897 436 854.5 436C849.102 436 846.403 436 844.563 437.455C844.152 437.78 843.78 438.152 843.455 438.563C842 440.404 842 443.103 842 448.5V461H829.5C824.102 461 821.403 461 819.563 462.455C819.152 462.78 818.78 463.152 818.455 463.563C817 465.404 817 468.103 817 473.5C817 478.897 817 481.596 818.455 483.437C818.78 483.848 819.152 484.22 819.563 484.545C821.403 486 824.102 486 829.5 486C834.897 486 837.596 486 839.436 484.545C839.847 484.22 840.219 483.848 840.544 483.437C841.999 481.596 841.999 478.897 841.999 473.5L842 461H855C860.879 461 863.818 461 865.737 462.708C865.933 462.882 866.118 463.067 866.292 463.263C868 465.181 868 468.121 868 474V486.5C868 486.776 867.776 487 867.499 487C867.223 487 866.999 487.224 866.999 487.5V499.5C866.999 504.897 866.999 507.596 865.544 509.437C865.219 509.848 864.847 510.22 864.436 510.545C862.596 512 859.897 512 854.5 512C849.102 512 846.403 512 844.563 513.455C844.152 513.78 843.78 514.152 843.455 514.563C841.999 516.404 841.999 519.103 841.999 524.5V538C841.999 538 842 538 842 538C842 538 842 538 842 538V551C842 556.879 842 559.819 840.292 561.737C840.118 561.933 839.933 562.118 839.737 562.292C837.819 564 834.879 564 829 564C823.121 564 820.181 564 818.263 565.708C818.067 565.882 817.882 566.067 817.708 566.263C816 568.181 816 571.121 816 577V588V589V613V614L816 638L816 639V664V690L816 716H804C798.121 716 795.181 716 793.263 717.708C793.067 717.882 792.882 718.067 792.708 718.263C791 720.181 791 723.121 791 729V729.5C791 734.897 791 737.596 789.545 739.437C789.22 739.848 788.848 740.22 788.437 740.545C786.596 742 783.897 742 778.5 742C773.103 742 770.404 742 768.563 743.455C768.152 743.78 767.78 744.152 767.455 744.563C766 746.404 766 749.103 766 754.5V755C766 760.879 766 763.819 767.708 765.737C767.882 765.933 768.067 766.118 768.263 766.292C770.181 768 773.121 768 779 768H802.5C808.864 768 812.046 768 814.023 766.023C816 764.046 816 760.864 816 754.5V742V716H829C834.879 716 837.819 716 839.737 717.708C839.933 717.882 840.118 718.067 840.292 718.263C842 720.181 842 723.121 842 729V729.5C842 734.897 842 737.596 843.455 739.437C843.78 739.848 844.152 740.22 844.563 740.545C846.404 742 849.103 742 854.5 742C859.897 742 862.596 742 864.437 743.455C864.848 743.78 865.22 744.152 865.545 744.563C867 746.404 867 749.103 867 754.5V755C867 760.879 867 763.819 865.292 765.737C865.118 765.933 864.933 766.118 864.737 766.292C862.819 768 859.879 768 854 768C848.121 768 845.181 768 843.263 769.708C843.067 769.882 842.882 770.067 842.708 770.263C841 772.181 841 775.121 841 781C841 786.879 841 789.819 842.708 791.737C842.882 791.933 843.067 792.118 843.263 792.292C845.181 794 848.121 794 854 794C859.879 794 862.819 794 864.737 795.708C864.933 795.882 865.118 796.067 865.292 796.263C867 798.181 867 801.121 867 807V820V833C867 838.879 867 841.819 865.292 843.737C865.118 843.933 864.933 844.118 864.737 844.292C862.819 846 859.879 846 854 846C848.121 846 845.181 846 843.263 844.292C843.067 844.118 842.882 843.933 842.708 843.737C841 841.819 841 838.879 841 833V832.5C841 827.103 841 824.404 839.545 822.563C839.22 822.152 838.848 821.78 838.437 821.455C836.596 820 833.897 820 828.5 820C823.103 820 820.404 820 818.563 821.455C818.152 821.78 817.78 822.152 817.455 822.563C816 824.404 816 827.103 816 832.5V833.5C816 838.897 816 841.596 814.545 843.437C814.22 843.848 813.848 844.22 813.437 844.545C811.596 846 808.897 846 803.5 846C798.103 846 795.404 846 793.563 847.455C793.152 847.78 792.78 848.152 792.455 848.563C791 850.404 791 853.103 791 858.5V859C791 864.879 791 867.819 789.292 869.737C789.118 869.933 788.933 870.118 788.737 870.292C786.819 872 783.879 872 778 872H651.5C645.136 872 641.954 872 639.977 870.023C638 868.046 638 864.864 638 858.5V846V820V807.5C638 801.136 638 797.954 639.977 795.977C641.954 794 645.136 794 651.5 794H675.5C681.864 794 685.046 794 687.023 795.977C689 797.954 689 801.136 689 807.5V820H677C671.121 820 668.181 820 666.263 821.708C666.067 821.882 665.882 822.067 665.708 822.263C664 824.181 664 827.121 664 833V833.5C664 838.898 664 841.596 665.455 843.437C665.78 843.848 666.152 844.22 666.563 844.545C668.404 846 671.103 846 676.5 846C681.897 846 684.596 846 686.437 844.545C686.848 844.22 687.22 843.848 687.545 843.437C689 841.596 689 838.898 689 833.5V820H700.5C706.864 820 710.046 820 712.023 818.023C714 816.046 714 812.864 714 806.5V794V781.5C714 775.136 714 771.954 712.023 769.977C710.046 768 706.864 768 700.5 768L626.5 768C620.136 768 616.954 768 614.977 769.977C613 771.954 613 775.136 613 781.5V791V817V830.5C613 835.898 613 838.596 611.545 840.437C611.22 840.848 610.848 841.22 610.437 841.545C608.596 843 605.897 843 600.5 843C595.103 843 592.404 843 590.563 844.455C590.152 844.78 589.78 845.152 589.455 845.563C588 847.404 588 850.103 588 855.5C588 860.897 588 863.596 586.545 865.437C586.22 865.848 585.848 866.22 585.437 866.545C583.596 868 580.898 868 575.5 868H575C569.121 868 566.181 868 564.263 866.292C564.067 866.118 563.882 865.933 563.708 865.737C562 863.819 562 860.879 562 855V854.5C562 849.103 562 846.404 563.455 844.563C563.78 844.152 564.152 843.78 564.563 843.455C566.404 842 569.103 842 574.5 842C579.897 842 582.596 842 584.437 840.545C584.848 840.22 585.22 839.848 585.545 839.437C587 837.596 587 834.897 587 829.5V817V791V778C587 772.121 587 769.181 588.708 767.263C588.882 767.067 589.067 766.882 589.263 766.708C591.181 765 594.121 765 600 765H601.5C605.943 765 608.164 765 609.794 763.995C610.689 763.443 611.443 762.689 611.995 761.794C613 760.164 613 757.943 613 753.5C613 749.057 613 746.836 611.995 745.206C611.443 744.311 610.689 743.557 609.794 743.005C608.164 742 605.943 742 601.5 742H575C570.081 742 567.622 742 565.878 743.221C565.233 743.672 564.672 744.233 564.221 744.878C563 746.622 563 749.081 563 754C563 758.919 563 761.378 561.779 763.122C561.328 763.767 560.767 764.328 560.122 764.779C558.378 766 555.919 766 551 766H549.5C544.103 766 541.404 766 539.563 764.545C539.152 764.22 538.78 763.848 538.455 763.437C537 761.596 537 758.897 537 753.5C537 748.103 537 745.404 535.545 743.563C535.22 743.152 534.848 742.78 534.437 742.455C532.596 741 529.897 741 524.5 741H524C518.121 741 515.181 741 513.263 742.708C513.067 742.882 512.882 743.067 512.708 743.263C511 745.181 511 748.121 511 754C511 759.879 511 762.819 509.292 764.737C509.118 764.933 508.933 765.118 508.737 765.292C506.819 767 503.879 767 498 767H474.5C468.136 767 464.954 767 462.977 765.023C461 763.046 461 759.864 461 753.5V741V715.5C461 715.224 460.776 715 460.5 715C460.224 715 460 714.776 460 714.5V689V676.5C460 671.103 460 668.404 458.545 666.563C458.22 666.152 457.848 665.78 457.437 665.455C455.596 664 452.897 664 447.5 664C442.103 664 439.404 664 437.563 662.545C437.152 662.22 436.78 661.848 436.455 661.437C435 659.596 435 656.897 435 651.5C435 646.103 435 643.404 433.545 641.563C433.22 641.152 432.848 640.78 432.437 640.455C430.596 639 427.897 639 422.5 639C417.103 639 414.404 639 412.563 637.545C412.152 637.22 411.78 636.848 411.455 636.437C410 634.596 410 631.898 410 626.5V626C410 620.121 410 617.181 411.708 615.263C411.882 615.067 412.067 614.882 412.263 614.708C414.181 613 417.121 613 423 613H423.5C428.897 613 431.596 613 433.437 614.455C433.848 614.78 434.22 615.152 434.545 615.563C436 617.404 436 620.103 436 625.5C436 630.897 436 633.596 437.455 635.437C437.78 635.848 438.152 636.22 438.563 636.545C440.404 638 443.103 638 448.5 638C453.897 638 456.596 638 458.437 636.545C458.848 636.22 459.22 635.848 459.545 635.437C461 633.596 461 630.897 461 625.5C461 620.103 461 617.404 462.455 615.563C462.78 615.152 463.152 614.78 463.563 614.455C465.404 613 468.103 613 473.5 613H474C479.879 613 482.819 613 484.737 614.708C484.933 614.882 485.118 615.067 485.292 615.263C487 617.181 487 620.121 487 626C487 631.879 487 634.819 485.292 636.737C485.118 636.933 484.933 637.118 484.737 637.292C482.819 639 479.879 639 474 639H473C468.081 639 465.622 639 463.878 640.221C463.233 640.672 462.672 641.233 462.221 641.878C461 643.622 461 646.081 461 651C461 655.919 461 658.378 462.221 660.122C462.672 660.767 463.233 661.328 463.878 661.779C465.622 663 468.081 663 473 663H524.5C529.897 663 532.596 663 534.437 661.545C534.848 661.22 535.22 660.848 535.545 660.437C537 658.596 537 655.897 537 650.5C537 645.103 537 642.404 538.455 640.563C538.78 640.152 539.152 639.78 539.563 639.455C541.404 638 544.103 638 549.5 638H550.5C555.897 638 558.596 638 560.437 639.455C560.848 639.78 561.22 640.152 561.545 640.563C563 642.404 563 645.103 563 650.5C563 655.897 563 658.596 564.455 660.437C564.78 660.848 565.152 661.22 565.563 661.545C567.404 663 570.103 663 575.5 663C580.898 663 583.596 663 585.437 664.455C585.848 664.78 586.22 665.152 586.545 665.563C588 667.404 588 670.103 588 675.5V676C588 681.879 588 684.819 586.292 686.737C586.118 686.933 585.933 687.118 585.737 687.292C583.819 689 580.879 689 575 689H574.5C569.103 689 566.404 689 564.563 687.545C564.152 687.22 563.78 686.848 563.455 686.437C562 684.596 562 681.897 562 676.5C562 671.103 562 668.404 560.545 666.563C560.22 666.152 559.848 665.78 559.437 665.455C557.596 664 554.897 664 549.5 664C544.103 664 541.404 664 539.563 665.455C539.152 665.78 538.78 666.152 538.455 666.563C537 668.404 537 671.103 537 676.5V689V714.5C537 714.776 537.224 715 537.5 715C537.776 715 538 715.224 538 715.5V728C538 732.919 538 735.378 539.221 737.122C539.672 737.767 540.233 738.328 540.878 738.779C542.622 740 545.081 740 550 740C554.919 740 557.378 740 559.122 738.779C559.767 738.328 560.328 737.767 560.779 737.122C562 735.378 562 732.919 562 728C562 723.081 562 720.622 563.221 718.878C563.672 718.233 564.233 717.672 564.878 717.221C566.622 716 569.081 716 574 716H599.5C605.864 716 609.046 716 611.023 714.023C613 712.046 613 708.864 613 702.5V690V676.5C613 671.103 613 668.404 614.455 666.563C614.78 666.152 615.152 665.78 615.563 665.455C617.404 664 620.103 664 625.5 664C630.897 664 633.596 664 635.437 662.545C635.848 662.22 636.22 661.848 636.545 661.437C638 659.596 638 656.897 638 651.5V650.5C638 645.103 638 642.404 639.455 640.563C639.78 640.152 640.152 639.78 640.563 639.455C642.404 638 645.103 638 650.5 638H651.5C655.943 638 658.164 638 659.794 636.995C660.689 636.443 661.443 635.689 661.995 634.794C663 633.164 663 630.943 663 626.5C663 622.057 663 619.836 661.995 618.206C661.443 617.311 660.689 616.557 659.794 616.005C658.164 615 655.943 615 651.5 615H650.5C645.103 615 642.404 615 640.563 613.545C640.152 613.22 639.78 612.848 639.455 612.437C638 610.596 638 607.898 638 602.5V589V563V550.5C638 545.103 638 542.404 636.545 540.563C636.22 540.152 635.848 539.78 635.437 539.455C633.596 538 630.897 538 625.5 538C620.103 538 617.404 538 615.563 536.545C615.152 536.22 614.78 535.848 614.455 535.437C613 533.596 613 530.897 613 525.5V512V499C613 493.121 613 490.181 614.708 488.263C614.882 488.067 615.067 487.882 615.263 487.708C617.181 486 620.121 486 626 486C631.879 486 634.819 486 636.737 487.708C636.933 487.882 637.118 488.067 637.292 488.263C639 490.181 639 493.121 639 499V512V524.5C639 529.897 639 532.596 640.455 534.437C640.78 534.848 641.152 535.22 641.563 535.545C643.404 537 646.103 537 651.5 537C656.897 537 659.596 537 661.437 538.455C661.848 538.78 662.22 539.152 662.545 539.563C664 541.404 664 544.103 664 549.5V550C664 555.879 664 558.819 665.708 560.737C665.882 560.933 666.067 561.118 666.263 561.292C668.181 563 671.121 563 677 563C682.879 563 685.819 563 687.737 564.708C687.933 564.882 688.118 565.067 688.292 565.263C690 567.181 690 570.121 690 576C690 581.879 690 584.819 688.292 586.737C688.118 586.933 687.933 587.118 687.737 587.292C685.819 589 682.879 589 677 589H676C671.081 589 668.622 589 666.878 590.221C666.233 590.672 665.672 591.233 665.221 591.878C664 593.622 664 596.081 664 601C664 605.919 664 608.378 665.221 610.122C665.672 610.767 666.233 611.328 666.878 611.779C668.622 613 671.081 613 676 613H702.5C707.897 613 710.596 613 712.437 614.455C712.848 614.78 713.22 615.152 713.545 615.563C715 617.404 715 620.103 715 625.5V626C715 630.919 715 633.378 716.221 635.122C716.672 635.767 717.233 636.328 717.878 636.779C719.622 638 722.081 638 727 638C731.919 638 734.378 638 736.122 636.779C736.767 636.328 737.328 635.767 737.779 635.122C739 633.378 739 630.919 739 626V625.5C739 620.103 739 617.404 740.455 615.563C740.78 615.152 741.152 614.78 741.563 614.455C743.404 613 746.103 613 751.5 613H752.5C757.898 613 760.596 613 762.437 614.455C762.848 614.78 763.22 615.152 763.545 615.563C765 617.404 765 620.103 765 625.5C765 630.897 765 633.596 766.455 635.437C766.78 635.848 767.152 636.22 767.563 636.545C769.404 638 772.103 638 777.5 638C782.897 638 785.596 638 787.437 636.545C787.848 636.22 788.22 635.848 788.545 635.437C790 633.596 790 630.897 790 625.5V614V613V589V588V575.5C790 570.103 790 567.404 788.545 565.563C788.22 565.152 787.848 564.78 787.437 564.455C785.596 563 782.897 563 777.5 563C772.103 563 769.404 563 767.563 564.455C767.152 564.78 766.78 565.152 766.455 565.563C765 567.404 765 570.103 765 575.5V576C765 581.879 765 584.819 763.292 586.737C763.118 586.933 762.933 587.118 762.737 587.292C760.819 589 757.879 589 752 589C746.121 589 743.181 589 741.263 587.292C741.067 587.118 740.882 586.933 740.708 586.737C739 584.819 739 581.879 739 576V563V538C739 538 739 538 739 538C739 538 739 538 739 538V524.5C739 519.103 739 516.404 737.544 514.563C737.219 514.152 736.847 513.78 736.436 513.455C734.596 512 731.897 512 726.5 512C721.102 512 718.403 512 716.563 510.545C716.152 510.22 715.78 509.848 715.455 509.437C714 507.596 714 504.897 714 499.5C714 494.103 714 491.404 712.544 489.564C712.219 489.152 711.847 488.78 711.436 488.455C709.596 487 706.897 487 701.5 487C696.103 487 693.404 487 691.564 488.455C691.152 488.78 690.78 489.152 690.455 489.564C689 491.404 689 494.103 689 499.5C689 504.897 689 507.596 687.545 509.437C687.22 509.848 686.848 510.22 686.437 510.545C684.596 512 681.897 512 676.5 512H676C670.121 512 667.181 512 665.263 510.292C665.067 510.118 664.882 509.933 664.708 509.737C663 507.819 663 504.879 663 499C663 493.121 663 490.181 664.708 488.263C664.882 488.067 665.067 487.882 665.263 487.708C667.181 486 670.121 486 676 486H676.5C681.897 486 684.596 486 686.437 484.545C686.848 484.22 687.22 483.848 687.545 483.437C689 481.596 689 478.897 689 473.5C689 468.103 689 465.404 687.545 463.563C687.22 463.152 686.848 462.78 686.437 462.455C684.596 461 681.897 461 676.5 461H626C620.121 461 617.181 461 615.263 459.292C615.067 459.118 614.882 458.933 614.708 458.737C613 456.819 613 453.879 613 448C613 442.121 613 439.181 614.708 437.263C614.882 437.067 615.067 436.882 615.263 436.708C617.181 435 620.121 435 626 435H702C706.918 435 709.378 435 711.121 433.779C711.766 433.328 712.327 432.767 712.779 432.122C714 430.378 714 427.919 714 423C714 418.081 714 415.622 712.779 413.878C712.327 413.233 711.766 412.672 711.121 412.221C709.378 411 706.918 411 702 411H675.5C670.103 411 667.404 411 665.563 409.545C665.152 409.22 664.78 408.848 664.455 408.437C663 406.596 663 403.897 663 398.5C663 393.103 663 390.404 661.545 388.563C661.22 388.152 660.848 387.78 660.437 387.455C658.596 386 655.897 386 650.5 386C645.103 386 642.404 386 640.563 384.545C640.152 384.22 639.78 383.848 639.455 383.437C638 381.596 638 378.897 638 373.5V360V334V308V282V271C638 266.081 638 263.622 636.779 261.878C636.328 261.233 635.767 260.672 635.122 260.221C633.378 259 630.919 259 626 259C621.081 259 618.622 259 616.878 260.221C616.233 260.672 615.672 261.233 615.221 261.878C614 263.622 614 266.081 614 271V285V298C614 303.879 614 306.819 612.292 308.737C612.118 308.933 611.933 309.118 611.737 309.292C609.819 311 606.879 311 601 311C595.121 311 592.181 311 590.263 309.292C590.067 309.118 589.882 308.933 589.708 308.737C588 306.819 588 303.879 588 298V297.5C588 292.103 588 289.404 586.545 287.563C586.22 287.152 585.848 286.78 585.437 286.455C583.596 285 580.897 285 575.5 285C570.103 285 567.404 285 565.563 286.455C565.152 286.78 564.78 287.152 564.455 287.563C563 289.404 563 292.103 563 297.5V298C563 303.879 563 306.819 561.292 308.737C561.118 308.933 560.933 309.118 560.737 309.292C558.819 311 555.879 311 550 311C544.121 311 541.181 311 539.263 309.292C539.067 309.118 538.882 308.933 538.708 308.737C537 306.819 537 303.879 537 298V297C537 292.081 537 289.622 535.779 287.878C535.328 287.233 534.767 286.672 534.122 286.221C532.378 285 529.919 285 525 285C520.081 285 517.622 285 515.878 286.221C515.233 286.672 514.672 287.233 514.221 287.878C513 289.622 513 292.081 513 297V311V322.5C513 327.897 513 330.596 514.455 332.437C514.78 332.848 515.152 333.22 515.563 333.545C517.404 335 520.103 335 525.5 335C530.897 335 533.596 335 535.437 336.455C535.848 336.78 536.22 337.152 536.545 337.563C538 339.404 538 342.103 538 347.5V361V374C538 379.879 538 382.819 536.292 384.737C536.118 384.933 535.933 385.118 535.737 385.292C533.819 387 530.879 387 525 387C519.121 387 516.181 387 514.263 385.292C514.067 385.118 513.882 384.933 513.708 384.737C512 382.819 512 379.879 512 374V361V349.5C512 344.103 512 341.404 510.545 339.563C510.22 339.152 509.848 338.78 509.437 338.455C507.596 337 504.897 337 499.5 337C494.103 337 491.404 337 489.563 335.545C489.152 335.22 488.78 334.848 488.455 334.437C487 332.596 487 329.897 487 324.5V311V285V272.5C487 266.136 487 262.954 488.977 260.977C490.954 259 494.136 259 500.5 259H548.5C554.864 259 558.046 259 560.023 257.023C562 255.046 562 251.864 562 245.5V233V219.5C562 214.103 562 211.404 563.455 209.563C563.78 209.152 564.152 208.78 564.563 208.455C566.404 207 569.103 207 574.5 207H575C579.919 207 582.378 207 584.122 205.779C584.767 205.328 585.328 204.767 585.779 204.122C587 202.378 587 199.919 587 195C587 190.081 587 187.622 588.221 185.878C588.672 185.233 589.233 184.672 589.878 184.221C591.622 183 594.081 183 599 183H601C605.919 183 608.378 183 610.122 184.221C610.767 184.672 611.328 185.233 611.779 185.878C613 187.622 613 190.081 613 195C613 199.919 613 202.378 614.221 204.122C614.672 204.767 615.233 205.328 615.878 205.779C617.622 207 620.081 207 625 207H635C636.657 207 638 205.657 638 204V178V170.5C638 164.136 638 160.954 636.023 158.977C634.046 157 630.864 157 624.5 157H600.5C595.103 157 592.404 157 590.563 158.455C590.152 158.78 589.78 159.152 589.455 159.563C588 161.404 588 164.103 588 169.5C588 174.897 588 177.596 586.545 179.437C586.22 179.848 585.848 180.22 585.437 180.545C583.596 182 580.897 182 575.5 182H549.5C544.103 182 541.404 182 539.563 180.545C539.152 180.22 538.78 179.848 538.455 179.437C537 177.596 537 174.897 537 169.5C537 164.103 537 161.404 535.545 159.563C535.22 159.152 534.848 158.78 534.437 158.455C532.596 157 529.897 157 524.5 157H524C518.121 157 515.181 157 513.263 155.292C513.067 155.118 512.882 154.933 512.708 154.737C511 152.819 511 149.879 511 144ZM511 195C511 189.121 511 186.181 509.292 184.263C509.118 184.067 508.933 183.882 508.737 183.708C506.819 182 503.879 182 498 182C492.121 182 489.181 182 487.263 183.708C487.067 183.882 486.882 184.067 486.708 184.263C485 186.181 485 189.121 485 195C485 200.879 485 203.819 486.708 205.737C486.882 205.933 487.067 206.118 487.263 206.292C489.181 208 492.121 208 498 208C503.879 208 506.819 208 508.737 206.292C508.933 206.118 509.118 205.933 509.292 205.737C511 203.819 511 200.879 511 195ZM727 410C722.081 410 719.622 410 717.878 408.779C717.233 408.328 716.672 407.767 716.221 407.121C715 405.378 715 402.919 715 398V397C715 392.081 715 389.622 716.221 387.879C716.672 387.233 717.233 386.672 717.878 386.221C719.622 385 722.081 385 727 385C731.918 385 734.378 385 736.121 386.221C736.766 386.672 737.327 387.233 737.779 387.879C739 389.622 739 392.081 739 397V398C739 402.919 739 405.378 737.779 407.121C737.327 407.767 736.766 408.328 736.121 408.779C734.378 410 731.918 410 727 410ZM562 373.5C562 368.103 562 365.404 563.455 363.563C563.78 363.152 564.152 362.78 564.563 362.455C566.404 361 569.103 361 574.5 361C579.897 361 582.596 361 584.437 359.545C584.848 359.22 585.22 358.848 585.545 358.437C587 356.596 587 353.897 587 348.5V348C587 342.121 587 339.181 588.708 337.263C588.882 337.067 589.067 336.882 589.263 336.708C591.181 335 594.121 335 600 335C605.879 335 608.819 335 610.737 336.708C610.933 336.882 611.118 337.067 611.292 337.263C613 339.181 613 342.121 613 348V348.5C613 353.897 613 356.596 611.545 358.437C611.22 358.848 610.848 359.22 610.437 359.545C608.596 361 605.897 361 600.5 361C595.103 361 592.404 361 590.563 362.455C590.152 362.78 589.78 363.152 589.455 363.563C588 365.404 588 368.103 588 373.5V374C588 379.879 588 382.819 586.292 384.737C586.118 384.933 585.933 385.118 585.737 385.292C583.819 387 580.879 387 575 387C569.121 387 566.181 387 564.263 385.292C564.067 385.118 563.882 384.933 563.708 384.737C562 382.819 562 379.879 562 374V373.5ZM372.5 284C367.103 284 364.404 284 362.563 285.455C362.152 285.78 361.78 286.152 361.455 286.563C360 288.404 360 291.103 360 296.5C360 301.897 360 304.596 361.455 306.437C361.78 306.848 362.152 307.22 362.563 307.545C364.404 309 367.103 309 372.5 309C377.897 309 380.596 309 382.437 307.545C382.848 307.22 383.22 306.848 383.545 306.437C385 304.596 385 301.897 385 296.5C385 291.103 385 288.404 383.545 286.563C383.22 286.152 382.848 285.78 382.437 285.455C380.596 284 377.897 284 372.5 284ZM435 296C435 291.081 435 288.622 433.779 286.878C433.328 286.233 432.767 285.672 432.122 285.221C430.378 284 427.919 284 423 284C418.081 284 415.622 284 413.878 285.221C413.233 285.672 412.672 286.233 412.221 286.878C411 288.622 411 291.081 411 296C411 300.919 411 303.378 412.221 305.122C412.672 305.767 413.233 306.328 413.878 306.779C415.622 308 418.081 308 423 308C427.919 308 430.378 308 432.122 306.779C432.767 306.328 433.328 305.767 433.779 305.122C435 303.378 435 300.919 435 296ZM410 322C410 326.919 410 329.378 408.779 331.122C408.328 331.767 407.767 332.328 407.122 332.779C405.378 334 402.919 334 398 334H397C392.081 334 389.622 334 387.878 332.779C387.233 332.328 386.672 331.767 386.221 331.122C385 329.378 385 326.919 385 322C385 317.081 385 314.622 386.221 312.878C386.672 312.233 387.233 311.672 387.878 311.221C389.622 310 392.081 310 397 310H398C402.919 310 405.378 310 407.122 311.221C407.767 311.672 408.328 312.233 408.779 312.878C410 314.622 410 317.081 410 322ZM246.5 385C240.136 385 236.954 385 234.977 386.977C233 388.954 233 392.136 233 398.5V411V422.5C233 427.897 233 430.596 234.455 432.437C234.78 432.848 235.152 433.22 235.563 433.545C237.404 435 240.103 435 245.5 435C250.897 435 253.596 435 255.437 433.545C255.848 433.22 256.22 432.848 256.545 432.437C258 430.596 258 427.897 258 422.5C258 417.103 258 414.404 259.455 412.563C259.78 412.152 260.152 411.78 260.563 411.455C262.404 410 265.103 410 270.5 410C275.897 410 278.596 410 280.437 408.545C280.848 408.22 281.22 407.848 281.545 407.437C283 405.596 283 402.897 283 397.5C283 392.103 283 389.404 281.545 387.563C281.22 387.152 280.848 386.78 280.437 386.455C278.596 385 275.897 385 270.5 385H246.5ZM296 361C291.081 361 288.622 361 286.878 362.221C286.233 362.672 285.672 363.233 285.221 363.878C284 365.622 284 368.081 284 373C284 377.919 284 380.378 285.221 382.122C285.672 382.767 286.233 383.328 286.878 383.779C288.622 385 291.081 385 296 385H297C301.919 385 304.378 385 306.122 383.779C306.767 383.328 307.328 382.767 307.779 382.122C309 380.378 309 377.919 309 373C309 368.081 309 365.622 307.779 363.878C307.328 363.233 306.767 362.672 306.122 362.221C304.378 361 301.919 361 297 361H296ZM309 575.5C309 580.897 309 583.596 307.545 585.437C307.22 585.848 306.848 586.22 306.437 586.545C304.596 588 301.897 588 296.5 588C291.103 588 288.404 588 286.563 586.545C286.152 586.22 285.78 585.848 285.455 585.437C284 583.596 284 580.897 284 575.5C284 570.103 284 567.404 285.455 565.563C285.78 565.152 286.152 564.78 286.563 564.455C288.404 563 291.103 563 296.5 563C301.897 563 304.596 563 306.437 564.455C306.848 564.78 307.22 565.152 307.545 565.563C309 567.404 309 570.103 309 575.5ZM310 550.5C310 555.897 310 558.596 311.455 560.437C311.78 560.848 312.152 561.22 312.563 561.545C314.404 563 317.103 563 322.5 563C327.897 563 330.596 563 332.437 564.455C332.848 564.78 333.22 565.152 333.545 565.563C335 567.404 335 570.103 335 575.5V576C335 581.879 335 584.819 333.292 586.737C333.118 586.933 332.933 587.118 332.737 587.292C330.819 589 327.879 589 322 589H321C316.081 589 313.622 589 311.878 590.221C311.233 590.672 310.672 591.233 310.221 591.878C309 593.622 309 596.081 309 601C309 605.919 309 608.378 310.221 610.122C310.672 610.767 311.233 611.328 311.878 611.779C313.622 613 316.081 613 321 613H322.5C327.897 613 330.596 613 332.437 614.455C332.848 614.78 333.22 615.152 333.545 615.563C335 617.404 335 620.103 335 625.5V626C335 630.919 335 633.378 336.221 635.122C336.672 635.767 337.233 636.328 337.878 636.779C339.622 638 342.081 638 347 638C351.919 638 354.378 638 356.122 636.779C356.767 636.328 357.328 635.767 357.779 635.122C359 633.378 359 630.919 359 626V625.5C359 620.103 359 617.404 360.455 615.563C360.78 615.152 361.152 614.78 361.563 614.455C363.404 613 366.103 613 371.5 613H372C377.879 613 380.819 613 382.737 614.708C382.933 614.882 383.118 615.067 383.292 615.263C385 617.181 385 620.121 385 626V626.5C385 631.898 385 634.596 383.545 636.437C383.22 636.848 382.848 637.22 382.437 637.545C380.596 639 377.897 639 372.5 639C367.103 639 364.404 639 362.563 640.455C362.152 640.78 361.78 641.152 361.455 641.563C360 643.404 360 646.103 360 651.5C360 656.897 360 659.596 361.455 661.437C361.78 661.848 362.152 662.22 362.563 662.545C364.404 664 367.103 664 372.5 664H397C402.879 664 405.819 664 407.737 665.708C407.933 665.882 408.118 666.067 408.292 666.263C410 668.181 410 671.121 410 677V677.5C410 682.897 410 685.596 411.455 687.437C411.78 687.848 412.152 688.22 412.563 688.545C414.404 690 417.103 690 422.5 690C427.897 690 430.596 690 432.437 691.455C432.848 691.78 433.22 692.152 433.545 692.563C435 694.404 435 697.103 435 702.5V704C435 708.919 435 711.378 433.779 713.122C433.328 713.767 432.767 714.328 432.122 714.779C430.378 716 427.919 716 423 716H422.5C418.057 716 415.836 716 414.206 717.005C413.311 717.557 412.557 718.311 412.005 719.206C411 720.836 411 723.057 411 727.5C411 731.943 411 734.164 412.005 735.794C412.557 736.689 413.311 737.443 414.206 737.995C415.836 739 418.057 739 422.5 739H423.5C428.897 739 431.596 739 433.437 740.455C433.848 740.78 434.22 741.152 434.545 741.563C436 743.404 436 746.103 436 751.5V765V791V802.5C436 808.864 436 812.046 437.977 814.023C439.954 816 443.136 816 449.5 816H461V842V854.5C461 860.864 461 864.046 459.023 866.023C457.046 868 453.864 868 447.5 868H424.5C418.136 868 414.954 868 412.977 866.023C411 864.046 411 860.864 411 854.5V842V830.5C411 824.136 411 820.954 409.023 818.977C407.046 817 403.864 817 397.5 817H372C366.121 817 363.181 817 361.263 815.292C361.067 815.118 360.882 814.933 360.708 814.737C359 812.819 359 809.879 359 804V803.5C359 798.103 359 795.404 357.545 793.563C357.22 793.152 356.848 792.78 356.437 792.455C354.596 791 351.897 791 346.5 791C341.103 791 338.404 791 336.563 789.545C336.152 789.22 335.78 788.848 335.455 788.437C334 786.596 334 783.897 334 778.5V765V751.5C334 746.103 334 743.404 335.455 741.563C335.78 741.152 336.152 740.78 336.563 740.455C338.404 739 341.103 739 346.5 739H347.5C351.943 739 354.164 739 355.794 737.995C356.689 737.443 357.443 736.689 357.995 735.794C359 734.164 359 731.943 359 727.5C359 723.057 359 720.836 357.995 719.206C357.443 718.311 356.689 717.557 355.794 717.005C354.164 716 351.943 716 347.5 716H346.5C341.103 716 338.404 716 336.563 714.545C336.152 714.22 335.78 713.848 335.455 713.437C334 711.596 334 708.897 334 703.5V690V664V651.5C334 646.103 334 643.404 332.545 641.563C332.22 641.152 331.848 640.78 331.437 640.455C329.596 639 326.897 639 321.5 639C316.103 639 313.404 639 311.563 637.545C311.152 637.22 310.78 636.848 310.455 636.437C309 634.596 309 631.898 309 626.5C309 621.103 309 618.404 307.545 616.563C307.22 616.152 306.848 615.78 306.437 615.455C304.596 614 301.897 614 296.5 614H271.5C265.136 614 261.954 614 259.977 612.023C258 610.046 258 606.864 258 600.5V588V575C258 569.121 258 566.181 259.708 564.263C259.882 564.067 260.067 563.882 260.263 563.708C262.181 562 265.121 562 271 562H271.5C276.897 562 279.596 562 281.437 560.545C281.848 560.22 282.22 559.848 282.545 559.437C284 557.596 284 554.897 284 549.5C284 544.103 284 541.404 285.455 539.563C285.78 539.152 286.152 538.78 286.563 538.455C288.404 537 291.103 537 296.5 537H297C301.919 537 304.378 537 306.122 535.779C306.767 535.328 307.328 534.767 307.779 534.122C309 532.378 309 529.919 309 525C309 520.081 309 517.622 307.779 515.878C307.328 515.233 306.767 514.672 306.122 514.221C304.378 513 301.919 513 297 513H296C290.121 513 287.181 513 285.263 511.292C285.067 511.118 284.882 510.933 284.708 510.737C283 508.819 283 505.879 283 500C283 494.121 283 491.181 284.708 489.263C284.882 489.067 285.067 488.882 285.263 488.708C287.181 487 290.121 487 296 487H297C301.919 487 304.378 487 306.122 488.221C306.767 488.672 307.328 489.233 307.779 489.878C309 491.622 309 494.081 309 499C309 503.919 309 506.378 310.221 508.122C310.672 508.767 311.233 509.328 311.878 509.779C313.622 511 316.081 511 321 511H322C327.879 511 330.819 511 332.737 512.708C332.933 512.882 333.118 513.067 333.292 513.263C335 515.181 335 518.121 335 524V524.5C335 529.897 335 532.596 333.545 534.437C333.22 534.848 332.848 535.22 332.437 535.545C330.596 537 327.897 537 322.5 537C317.103 537 314.404 537 312.563 538.455C312.152 538.78 311.78 539.152 311.455 539.563C310 541.404 310 544.103 310 549.5V550.5ZM461 816V803.5C461 797.136 461 793.954 462.977 791.977C464.954 790 468.136 790 474.5 790H523.5C529.864 790 533.046 790 535.023 791.977C537 793.954 537 797.136 537 803.5V816L537 842V855C537 860.879 537 863.819 535.292 865.737C535.118 865.933 534.933 866.118 534.737 866.292C532.819 868 529.879 868 524 868C518.121 868 515.181 868 513.263 866.292C513.067 866.118 512.882 865.933 512.708 865.737C511 863.819 511 860.879 511 855V854.5C511 849.103 511 846.404 509.545 844.563C509.22 844.152 508.848 843.78 508.437 843.455C506.596 842 503.897 842 498.5 842C493.103 842 490.404 842 488.563 840.545C488.152 840.22 487.78 839.848 487.455 839.437C486 837.596 486 834.897 486 829.5V829C486 823.121 486 820.181 484.292 818.263C484.118 818.067 483.933 817.882 483.737 817.708C481.819 816 478.879 816 473 816H461ZM410 765V777.5C410 783.864 410 787.046 408.023 789.023C406.046 791 402.864 791 396.5 791H373.5C367.136 791 363.954 791 361.977 789.023C360 787.046 360 783.864 360 777.5V765V755.5C360 749.136 360 745.954 361.977 743.977C363.954 742 367.136 742 373.5 742H396.5C402.864 742 406.046 742 408.023 743.977C410 745.954 410 749.136 410 755.5V765ZM359 550C359 544.121 359 541.181 360.708 539.263C360.882 539.067 361.067 538.882 361.263 538.708C363.181 537 366.121 537 372 537C377.879 537 380.819 537 382.737 538.708C382.933 538.882 383.118 539.067 383.292 539.263C385 541.181 385 544.121 385 550V563V576C385 581.879 385 584.819 383.292 586.737C383.118 586.933 382.933 587.118 382.737 587.292C380.819 589 377.879 589 372 589C366.121 589 363.181 589 361.263 587.292C361.067 587.118 360.882 586.933 360.708 586.737C359 584.819 359 581.879 359 576V563V550ZM600 209C604.919 209 607.378 209 609.122 210.221C609.767 210.672 610.328 211.233 610.779 211.878C612 213.622 612 216.081 612 221C612 225.919 612 228.378 610.779 230.122C610.328 230.767 609.767 231.328 609.122 231.779C607.378 233 604.919 233 600 233C595.081 233 592.622 233 590.878 231.779C590.233 231.328 589.672 230.767 589.221 230.122C588 228.378 588 225.919 588 221C588 216.081 588 213.622 589.221 211.878C589.672 211.233 590.233 210.672 590.878 210.221C592.622 209 595.081 209 600 209ZM816 373C816 367.121 816 364.181 817.707 362.263C817.881 362.067 818.067 361.882 818.262 361.708C820.181 360 823.12 360 829 360C834.879 360 837.818 360 839.737 361.708C839.933 361.882 840.118 362.067 840.292 362.263C842 364.181 842 367.121 842 373C842 378.879 842 381.819 840.292 383.737C840.118 383.933 839.933 384.118 839.737 384.292C837.818 386 834.879 386 829 386C823.12 386 820.181 386 818.262 384.292C818.067 384.118 817.881 383.933 817.707 383.737C816 381.819 816 378.879 816 373ZM664 690V677.5C664 671.136 664 667.954 665.977 665.977C667.954 664 671.136 664 677.5 664H725.5C731.864 664 735.046 664 737.023 665.977C739 667.954 739 671.136 739 677.5V690V716V728.5C739 734.864 739 738.046 737.023 740.023C735.046 742 731.864 742 725.5 742H677.5C671.136 742 667.954 742 665.977 740.023C664 738.046 664 734.864 664 728.5V716V690ZM791 550.5C791 555.897 791 558.596 792.455 560.437C792.78 560.848 793.152 561.22 793.563 561.545C795.404 563 798.103 563 803.5 563C808.897 563 811.596 563 813.437 561.545C813.848 561.22 814.22 560.848 814.545 560.437C816 558.596 816 555.897 816 550.5C816 545.103 816 542.404 814.545 540.563C814.22 540.152 813.848 539.78 813.437 539.455C811.596 538 808.897 538 803.5 538C798.103 538 795.404 538 793.563 539.455C793.152 539.78 792.78 540.152 792.455 540.563C791 542.404 791 545.103 791 550.5ZM752.5 487C747.102 487 744.403 487 742.563 488.455C742.152 488.78 741.78 489.152 741.455 489.563C740 491.404 740 494.103 740 499.5C740 504.897 740 507.596 741.455 509.437C741.78 509.848 742.152 510.22 742.563 510.545C744.403 512 747.102 512 752.5 512C757.897 512 760.596 512 762.436 510.545C762.847 510.22 763.219 509.848 763.544 509.437C765 507.596 765 504.897 765 499.5C765 494.103 765 491.404 763.544 489.563C763.219 489.152 762.847 488.78 762.436 488.455C760.596 487 757.897 487 752.5 487ZM791 500C791 504.919 791 507.378 792.22 509.122C792.672 509.767 793.233 510.328 793.878 510.779C795.621 512 798.081 512 802.999 512C807.918 512 810.378 512 812.121 510.779C812.766 510.328 813.327 509.767 813.779 509.122C814.999 507.378 814.999 504.919 814.999 500V499C814.999 494.081 814.999 491.622 813.779 489.878C813.327 489.233 812.766 488.672 812.121 488.221C810.378 487 807.918 487 802.999 487C798.081 487 795.621 487 793.878 488.221C793.233 488.672 792.672 489.233 792.22 489.878C790.999 491.622 790.999 494.081 790.999 499L791 500ZM841 600C841 594.121 841 591.181 842.708 589.263C842.882 589.067 843.067 588.882 843.263 588.708C845.181 587 848.121 587 854 587C859.879 587 862.819 587 864.737 588.708C864.933 588.882 865.118 589.067 865.292 589.263C867 591.181 867 594.121 867 600C867 605.879 867 608.819 865.292 610.737C865.118 610.933 864.933 611.118 864.737 611.292C862.819 613 859.879 613 854 613C848.121 613 845.181 613 843.263 611.292C843.067 611.118 842.882 610.933 842.708 610.737C841 608.819 841 605.879 841 600ZM867 651C867 645.121 867 642.181 865.292 640.263C865.118 640.067 864.933 639.882 864.737 639.708C862.819 638 859.879 638 854 638C848.121 638 845.181 638 843.263 639.708C843.067 639.882 842.882 640.067 842.708 640.263C841 642.181 841 645.121 841 651C841 656.879 841 659.819 842.708 661.737C842.882 661.933 843.067 662.118 843.263 662.292C845.181 664 848.121 664 854 664C859.879 664 862.819 664 864.737 662.292C864.933 662.118 865.118 661.933 865.292 661.737C867 659.819 867 656.879 867 651ZM740 781C740 786.879 740 789.819 741.708 791.737C741.882 791.933 742.067 792.118 742.263 792.292C744.181 794 747.121 794 753 794H765V806.5C765 812.864 765 816.046 766.977 818.023C768.954 820 772.136 820 778.5 820H802C807.879 820 810.819 820 812.737 818.292C812.933 818.118 813.118 817.933 813.292 817.737C815 815.819 815 812.879 815 807C815 801.121 815 798.181 813.292 796.263C813.118 796.067 812.933 795.882 812.737 795.708C810.819 794 807.879 794 802 794H765V780.5C765 775.103 765 772.404 763.545 770.563C763.22 770.152 762.848 769.78 762.437 769.455C760.596 768 757.897 768 752.5 768C747.103 768 744.404 768 742.563 769.455C742.152 769.78 741.78 770.152 741.455 770.563C740 772.404 740 775.103 740 780.5V781ZM740 832.5C740 827.103 740 824.404 738.545 822.563C738.22 822.152 737.848 821.78 737.437 821.455C735.596 820 732.897 820 727.5 820C722.103 820 719.404 820 717.563 821.455C717.152 821.78 716.78 822.152 716.455 822.563C715 824.404 715 827.103 715 832.5V833.5C715 838.898 715 841.596 716.455 843.437C716.78 843.848 717.152 844.22 717.563 844.545C719.404 846 722.103 846 727.5 846C732.897 846 735.596 846 737.437 844.545C737.848 844.22 738.22 843.848 738.545 843.437C740 841.596 740 838.898 740 833.5V832.5ZM766 704.5C766 708.943 766 711.164 767.005 712.794C767.557 713.689 768.311 714.443 769.206 714.995C770.836 716 773.057 716 777.5 716C781.943 716 784.164 716 785.794 714.995C786.689 714.443 787.443 713.689 787.995 712.794C789 711.164 789 708.943 789 704.5V701.5C789 697.057 789 694.836 787.995 693.206C787.443 692.311 786.689 691.557 785.794 691.005C784.164 690 781.943 690 777.5 690C773.057 690 770.836 690 769.206 691.005C768.311 691.557 767.557 692.311 767.005 693.206C766 694.836 766 697.057 766 701.5V704.5ZM689 702C689 696.121 689 693.181 690.708 691.263C690.882 691.067 691.067 690.882 691.263 690.708C693.181 689 696.121 689 702 689C707.879 689 710.819 689 712.737 690.708C712.933 690.882 713.118 691.067 713.292 691.263C715 693.181 715 696.121 715 702C715 707.879 715 710.819 713.292 712.737C713.118 712.933 712.933 713.118 712.737 713.292C710.819 715 707.879 715 702 715C696.121 715 693.181 715 691.263 713.292C691.067 713.118 690.882 712.933 690.708 712.737C689 710.819 689 707.879 689 702Z" fill="#FF9A52"/>
<path d="M698 176.75C698 159.767 711.767 146 728.75 146H820.25C837.233 146 851 159.767 851 176.75V268.25C851 285.233 837.233 299 820.25 299H728.75C711.767 299 698 285.233 698 268.25V176.75Z" stroke="#FF8152" stroke-width="30"/>
<rect x="735" y="183" width="79" height="79" rx="7" fill="#BF693E"/>
<path d="M146 176.75C146 159.767 159.767 146 176.75 146H268.25C285.233 146 299 159.767 299 176.75V268.25C299 285.233 285.233 299 268.25 299H176.75C159.767 299 146 285.233 146 268.25V176.75Z" stroke="#FF8152" stroke-width="30"/>
<rect x="183" y="183" width="79" height="79" rx="7" fill="#BF693D"/>
<path d="M146 728.75C146 711.767 159.767 698 176.75 698H268.25C285.233 698 299 711.767 299 728.75V820.25C299 837.233 285.233 851 268.25 851H176.75C159.767 851 146 837.233 146 820.25V728.75Z" stroke="#FF8152" stroke-width="30"/>
<rect x="183" y="735" width="79" height="79" rx="7" fill="#BF693D"/>
<path d="M406 453C406 427.043 427.043 406 453 406H547C572.957 406 594 427.043 594 453V547C594 572.957 572.957 594 547 594H453C427.043 594 406 572.957 406 547V453Z" fill="#FF8152"/>
<path d="M456.577 455.936C456.577 448.519 465.208 444.448 470.931 449.166L500.154 473.255V517.029H465.35C460.505 517.029 456.577 513.101 456.577 508.255V455.936Z" fill="white"/>
<path d="M543.731 455.936C543.731 448.519 535.1 444.448 529.378 449.166L500.154 473.255V517.029H534.958C539.803 517.029 543.731 513.101 543.731 508.255V455.936Z" fill="white"/>
<path d="M494.577 475.881C497.817 473.216 502.491 473.217 505.729 475.884L547.419 510.224C551.68 513.734 551.679 520.261 547.416 523.77L505.726 558.081C502.489 560.745 497.819 560.747 494.58 558.084L452.844 523.773C448.576 520.264 448.574 513.731 452.841 510.221L494.577 475.881Z" fill="white"/>
<path d="M452.755 523.705C450.819 522.109 449.765 519.89 449.59 517.615C451.916 517.229 454.305 517.029 456.741 517.029C480.171 517.029 499.265 535.59 500.121 558.81C500.963 535.593 520.05 517.029 543.473 517.029C545.877 517.029 548.235 517.224 550.532 517.6C550.374 519.904 549.315 522.156 547.354 523.77L505.665 558.081C504.046 559.413 502.07 560.079 500.094 560.08C500.094 560.079 500.094 560.078 500.094 560.077C498.084 560.097 496.068 559.429 494.424 558.072L452.755 523.705Z" fill="white"/>
</svg>
