<svg width="1000" height="1000" viewBox="0 0 1000 1000" fill="none" xmlns="http://www.w3.org/2000/svg">
<path d="M774.991 0H225.009C100.74 0 0 100.74 0 225.009V774.991C0 899.26 100.74 1000 225.009 1000H774.991C899.26 1000 1000 899.26 1000 774.991V225.009C1000 100.74 899.26 0 774.991 0Z" fill="white"/>
<path fill-rule="evenodd" clip-rule="evenodd" d="M411 145.5C411 139.136 411 135.954 409.023 133.977C407.046 132 403.864 132 397.5 132H372C366.121 132 363.181 132 361.263 133.708C361.067 133.882 360.882 134.067 360.708 134.263C359 136.181 359 139.121 359 145C359 150.879 359 153.819 360.708 155.737C360.882 155.933 361.067 156.118 361.263 156.292C363.181 158 366.121 158 372 158H372.5C377.897 158 380.596 158 382.437 159.455C382.848 159.78 383.22 160.152 383.545 160.563C385 162.404 385 165.103 385 170.5C385 175.897 385 178.596 383.545 180.437C383.22 180.848 382.848 181.22 382.437 181.545C380.596 183 377.897 183 372.5 183H347.5C341.136 183 337.954 183 335.977 184.977C334 186.954 334 190.136 334 196.5V209V221.5C334 227.864 334 231.046 335.977 233.023C337.954 235 341.136 235 347.5 235H373C377.919 235 380.378 235 382.122 236.221C382.767 236.672 383.328 237.233 383.779 237.878C385 239.622 385 242.081 385 247C385 251.919 385 254.378 383.779 256.122C383.328 256.767 382.767 257.328 382.122 257.779C380.378 259 377.919 259 373 259H372.5C367.103 259 364.404 259 362.563 260.455C362.152 260.78 361.78 261.152 361.455 261.563C360 263.404 360 266.103 360 271.5C360 276.897 360 279.596 358.545 281.437C358.22 281.848 357.848 282.22 357.437 282.545C355.596 284 352.897 284 347.5 284H347C341.121 284 338.181 284 336.263 285.708C336.067 285.882 335.882 286.067 335.708 286.263C334 288.181 334 291.121 334 297V297.5C334 302.897 334 305.596 335.455 307.437C335.78 307.848 336.152 308.22 336.563 308.545C338.404 310 341.103 310 346.5 310C351.897 310 354.596 310 356.437 311.455C356.848 311.78 357.22 312.152 357.545 312.563C359 314.404 359 317.103 359 322.5V335V336V360V361V386V398.5C359 403.897 359 406.596 357.545 408.437C357.22 408.848 356.848 409.22 356.437 409.545C354.596 411 351.897 411 346.5 411C341.103 411 338.404 411 336.563 412.455C336.152 412.78 335.78 413.152 335.455 413.563C334 415.404 334 418.103 334 423.5C334 428.897 334 431.596 332.545 433.437C332.22 433.848 331.848 434.22 331.437 434.545C329.596 436 326.897 436 321.5 436H296C291.081 436 288.622 436 286.878 434.779C286.233 434.328 285.672 433.767 285.221 433.122C284 431.378 284 428.919 284 424C284 419.081 284 416.622 285.221 414.878C285.672 414.233 286.233 413.672 286.878 413.221C288.622 412 291.081 412 296 412H296.5C301.897 412 304.596 412 306.437 410.545C306.848 410.22 307.22 409.848 307.545 409.437C309 407.596 309 404.897 309 399.5C309 394.103 309 391.404 310.455 389.563C310.78 389.152 311.152 388.78 311.563 388.455C313.404 387 316.103 387 321.5 387H322C327.879 387 330.819 387 332.737 385.292C332.933 385.118 333.118 384.933 333.292 384.737C335 382.819 335 379.879 335 374V362V361V349.5C335 343.136 335 339.954 333.023 337.977C331.046 336 327.864 336 321.5 336H296C291.081 336 288.622 336 286.878 337.221C286.233 337.672 285.672 338.233 285.221 338.878C284 340.622 284 343.081 284 348C284 352.919 284 355.378 282.779 357.122C282.328 357.767 281.767 358.328 281.122 358.779C279.378 360 276.919 360 272 360H271.5C266.103 360 263.404 360 261.563 358.545C261.152 358.22 260.78 357.848 260.455 357.437C259 355.596 259 352.897 259 347.5V347C259 341.121 259 338.181 257.292 336.263C257.118 336.067 256.933 335.882 256.737 335.708C254.819 334 251.879 334 246 334H220.5C214.136 334 210.954 334 208.977 335.977C207 337.954 207 341.136 207 347.5V360V373C207 378.879 207 381.819 205.292 383.737C205.118 383.933 204.933 384.118 204.737 384.292C202.819 386 199.879 386 194 386C188.121 386 185.181 386 183.263 387.708C183.067 387.882 182.882 388.067 182.708 388.263C181 390.181 181 393.121 181 399C181 404.879 181 407.819 179.292 409.737C179.118 409.933 178.933 410.118 178.737 410.292C176.819 412 173.879 412 168 412H157H144.5C138.136 412 134.954 412 132.977 413.977C131 415.954 131 419.136 131 425.5V438V451C131 456.879 131 459.819 132.708 461.737C132.882 461.933 133.067 462.118 133.263 462.292C135.181 464 138.121 464 144 464C149.879 464 152.819 464 154.737 462.292C154.933 462.118 155.118 461.933 155.292 461.737C157 459.819 157 456.879 157 451C157 445.121 157 442.181 158.708 440.263C158.882 440.067 159.067 439.882 159.263 439.708C161.181 438 164.121 438 170 438C175.879 438 178.819 438 180.737 436.292C180.933 436.118 181.118 435.933 181.292 435.737C183 433.819 183 430.879 183 425V424C183 419.081 183 416.622 184.221 414.878C184.672 414.233 185.233 413.672 185.878 413.221C187.622 412 190.081 412 195 412C199.919 412 202.378 412 204.122 413.221C204.767 413.672 205.328 414.233 205.779 414.878C207 416.622 207 419.081 207 424V425C207 430.879 207 433.819 208.708 435.737C208.882 435.933 209.067 436.118 209.263 436.292C211.181 438 214.121 438 220 438H221C225.919 438 228.378 438 230.122 439.221C230.767 439.672 231.328 440.233 231.779 440.878C233 442.622 233 445.081 233 450C233 454.919 233 457.378 231.779 459.122C231.328 459.767 230.767 460.328 230.122 460.779C228.378 462 225.919 462 221 462H195C189.121 462 186.181 462 184.263 463.708C184.067 463.882 183.882 464.067 183.708 464.263C182 466.181 182 469.121 182 475V487.5C182 487.776 181.776 488 181.5 488C181.224 488 181 488.224 181 488.5V501C181 506.879 181 509.819 179.292 511.737C179.118 511.933 178.933 512.118 178.737 512.292C176.819 514 173.879 514 168 514L144 514C138.121 514 135.181 514 133.263 515.708C133.067 515.882 132.882 516.067 132.708 516.263C131 518.181 131 521.121 131 527C131 532.879 131 535.819 132.708 537.737C132.882 537.933 133.067 538.118 133.263 538.292C135.181 540 138.121 540 144 540C149.879 540 152.819 540 154.737 541.708C154.933 541.882 155.118 542.067 155.292 542.263C157 544.181 157 547.121 157 553C157 558.879 157 561.819 155.292 563.737C155.118 563.933 154.933 564.118 154.737 564.292C152.819 566 149.879 566 144 566C138.121 566 135.181 566 133.263 567.708C133.067 567.882 132.882 568.067 132.708 568.263C131 570.181 131 573.121 131 579V592V618V644V656.5C131 662.864 131 666.046 132.977 668.023C134.954 670 138.136 670 144.5 670H195C200.879 670 203.819 670 205.737 668.292C205.933 668.118 206.118 667.933 206.292 667.737C208 665.819 208 662.879 208 657V656.5C208 651.103 208 648.404 209.455 646.563C209.78 646.152 210.152 645.78 210.563 645.455C212.404 644 215.103 644 220.5 644C225.897 644 228.596 644 230.437 645.455C230.848 645.78 231.22 646.152 231.545 646.563C233 648.404 233 651.103 233 656.5V657C233 662.879 233 665.819 234.708 667.737C234.882 667.933 235.067 668.118 235.263 668.292C237.181 670 240.121 670 246 670H296C301.879 670 304.819 670 306.737 668.292C306.933 668.118 307.118 667.933 307.292 667.737C309 665.819 309 662.879 309 657C309 651.121 309 648.181 307.292 646.263C307.118 646.067 306.933 645.882 306.737 645.708C304.819 644 301.879 644 296 644H272C266.121 644 263.181 644 261.263 642.292C261.067 642.118 260.882 641.933 260.708 641.737C259 639.819 259 636.879 259 631C259 625.121 259 622.181 257.292 620.263C257.118 620.067 256.933 619.882 256.737 619.708C254.819 618 251.879 618 246 618H196C190.121 618 187.181 618 185.263 616.292C185.067 616.118 184.882 615.933 184.708 615.737C183 613.819 183 610.879 183 605V604C183 599.081 183 596.622 184.221 594.878C184.672 594.233 185.233 593.672 185.878 593.221C187.622 592 190.081 592 195 592H196C199.969 592 201.954 592 203.454 592.809C204.614 593.434 205.566 594.386 206.191 595.546C207 597.046 207 599.031 207 603C207 606.969 207 608.954 207.809 610.454C208.434 611.614 209.386 612.566 210.546 613.191C212.046 614 214.031 614 218 614H220C225.879 614 228.819 614 230.737 612.292C230.933 612.118 231.118 611.933 231.292 611.737C233 609.819 233 606.879 233 601C233 595.121 233 592.181 231.292 590.263C231.118 590.067 230.933 589.882 230.737 589.708C228.819 588 225.879 588 220 588H218C214.031 588 212.046 588 210.546 587.191C209.386 586.566 208.434 585.614 207.809 584.454C207 582.954 207 580.969 207 577C207 573.031 207 571.046 207.809 569.546C208.434 568.386 209.386 567.434 210.546 566.809C212.046 566 214.031 566 218 566H220C225.879 566 228.819 566 230.737 564.292C230.933 564.118 231.118 563.933 231.292 563.737C233 561.819 233 558.879 233 553C233 547.121 233 544.181 234.708 542.263C234.882 542.067 235.067 541.882 235.263 541.708C237.181 540 240.121 540 246 540C251.879 540 254.819 540 256.737 538.292C256.933 538.118 257.118 537.933 257.292 537.737C259 535.819 259 532.879 259 527C259 521.121 259 518.181 257.292 516.263C257.118 516.067 256.933 515.882 256.737 515.708C254.819 514 251.879 514 246 514C240.121 514 237.181 514 235.263 512.292C235.067 512.118 234.882 511.933 234.708 511.737C233 509.819 233 506.879 233 501C233 495.121 233 492.181 234.708 490.263C234.882 490.067 235.067 489.882 235.263 489.708C237.181 488 240.121 488 246 488C251.879 488 254.819 488 256.737 486.292C256.933 486.118 257.118 485.933 257.292 485.737C259 483.819 259 480.879 259 475V462V449C259 444.081 259 441.622 260.221 439.878C260.672 439.233 261.233 438.672 261.878 438.221C263.622 437 266.081 437 271 437C275.919 437 278.378 437 280.122 438.221C280.767 438.672 281.328 439.233 281.779 439.878C283 441.622 283 444.081 283 449V449.5C283 454.897 283 457.596 284.455 459.437C284.78 459.848 285.152 460.22 285.563 460.545C287.404 462 290.103 462 295.5 462H345.5C351.864 462 355.046 462 357.023 463.977C359 465.954 359 469.136 359 475.5V487V500C359 505.879 359 508.819 360.708 510.737C360.882 510.933 361.067 511.118 361.263 511.292C363.181 513 366.121 513 372 513C377.879 513 380.819 513 382.737 511.292C382.933 511.118 383.118 510.933 383.292 510.737C385 508.819 385 505.879 385 500V487V473.5C385 468.103 385 465.404 383.545 463.563C383.22 463.152 382.848 462.78 382.437 462.455C380.596 461 377.897 461 372.5 461C367.103 461 364.404 461 362.563 459.545C362.152 459.22 361.78 458.848 361.455 458.437C360 456.596 360 453.897 360 448.5V437L360 436V424.5C360 419.103 360 416.404 361.455 414.563C361.78 414.152 362.152 413.78 362.563 413.455C364.404 412 367.103 412 372.5 412C377.897 412 380.596 412 382.437 410.545C382.848 410.22 383.22 409.848 383.545 409.437C385 407.596 385 404.897 385 399.5V386V373C385 368.081 385 365.622 386.221 363.878C386.672 363.233 387.233 362.672 387.878 362.221C389.622 361 392.081 361 397 361C401.919 361 404.378 361 406.122 362.221C406.767 362.672 407.328 363.233 407.779 363.878C409 365.622 409 368.081 409 373V373.5C409 378.897 409 381.596 410.455 383.437C410.78 383.848 411.152 384.22 411.563 384.545C413.404 386 416.103 386 421.5 386H447.5C453.864 386 457.046 386 459.023 384.023C461 382.046 461 378.864 461 372.5V361V360V347.5C461 342.103 461 339.404 459.545 337.563C459.22 337.152 458.848 336.78 458.437 336.455C456.596 335 453.897 335 448.5 335C443.103 335 440.404 335 438.563 333.545C438.152 333.22 437.78 332.848 437.455 332.437C436 330.596 436 327.897 436 322.5C436 317.103 436 314.404 437.455 312.563C437.78 312.152 438.152 311.78 438.563 311.455C440.404 310 443.103 310 448.5 310C453.897 310 456.596 310 458.437 308.545C458.848 308.22 459.22 307.848 459.545 307.437C461 305.596 461 302.897 461 297.5V296.5C461 291.103 461 288.404 459.545 286.563C459.22 286.152 458.848 285.78 458.437 285.455C456.596 284 453.897 284 448.5 284C443.103 284 440.404 284 438.563 282.545C438.152 282.22 437.78 281.848 437.455 281.437C436 279.596 436 276.897 436 271.5C436 266.103 436 263.404 434.545 261.563C434.22 261.152 433.848 260.78 433.437 260.455C431.596 259 428.897 259 423.5 259C418.103 259 415.404 259 413.563 257.545C413.152 257.22 412.78 256.848 412.455 256.437C411 254.596 411 251.897 411 246.5V235V222C411 216.121 411 213.181 409.292 211.263C409.118 211.067 408.933 210.882 408.737 210.708C406.819 209 403.879 209 398 209H397.5C392.103 209 389.404 209 387.563 207.545C387.152 207.22 386.78 206.848 386.455 206.437C385 204.596 385 201.897 385 196.5C385 191.103 385 188.404 386.455 186.563C386.78 186.152 387.152 185.78 387.563 185.455C389.404 184 392.103 184 397.5 184H398C403.879 184 406.819 184 408.737 182.292C408.933 182.118 409.118 181.933 409.292 181.737C411 179.819 411 176.879 411 171L411 158V145.5ZM461 145C461 139.121 461 136.181 459.292 134.263C459.118 134.067 458.933 133.882 458.737 133.708C456.819 132 453.879 132 448 132C442.121 132 439.181 132 437.263 133.708C437.067 133.882 436.882 134.067 436.708 134.263C435 136.181 435 139.121 435 145V157V158V183V196C435 201.879 435 204.819 436.708 206.737C436.882 206.933 437.067 207.118 437.263 207.292C439.181 209 442.121 209 448 209C453.879 209 456.819 209 458.737 207.292C458.933 207.118 459.118 206.933 459.292 206.737C461 204.819 461 201.879 461 196V183V158V157V145ZM511 145C511 139.121 511 136.181 512.708 134.263C512.882 134.067 513.067 133.882 513.263 133.708C515.181 132 518.121 132 524 132H524.5C529.897 132 532.596 132 534.437 133.455C534.848 133.78 535.22 134.152 535.545 134.563C537 136.404 537 139.103 537 144.5C537 149.897 537 152.596 538.455 154.437C538.78 154.848 539.152 155.22 539.563 155.545C541.404 157 544.103 157 549.5 157H575.5C580.897 157 583.596 157 585.437 155.545C585.848 155.22 586.22 154.848 586.545 154.437C588 152.596 588 149.897 588 144.5C588 139.103 588 136.404 589.455 134.563C589.78 134.152 590.152 133.78 590.563 133.455C592.404 132 595.103 132 600.5 132H628.5C631.998 132 633.746 132 635.103 132.632C636.541 133.303 637.697 134.459 638.368 135.897C639 137.254 639 139.002 639 142.5C639 145.998 639 147.746 639.632 149.103C640.303 150.541 641.459 151.697 642.897 152.368C644.254 153 646.002 153 649.5 153H651.5C656.897 153 659.596 153 661.437 154.455C661.848 154.78 662.22 155.152 662.545 155.563C664 157.404 664 160.103 664 165.5V179V205V231V257V283V309V335V348C664 353.879 664 356.819 665.708 358.737C665.882 358.933 666.067 359.118 666.263 359.292C668.181 361 671.121 361 677 361L677.5 361C682.898 361 685.596 361 687.437 362.455C687.848 362.78 688.22 363.152 688.545 363.563C690 365.404 690 368.103 690 373.5V374.5C690 378.943 690 381.164 691.005 382.793C691.557 383.689 692.311 384.443 693.207 384.995C694.836 386 697.057 386 701.5 386C705.942 386 708.164 386 709.793 384.995C710.688 384.443 711.442 383.689 711.995 382.793C712.999 381.164 712.999 378.943 712.999 374.5V373C712.999 367.121 712.999 364.181 714.707 362.263C714.881 362.067 715.066 361.882 715.262 361.708C717.181 360 720.12 360 725.999 360H752C757.879 360 760.818 360 762.737 358.292C762.933 358.118 763.118 357.933 763.292 357.737C765 355.819 765 352.879 765 347C765 341.121 765 338.181 766.707 336.263C766.881 336.067 767.067 335.882 767.262 335.708C769.181 334 772.12 334 778 334H803C808.879 334 811.818 334 813.737 335.708C813.933 335.882 814.118 336.067 814.292 336.263C816 338.181 816 341.121 816 347V347.5C816 352.897 816 355.596 814.544 357.437C814.219 357.848 813.847 358.22 813.436 358.545C811.596 360 808.897 360 803.5 360C798.102 360 795.403 360 793.563 361.455C793.152 361.78 792.78 362.152 792.455 362.563C790.999 364.404 790.999 367.103 790.999 372.5V386V399.5C790.999 404.897 790.999 407.596 789.544 409.437C789.219 409.848 788.847 410.22 788.436 410.545C786.596 412 783.897 412 778.499 412C773.102 412 770.403 412 768.563 413.455C768.152 413.78 767.78 414.152 767.455 414.563C766 416.404 766 419.103 766 424.5C766 429.897 766 432.596 764.544 434.437C764.219 434.848 763.847 435.22 763.436 435.545C761.596 437 758.897 437 753.499 437H728.5C722.136 437 718.954 437 716.977 438.977C715 440.954 715 444.136 715 450.5V462V475C715 479.919 715 482.378 716.221 484.121C716.672 484.767 717.233 485.328 717.879 485.779C719.622 487 722.081 487 727 487C731.918 487 734.378 487 736.121 485.779C736.766 485.328 737.327 484.767 737.779 484.121C739 482.378 739 479.919 739 475V474.5C739 469.103 739 466.404 740.455 464.563C740.78 464.152 741.152 463.78 741.563 463.455C743.403 462 746.102 462 751.5 462H752.5C757.897 462 760.596 462 762.436 463.455C762.847 463.78 763.219 464.152 763.544 464.563C765 466.404 765 469.103 765 474.5C765 479.897 765 482.596 766.455 484.437C766.78 484.848 767.152 485.22 767.563 485.545C769.403 487 772.102 487 777.5 487H778.5C783.897 487 786.596 487 788.436 485.545C788.847 485.22 789.219 484.848 789.544 484.437C791 482.596 791 479.897 791 474.5C790.999 469.103 790.999 466.404 792.455 464.563C792.78 464.152 793.152 463.78 793.563 463.455C795.403 462 798.102 462 803.5 462C808.897 462 811.596 462 813.436 460.545C813.847 460.22 814.219 459.848 814.544 459.437C816 457.596 816 454.897 816 449.5V448.5C816 443.103 816 440.404 817.455 438.563C817.78 438.152 818.152 437.78 818.563 437.455C820.403 436 823.102 436 828.5 436C833.897 436 836.596 436 838.436 434.545C838.847 434.22 839.219 433.848 839.544 433.437C841 431.596 841 428.897 841 423.5C841 418.103 841 415.404 842.455 413.563C842.78 413.152 843.152 412.78 843.563 412.455C845.403 411 848.102 411 853.5 411H854C859.879 411 862.818 411 864.737 412.708C864.933 412.882 865.118 413.067 865.292 413.263C867 415.181 867 418.121 867 424V424.5C867 429.897 867 432.596 865.544 434.437C865.219 434.848 864.847 435.22 864.436 435.545C862.596 437 859.897 437 854.5 437C849.102 437 846.403 437 844.563 438.455C844.152 438.78 843.78 439.152 843.455 439.563C842 441.404 842 444.103 842 449.5V462H829.5C824.102 462 821.403 462 819.563 463.455C819.152 463.78 818.78 464.152 818.455 464.563C817 466.404 817 469.103 817 474.5C817 479.897 817 482.596 818.455 484.437C818.78 484.848 819.152 485.22 819.563 485.545C821.403 487 824.102 487 829.5 487C834.897 487 837.596 487 839.436 485.545C839.847 485.22 840.219 484.848 840.544 484.437C841.999 482.596 841.999 479.897 841.999 474.5L842 462H855C860.879 462 863.818 462 865.737 463.708C865.933 463.882 866.118 464.067 866.292 464.263C868 466.181 868 469.121 868 475V487.5C868 487.776 867.776 488 867.499 488C867.223 488 866.999 488.224 866.999 488.5V500.5C866.999 505.897 866.999 508.596 865.544 510.437C865.219 510.848 864.847 511.22 864.436 511.545C862.596 513 859.897 513 854.5 513C849.102 513 846.403 513 844.563 514.455C844.152 514.78 843.78 515.152 843.455 515.563C841.999 517.404 841.999 520.103 841.999 525.5V539C841.999 539 842 539 842 539C842 539 842 539 842 539V552C842 557.879 842 560.819 840.292 562.737C840.118 562.933 839.933 563.118 839.737 563.292C837.819 565 834.879 565 829 565C823.121 565 820.181 565 818.263 566.708C818.067 566.882 817.882 567.067 817.708 567.263C816 569.181 816 572.121 816 578V589V590V614V615L816 639L816 640V665V691L816 717H804C798.121 717 795.181 717 793.263 718.708C793.067 718.882 792.882 719.067 792.708 719.263C791 721.181 791 724.121 791 730V730.5C791 735.897 791 738.596 789.545 740.437C789.22 740.848 788.848 741.22 788.437 741.545C786.596 743 783.897 743 778.5 743C773.103 743 770.404 743 768.563 744.455C768.152 744.78 767.78 745.152 767.455 745.563C766 747.404 766 750.103 766 755.5V756C766 761.879 766 764.819 767.708 766.737C767.882 766.933 768.067 767.118 768.263 767.292C770.181 769 773.121 769 779 769H802.5C808.864 769 812.046 769 814.023 767.023C816 765.046 816 761.864 816 755.5V743V717H829C834.879 717 837.819 717 839.737 718.708C839.933 718.882 840.118 719.067 840.292 719.263C842 721.181 842 724.121 842 730V730.5C842 735.897 842 738.596 843.455 740.437C843.78 740.848 844.152 741.22 844.563 741.545C846.404 743 849.103 743 854.5 743C859.897 743 862.596 743 864.437 744.455C864.848 744.78 865.22 745.152 865.545 745.563C867 747.404 867 750.103 867 755.5V756C867 761.879 867 764.819 865.292 766.737C865.118 766.933 864.933 767.118 864.737 767.292C862.819 769 859.879 769 854 769C848.121 769 845.181 769 843.263 770.708C843.067 770.882 842.882 771.067 842.708 771.263C841 773.181 841 776.121 841 782C841 787.879 841 790.819 842.708 792.737C842.882 792.933 843.067 793.118 843.263 793.292C845.181 795 848.121 795 854 795C859.879 795 862.819 795 864.737 796.708C864.933 796.882 865.118 797.067 865.292 797.263C867 799.181 867 802.121 867 808V821V834C867 839.879 867 842.819 865.292 844.737C865.118 844.933 864.933 845.118 864.737 845.292C862.819 847 859.879 847 854 847C848.121 847 845.181 847 843.263 845.292C843.067 845.118 842.882 844.933 842.708 844.737C841 842.819 841 839.879 841 834V833.5C841 828.103 841 825.404 839.545 823.563C839.22 823.152 838.848 822.78 838.437 822.455C836.596 821 833.897 821 828.5 821C823.103 821 820.404 821 818.563 822.455C818.152 822.78 817.78 823.152 817.455 823.563C816 825.404 816 828.103 816 833.5V834.5C816 839.897 816 842.596 814.545 844.437C814.22 844.848 813.848 845.22 813.437 845.545C811.596 847 808.897 847 803.5 847C798.103 847 795.404 847 793.563 848.455C793.152 848.78 792.78 849.152 792.455 849.563C791 851.404 791 854.103 791 859.5V860C791 865.879 791 868.819 789.292 870.737C789.118 870.933 788.933 871.118 788.737 871.292C786.819 873 783.879 873 778 873H651.5C645.136 873 641.954 873 639.977 871.023C638 869.046 638 865.864 638 859.5V847V821V808.5C638 802.136 638 798.954 639.977 796.977C641.954 795 645.136 795 651.5 795H675.5C681.864 795 685.046 795 687.023 796.977C689 798.954 689 802.136 689 808.5V821H677C671.121 821 668.181 821 666.263 822.708C666.067 822.882 665.882 823.067 665.708 823.263C664 825.181 664 828.121 664 834V834.5C664 839.898 664 842.596 665.455 844.437C665.78 844.848 666.152 845.22 666.563 845.545C668.404 847 671.103 847 676.5 847C681.897 847 684.596 847 686.437 845.545C686.848 845.22 687.22 844.848 687.545 844.437C689 842.596 689 839.898 689 834.5V821H700.5C706.864 821 710.046 821 712.023 819.023C714 817.046 714 813.864 714 807.5V795V782.5C714 776.136 714 772.954 712.023 770.977C710.046 769 706.864 769 700.5 769L626.5 769C620.136 769 616.954 769 614.977 770.977C613 772.954 613 776.136 613 782.5V792V818V831.5C613 836.898 613 839.596 611.545 841.437C611.22 841.848 610.848 842.22 610.437 842.545C608.596 844 605.897 844 600.5 844C595.103 844 592.404 844 590.563 845.455C590.152 845.78 589.78 846.152 589.455 846.563C588 848.404 588 851.103 588 856.5C588 861.897 588 864.596 586.545 866.437C586.22 866.848 585.848 867.22 585.437 867.545C583.596 869 580.898 869 575.5 869H575C569.121 869 566.181 869 564.263 867.292C564.067 867.118 563.882 866.933 563.708 866.737C562 864.819 562 861.879 562 856V855.5C562 850.103 562 847.404 563.455 845.563C563.78 845.152 564.152 844.78 564.563 844.455C566.404 843 569.103 843 574.5 843C579.897 843 582.596 843 584.437 841.545C584.848 841.22 585.22 840.848 585.545 840.437C587 838.596 587 835.897 587 830.5V818V792V779C587 773.121 587 770.181 588.708 768.263C588.882 768.067 589.067 767.882 589.263 767.708C591.181 766 594.121 766 600 766H601.5C605.943 766 608.164 766 609.794 764.995C610.689 764.443 611.443 763.689 611.995 762.794C613 761.164 613 758.943 613 754.5C613 750.057 613 747.836 611.995 746.206C611.443 745.311 610.689 744.557 609.794 744.005C608.164 743 605.943 743 601.5 743H575C570.081 743 567.622 743 565.878 744.221C565.233 744.672 564.672 745.233 564.221 745.878C563 747.622 563 750.081 563 755C563 759.919 563 762.378 561.779 764.122C561.328 764.767 560.767 765.328 560.122 765.779C558.378 767 555.919 767 551 767H549.5C544.103 767 541.404 767 539.563 765.545C539.152 765.22 538.78 764.848 538.455 764.437C537 762.596 537 759.897 537 754.5C537 749.103 537 746.404 535.545 744.563C535.22 744.152 534.848 743.78 534.437 743.455C532.596 742 529.897 742 524.5 742H524C518.121 742 515.181 742 513.263 743.708C513.067 743.882 512.882 744.067 512.708 744.263C511 746.181 511 749.121 511 755C511 760.879 511 763.819 509.292 765.737C509.118 765.933 508.933 766.118 508.737 766.292C506.819 768 503.879 768 498 768H474.5C468.136 768 464.954 768 462.977 766.023C461 764.046 461 760.864 461 754.5V742V716.5C461 716.224 460.776 716 460.5 716C460.224 716 460 715.776 460 715.5V690V677.5C460 672.103 460 669.404 458.545 667.563C458.22 667.152 457.848 666.78 457.437 666.455C455.596 665 452.897 665 447.5 665C442.103 665 439.404 665 437.563 663.545C437.152 663.22 436.78 662.848 436.455 662.437C435 660.596 435 657.897 435 652.5C435 647.103 435 644.404 433.545 642.563C433.22 642.152 432.848 641.78 432.437 641.455C430.596 640 427.897 640 422.5 640C417.103 640 414.404 640 412.563 638.545C412.152 638.22 411.78 637.848 411.455 637.437C410 635.596 410 632.898 410 627.5V627C410 621.121 410 618.181 411.708 616.263C411.882 616.067 412.067 615.882 412.263 615.708C414.181 614 417.121 614 423 614H423.5C428.897 614 431.596 614 433.437 615.455C433.848 615.78 434.22 616.152 434.545 616.563C436 618.404 436 621.103 436 626.5C436 631.897 436 634.596 437.455 636.437C437.78 636.848 438.152 637.22 438.563 637.545C440.404 639 443.103 639 448.5 639C453.897 639 456.596 639 458.437 637.545C458.848 637.22 459.22 636.848 459.545 636.437C461 634.596 461 631.897 461 626.5C461 621.103 461 618.404 462.455 616.563C462.78 616.152 463.152 615.78 463.563 615.455C465.404 614 468.103 614 473.5 614H474C479.879 614 482.819 614 484.737 615.708C484.933 615.882 485.118 616.067 485.292 616.263C487 618.181 487 621.121 487 627C487 632.879 487 635.819 485.292 637.737C485.118 637.933 484.933 638.118 484.737 638.292C482.819 640 479.879 640 474 640H473C468.081 640 465.622 640 463.878 641.221C463.233 641.672 462.672 642.233 462.221 642.878C461 644.622 461 647.081 461 652C461 656.919 461 659.378 462.221 661.122C462.672 661.767 463.233 662.328 463.878 662.779C465.622 664 468.081 664 473 664H524.5C529.897 664 532.596 664 534.437 662.545C534.848 662.22 535.22 661.848 535.545 661.437C537 659.596 537 656.897 537 651.5C537 646.103 537 643.404 538.455 641.563C538.78 641.152 539.152 640.78 539.563 640.455C541.404 639 544.103 639 549.5 639H550.5C555.897 639 558.596 639 560.437 640.455C560.848 640.78 561.22 641.152 561.545 641.563C563 643.404 563 646.103 563 651.5C563 656.897 563 659.596 564.455 661.437C564.78 661.848 565.152 662.22 565.563 662.545C567.404 664 570.103 664 575.5 664C580.898 664 583.596 664 585.437 665.455C585.848 665.78 586.22 666.152 586.545 666.563C588 668.404 588 671.103 588 676.5V677C588 682.879 588 685.819 586.292 687.737C586.118 687.933 585.933 688.118 585.737 688.292C583.819 690 580.879 690 575 690H574.5C569.103 690 566.404 690 564.563 688.545C564.152 688.22 563.78 687.848 563.455 687.437C562 685.596 562 682.897 562 677.5C562 672.103 562 669.404 560.545 667.563C560.22 667.152 559.848 666.78 559.437 666.455C557.596 665 554.897 665 549.5 665C544.103 665 541.404 665 539.563 666.455C539.152 666.78 538.78 667.152 538.455 667.563C537 669.404 537 672.103 537 677.5V690V715.5C537 715.776 537.224 716 537.5 716C537.776 716 538 716.224 538 716.5V729C538 733.919 538 736.378 539.221 738.122C539.672 738.767 540.233 739.328 540.878 739.779C542.622 741 545.081 741 550 741C554.919 741 557.378 741 559.122 739.779C559.767 739.328 560.328 738.767 560.779 738.122C562 736.378 562 733.919 562 729C562 724.081 562 721.622 563.221 719.878C563.672 719.233 564.233 718.672 564.878 718.221C566.622 717 569.081 717 574 717H599.5C605.864 717 609.046 717 611.023 715.023C613 713.046 613 709.864 613 703.5V691V677.5C613 672.103 613 669.404 614.455 667.563C614.78 667.152 615.152 666.78 615.563 666.455C617.404 665 620.103 665 625.5 665C630.897 665 633.596 665 635.437 663.545C635.848 663.22 636.22 662.848 636.545 662.437C638 660.596 638 657.897 638 652.5V651.5C638 646.103 638 643.404 639.455 641.563C639.78 641.152 640.152 640.78 640.563 640.455C642.404 639 645.103 639 650.5 639H651.5C655.943 639 658.164 639 659.794 637.995C660.689 637.443 661.443 636.689 661.995 635.794C663 634.164 663 631.943 663 627.5C663 623.057 663 620.836 661.995 619.206C661.443 618.311 660.689 617.557 659.794 617.005C658.164 616 655.943 616 651.5 616H650.5C645.103 616 642.404 616 640.563 614.545C640.152 614.22 639.78 613.848 639.455 613.437C638 611.596 638 608.898 638 603.5V590V564V551.5C638 546.103 638 543.404 636.545 541.563C636.22 541.152 635.848 540.78 635.437 540.455C633.596 539 630.897 539 625.5 539C620.103 539 617.404 539 615.563 537.545C615.152 537.22 614.78 536.848 614.455 536.437C613 534.596 613 531.897 613 526.5V513V500C613 494.121 613 491.181 614.708 489.263C614.882 489.067 615.067 488.882 615.263 488.708C617.181 487 620.121 487 626 487C631.879 487 634.819 487 636.737 488.708C636.933 488.882 637.118 489.067 637.292 489.263C639 491.181 639 494.121 639 500V513V525.5C639 530.897 639 533.596 640.455 535.437C640.78 535.848 641.152 536.22 641.563 536.545C643.404 538 646.103 538 651.5 538C656.897 538 659.596 538 661.437 539.455C661.848 539.78 662.22 540.152 662.545 540.563C664 542.404 664 545.103 664 550.5V551C664 556.879 664 559.819 665.708 561.737C665.882 561.933 666.067 562.118 666.263 562.292C668.181 564 671.121 564 677 564C682.879 564 685.819 564 687.737 565.708C687.933 565.882 688.118 566.067 688.292 566.263C690 568.181 690 571.121 690 577C690 582.879 690 585.819 688.292 587.737C688.118 587.933 687.933 588.118 687.737 588.292C685.819 590 682.879 590 677 590H676C671.081 590 668.622 590 666.878 591.221C666.233 591.672 665.672 592.233 665.221 592.878C664 594.622 664 597.081 664 602C664 606.919 664 609.378 665.221 611.122C665.672 611.767 666.233 612.328 666.878 612.779C668.622 614 671.081 614 676 614H702.5C707.897 614 710.596 614 712.437 615.455C712.848 615.78 713.22 616.152 713.545 616.563C715 618.404 715 621.103 715 626.5V627C715 631.919 715 634.378 716.221 636.122C716.672 636.767 717.233 637.328 717.878 637.779C719.622 639 722.081 639 727 639C731.919 639 734.378 639 736.122 637.779C736.767 637.328 737.328 636.767 737.779 636.122C739 634.378 739 631.919 739 627V626.5C739 621.103 739 618.404 740.455 616.563C740.78 616.152 741.152 615.78 741.563 615.455C743.404 614 746.103 614 751.5 614H752.5C757.898 614 760.596 614 762.437 615.455C762.848 615.78 763.22 616.152 763.545 616.563C765 618.404 765 621.103 765 626.5C765 631.897 765 634.596 766.455 636.437C766.78 636.848 767.152 637.22 767.563 637.545C769.404 639 772.103 639 777.5 639C782.897 639 785.596 639 787.437 637.545C787.848 637.22 788.22 636.848 788.545 636.437C790 634.596 790 631.897 790 626.5V615V614V590V589V576.5C790 571.103 790 568.404 788.545 566.563C788.22 566.152 787.848 565.78 787.437 565.455C785.596 564 782.897 564 777.5 564C772.103 564 769.404 564 767.563 565.455C767.152 565.78 766.78 566.152 766.455 566.563C765 568.404 765 571.103 765 576.5V577C765 582.879 765 585.819 763.292 587.737C763.118 587.933 762.933 588.118 762.737 588.292C760.819 590 757.879 590 752 590C746.121 590 743.181 590 741.263 588.292C741.067 588.118 740.882 587.933 740.708 587.737C739 585.819 739 582.879 739 577V564V539C739 539 739 539 739 539C739 539 739 539 739 539V525.5C739 520.103 739 517.404 737.544 515.563C737.219 515.152 736.847 514.78 736.436 514.455C734.596 513 731.897 513 726.5 513C721.102 513 718.403 513 716.563 511.545C716.152 511.22 715.78 510.848 715.455 510.437C714 508.596 714 505.897 714 500.5C714 495.103 714 492.404 712.544 490.564C712.219 490.152 711.847 489.78 711.436 489.455C709.596 488 706.897 488 701.5 488C696.103 488 693.404 488 691.564 489.455C691.152 489.78 690.78 490.152 690.455 490.564C689 492.404 689 495.103 689 500.5C689 505.897 689 508.596 687.545 510.437C687.22 510.848 686.848 511.22 686.437 511.545C684.596 513 681.897 513 676.5 513H676C670.121 513 667.181 513 665.263 511.292C665.067 511.118 664.882 510.933 664.708 510.737C663 508.819 663 505.879 663 500C663 494.121 663 491.181 664.708 489.263C664.882 489.067 665.067 488.882 665.263 488.708C667.181 487 670.121 487 676 487H676.5C681.897 487 684.596 487 686.437 485.545C686.848 485.22 687.22 484.848 687.545 484.437C689 482.596 689 479.897 689 474.5C689 469.103 689 466.404 687.545 464.563C687.22 464.152 686.848 463.78 686.437 463.455C684.596 462 681.897 462 676.5 462H626C620.121 462 617.181 462 615.263 460.292C615.067 460.118 614.882 459.933 614.708 459.737C613 457.819 613 454.879 613 449C613 443.121 613 440.181 614.708 438.263C614.882 438.067 615.067 437.882 615.263 437.708C617.181 436 620.121 436 626 436H702C706.918 436 709.378 436 711.121 434.779C711.766 434.328 712.327 433.767 712.779 433.122C714 431.378 714 428.919 714 424C714 419.081 714 416.622 712.779 414.878C712.327 414.233 711.766 413.672 711.121 413.221C709.378 412 706.918 412 702 412H675.5C670.103 412 667.404 412 665.563 410.545C665.152 410.22 664.78 409.848 664.455 409.437C663 407.596 663 404.897 663 399.5C663 394.103 663 391.404 661.545 389.563C661.22 389.152 660.848 388.78 660.437 388.455C658.596 387 655.897 387 650.5 387C645.103 387 642.404 387 640.563 385.545C640.152 385.22 639.78 384.848 639.455 384.437C638 382.596 638 379.897 638 374.5V361V335V309V283V272C638 267.081 638 264.622 636.779 262.878C636.328 262.233 635.767 261.672 635.122 261.221C633.378 260 630.919 260 626 260C621.081 260 618.622 260 616.878 261.221C616.233 261.672 615.672 262.233 615.221 262.878C614 264.622 614 267.081 614 272V286V299C614 304.879 614 307.819 612.292 309.737C612.118 309.933 611.933 310.118 611.737 310.292C609.819 312 606.879 312 601 312C595.121 312 592.181 312 590.263 310.292C590.067 310.118 589.882 309.933 589.708 309.737C588 307.819 588 304.879 588 299V298.5C588 293.103 588 290.404 586.545 288.563C586.22 288.152 585.848 287.78 585.437 287.455C583.596 286 580.897 286 575.5 286C570.103 286 567.404 286 565.563 287.455C565.152 287.78 564.78 288.152 564.455 288.563C563 290.404 563 293.103 563 298.5V299C563 304.879 563 307.819 561.292 309.737C561.118 309.933 560.933 310.118 560.737 310.292C558.819 312 555.879 312 550 312C544.121 312 541.181 312 539.263 310.292C539.067 310.118 538.882 309.933 538.708 309.737C537 307.819 537 304.879 537 299V298C537 293.081 537 290.622 535.779 288.878C535.328 288.233 534.767 287.672 534.122 287.221C532.378 286 529.919 286 525 286C520.081 286 517.622 286 515.878 287.221C515.233 287.672 514.672 288.233 514.221 288.878C513 290.622 513 293.081 513 298V312V323.5C513 328.897 513 331.596 514.455 333.437C514.78 333.848 515.152 334.22 515.563 334.545C517.404 336 520.103 336 525.5 336C530.897 336 533.596 336 535.437 337.455C535.848 337.78 536.22 338.152 536.545 338.563C538 340.404 538 343.103 538 348.5V362V375C538 380.879 538 383.819 536.292 385.737C536.118 385.933 535.933 386.118 535.737 386.292C533.819 388 530.879 388 525 388C519.121 388 516.181 388 514.263 386.292C514.067 386.118 513.882 385.933 513.708 385.737C512 383.819 512 380.879 512 375V362V350.5C512 345.103 512 342.404 510.545 340.563C510.22 340.152 509.848 339.78 509.437 339.455C507.596 338 504.897 338 499.5 338C494.103 338 491.404 338 489.563 336.545C489.152 336.22 488.78 335.848 488.455 335.437C487 333.596 487 330.897 487 325.5V312V286V273.5C487 267.136 487 263.954 488.977 261.977C490.954 260 494.136 260 500.5 260H548.5C554.864 260 558.046 260 560.023 258.023C562 256.046 562 252.864 562 246.5V234V220.5C562 215.103 562 212.404 563.455 210.563C563.78 210.152 564.152 209.78 564.563 209.455C566.404 208 569.103 208 574.5 208H575C579.919 208 582.378 208 584.122 206.779C584.767 206.328 585.328 205.767 585.779 205.122C587 203.378 587 200.919 587 196C587 191.081 587 188.622 588.221 186.878C588.672 186.233 589.233 185.672 589.878 185.221C591.622 184 594.081 184 599 184H601C605.919 184 608.378 184 610.122 185.221C610.767 185.672 611.328 186.233 611.779 186.878C613 188.622 613 191.081 613 196C613 200.919 613 203.378 614.221 205.122C614.672 205.767 615.233 206.328 615.878 206.779C617.622 208 620.081 208 625 208H635C636.657 208 638 206.657 638 205V179V171.5C638 165.136 638 161.954 636.023 159.977C634.046 158 630.864 158 624.5 158H600.5C595.103 158 592.404 158 590.563 159.455C590.152 159.78 589.78 160.152 589.455 160.563C588 162.404 588 165.103 588 170.5C588 175.897 588 178.596 586.545 180.437C586.22 180.848 585.848 181.22 585.437 181.545C583.596 183 580.897 183 575.5 183H549.5C544.103 183 541.404 183 539.563 181.545C539.152 181.22 538.78 180.848 538.455 180.437C537 178.596 537 175.897 537 170.5C537 165.103 537 162.404 535.545 160.563C535.22 160.152 534.848 159.78 534.437 159.455C532.596 158 529.897 158 524.5 158H524C518.121 158 515.181 158 513.263 156.292C513.067 156.118 512.882 155.933 512.708 155.737C511 153.819 511 150.879 511 145ZM511 196C511 190.121 511 187.181 509.292 185.263C509.118 185.067 508.933 184.882 508.737 184.708C506.819 183 503.879 183 498 183C492.121 183 489.181 183 487.263 184.708C487.067 184.882 486.882 185.067 486.708 185.263C485 187.181 485 190.121 485 196C485 201.879 485 204.819 486.708 206.737C486.882 206.933 487.067 207.118 487.263 207.292C489.181 209 492.121 209 498 209C503.879 209 506.819 209 508.737 207.292C508.933 207.118 509.118 206.933 509.292 206.737C511 204.819 511 201.879 511 196ZM727 411C722.081 411 719.622 411 717.878 409.779C717.233 409.328 716.672 408.767 716.221 408.121C715 406.378 715 403.919 715 399V398C715 393.081 715 390.622 716.221 388.879C716.672 388.233 717.233 387.672 717.878 387.221C719.622 386 722.081 386 727 386C731.918 386 734.378 386 736.121 387.221C736.766 387.672 737.327 388.233 737.779 388.879C739 390.622 739 393.081 739 398V399C739 403.919 739 406.378 737.779 408.121C737.327 408.767 736.766 409.328 736.121 409.779C734.378 411 731.918 411 727 411ZM562 374.5C562 369.103 562 366.404 563.455 364.563C563.78 364.152 564.152 363.78 564.563 363.455C566.404 362 569.103 362 574.5 362C579.897 362 582.596 362 584.437 360.545C584.848 360.22 585.22 359.848 585.545 359.437C587 357.596 587 354.897 587 349.5V349C587 343.121 587 340.181 588.708 338.263C588.882 338.067 589.067 337.882 589.263 337.708C591.181 336 594.121 336 600 336C605.879 336 608.819 336 610.737 337.708C610.933 337.882 611.118 338.067 611.292 338.263C613 340.181 613 343.121 613 349V349.5C613 354.897 613 357.596 611.545 359.437C611.22 359.848 610.848 360.22 610.437 360.545C608.596 362 605.897 362 600.5 362C595.103 362 592.404 362 590.563 363.455C590.152 363.78 589.78 364.152 589.455 364.563C588 366.404 588 369.103 588 374.5V375C588 380.879 588 383.819 586.292 385.737C586.118 385.933 585.933 386.118 585.737 386.292C583.819 388 580.879 388 575 388C569.121 388 566.181 388 564.263 386.292C564.067 386.118 563.882 385.933 563.708 385.737C562 383.819 562 380.879 562 375V374.5ZM372.5 285C367.103 285 364.404 285 362.563 286.455C362.152 286.78 361.78 287.152 361.455 287.563C360 289.404 360 292.103 360 297.5C360 302.897 360 305.596 361.455 307.437C361.78 307.848 362.152 308.22 362.563 308.545C364.404 310 367.103 310 372.5 310C377.897 310 380.596 310 382.437 308.545C382.848 308.22 383.22 307.848 383.545 307.437C385 305.596 385 302.897 385 297.5C385 292.103 385 289.404 383.545 287.563C383.22 287.152 382.848 286.78 382.437 286.455C380.596 285 377.897 285 372.5 285ZM435 297C435 292.081 435 289.622 433.779 287.878C433.328 287.233 432.767 286.672 432.122 286.221C430.378 285 427.919 285 423 285C418.081 285 415.622 285 413.878 286.221C413.233 286.672 412.672 287.233 412.221 287.878C411 289.622 411 292.081 411 297C411 301.919 411 304.378 412.221 306.122C412.672 306.767 413.233 307.328 413.878 307.779C415.622 309 418.081 309 423 309C427.919 309 430.378 309 432.122 307.779C432.767 307.328 433.328 306.767 433.779 306.122C435 304.378 435 301.919 435 297ZM410 323C410 327.919 410 330.378 408.779 332.122C408.328 332.767 407.767 333.328 407.122 333.779C405.378 335 402.919 335 398 335H397C392.081 335 389.622 335 387.878 333.779C387.233 333.328 386.672 332.767 386.221 332.122C385 330.378 385 327.919 385 323C385 318.081 385 315.622 386.221 313.878C386.672 313.233 387.233 312.672 387.878 312.221C389.622 311 392.081 311 397 311H398C402.919 311 405.378 311 407.122 312.221C407.767 312.672 408.328 313.233 408.779 313.878C410 315.622 410 318.081 410 323ZM246.5 386C240.136 386 236.954 386 234.977 387.977C233 389.954 233 393.136 233 399.5V412V423.5C233 428.897 233 431.596 234.455 433.437C234.78 433.848 235.152 434.22 235.563 434.545C237.404 436 240.103 436 245.5 436C250.897 436 253.596 436 255.437 434.545C255.848 434.22 256.22 433.848 256.545 433.437C258 431.596 258 428.897 258 423.5C258 418.103 258 415.404 259.455 413.563C259.78 413.152 260.152 412.78 260.563 412.455C262.404 411 265.103 411 270.5 411C275.897 411 278.596 411 280.437 409.545C280.848 409.22 281.22 408.848 281.545 408.437C283 406.596 283 403.897 283 398.5C283 393.103 283 390.404 281.545 388.563C281.22 388.152 280.848 387.78 280.437 387.455C278.596 386 275.897 386 270.5 386H246.5ZM296 362C291.081 362 288.622 362 286.878 363.221C286.233 363.672 285.672 364.233 285.221 364.878C284 366.622 284 369.081 284 374C284 378.919 284 381.378 285.221 383.122C285.672 383.767 286.233 384.328 286.878 384.779C288.622 386 291.081 386 296 386H297C301.919 386 304.378 386 306.122 384.779C306.767 384.328 307.328 383.767 307.779 383.122C309 381.378 309 378.919 309 374C309 369.081 309 366.622 307.779 364.878C307.328 364.233 306.767 363.672 306.122 363.221C304.378 362 301.919 362 297 362H296ZM309 576.5C309 581.897 309 584.596 307.545 586.437C307.22 586.848 306.848 587.22 306.437 587.545C304.596 589 301.897 589 296.5 589C291.103 589 288.404 589 286.563 587.545C286.152 587.22 285.78 586.848 285.455 586.437C284 584.596 284 581.897 284 576.5C284 571.103 284 568.404 285.455 566.563C285.78 566.152 286.152 565.78 286.563 565.455C288.404 564 291.103 564 296.5 564C301.897 564 304.596 564 306.437 565.455C306.848 565.78 307.22 566.152 307.545 566.563C309 568.404 309 571.103 309 576.5ZM310 551.5C310 556.897 310 559.596 311.455 561.437C311.78 561.848 312.152 562.22 312.563 562.545C314.404 564 317.103 564 322.5 564C327.897 564 330.596 564 332.437 565.455C332.848 565.78 333.22 566.152 333.545 566.563C335 568.404 335 571.103 335 576.5V577C335 582.879 335 585.819 333.292 587.737C333.118 587.933 332.933 588.118 332.737 588.292C330.819 590 327.879 590 322 590H321C316.081 590 313.622 590 311.878 591.221C311.233 591.672 310.672 592.233 310.221 592.878C309 594.622 309 597.081 309 602C309 606.919 309 609.378 310.221 611.122C310.672 611.767 311.233 612.328 311.878 612.779C313.622 614 316.081 614 321 614H322.5C327.897 614 330.596 614 332.437 615.455C332.848 615.78 333.22 616.152 333.545 616.563C335 618.404 335 621.103 335 626.5V627C335 631.919 335 634.378 336.221 636.122C336.672 636.767 337.233 637.328 337.878 637.779C339.622 639 342.081 639 347 639C351.919 639 354.378 639 356.122 637.779C356.767 637.328 357.328 636.767 357.779 636.122C359 634.378 359 631.919 359 627V626.5C359 621.103 359 618.404 360.455 616.563C360.78 616.152 361.152 615.78 361.563 615.455C363.404 614 366.103 614 371.5 614H372C377.879 614 380.819 614 382.737 615.708C382.933 615.882 383.118 616.067 383.292 616.263C385 618.181 385 621.121 385 627V627.5C385 632.898 385 635.596 383.545 637.437C383.22 637.848 382.848 638.22 382.437 638.545C380.596 640 377.897 640 372.5 640C367.103 640 364.404 640 362.563 641.455C362.152 641.78 361.78 642.152 361.455 642.563C360 644.404 360 647.103 360 652.5C360 657.897 360 660.596 361.455 662.437C361.78 662.848 362.152 663.22 362.563 663.545C364.404 665 367.103 665 372.5 665H397C402.879 665 405.819 665 407.737 666.708C407.933 666.882 408.118 667.067 408.292 667.263C410 669.181 410 672.121 410 678V678.5C410 683.897 410 686.596 411.455 688.437C411.78 688.848 412.152 689.22 412.563 689.545C414.404 691 417.103 691 422.5 691C427.897 691 430.596 691 432.437 692.455C432.848 692.78 433.22 693.152 433.545 693.563C435 695.404 435 698.103 435 703.5V705C435 709.919 435 712.378 433.779 714.122C433.328 714.767 432.767 715.328 432.122 715.779C430.378 717 427.919 717 423 717H422.5C418.057 717 415.836 717 414.206 718.005C413.311 718.557 412.557 719.311 412.005 720.206C411 721.836 411 724.057 411 728.5C411 732.943 411 735.164 412.005 736.794C412.557 737.689 413.311 738.443 414.206 738.995C415.836 740 418.057 740 422.5 740H423.5C428.897 740 431.596 740 433.437 741.455C433.848 741.78 434.22 742.152 434.545 742.563C436 744.404 436 747.103 436 752.5V766V792V803.5C436 809.864 436 813.046 437.977 815.023C439.954 817 443.136 817 449.5 817H461V843V855.5C461 861.864 461 865.046 459.023 867.023C457.046 869 453.864 869 447.5 869H424.5C418.136 869 414.954 869 412.977 867.023C411 865.046 411 861.864 411 855.5V843V831.5C411 825.136 411 821.954 409.023 819.977C407.046 818 403.864 818 397.5 818H372C366.121 818 363.181 818 361.263 816.292C361.067 816.118 360.882 815.933 360.708 815.737C359 813.819 359 810.879 359 805V804.5C359 799.103 359 796.404 357.545 794.563C357.22 794.152 356.848 793.78 356.437 793.455C354.596 792 351.897 792 346.5 792C341.103 792 338.404 792 336.563 790.545C336.152 790.22 335.78 789.848 335.455 789.437C334 787.596 334 784.897 334 779.5V766V752.5C334 747.103 334 744.404 335.455 742.563C335.78 742.152 336.152 741.78 336.563 741.455C338.404 740 341.103 740 346.5 740H347.5C351.943 740 354.164 740 355.794 738.995C356.689 738.443 357.443 737.689 357.995 736.794C359 735.164 359 732.943 359 728.5C359 724.057 359 721.836 357.995 720.206C357.443 719.311 356.689 718.557 355.794 718.005C354.164 717 351.943 717 347.5 717H346.5C341.103 717 338.404 717 336.563 715.545C336.152 715.22 335.78 714.848 335.455 714.437C334 712.596 334 709.897 334 704.5V691V665V652.5C334 647.103 334 644.404 332.545 642.563C332.22 642.152 331.848 641.78 331.437 641.455C329.596 640 326.897 640 321.5 640C316.103 640 313.404 640 311.563 638.545C311.152 638.22 310.78 637.848 310.455 637.437C309 635.596 309 632.898 309 627.5C309 622.103 309 619.404 307.545 617.563C307.22 617.152 306.848 616.78 306.437 616.455C304.596 615 301.897 615 296.5 615H271.5C265.136 615 261.954 615 259.977 613.023C258 611.046 258 607.864 258 601.5V589V576C258 570.121 258 567.181 259.708 565.263C259.882 565.067 260.067 564.882 260.263 564.708C262.181 563 265.121 563 271 563H271.5C276.897 563 279.596 563 281.437 561.545C281.848 561.22 282.22 560.848 282.545 560.437C284 558.596 284 555.897 284 550.5C284 545.103 284 542.404 285.455 540.563C285.78 540.152 286.152 539.78 286.563 539.455C288.404 538 291.103 538 296.5 538H297C301.919 538 304.378 538 306.122 536.779C306.767 536.328 307.328 535.767 307.779 535.122C309 533.378 309 530.919 309 526C309 521.081 309 518.622 307.779 516.878C307.328 516.233 306.767 515.672 306.122 515.221C304.378 514 301.919 514 297 514H296C290.121 514 287.181 514 285.263 512.292C285.067 512.118 284.882 511.933 284.708 511.737C283 509.819 283 506.879 283 501C283 495.121 283 492.181 284.708 490.263C284.882 490.067 285.067 489.882 285.263 489.708C287.181 488 290.121 488 296 488H297C301.919 488 304.378 488 306.122 489.221C306.767 489.672 307.328 490.233 307.779 490.878C309 492.622 309 495.081 309 500C309 504.919 309 507.378 310.221 509.122C310.672 509.767 311.233 510.328 311.878 510.779C313.622 512 316.081 512 321 512H322C327.879 512 330.819 512 332.737 513.708C332.933 513.882 333.118 514.067 333.292 514.263C335 516.181 335 519.121 335 525V525.5C335 530.897 335 533.596 333.545 535.437C333.22 535.848 332.848 536.22 332.437 536.545C330.596 538 327.897 538 322.5 538C317.103 538 314.404 538 312.563 539.455C312.152 539.78 311.78 540.152 311.455 540.563C310 542.404 310 545.103 310 550.5V551.5ZM461 817V804.5C461 798.136 461 794.954 462.977 792.977C464.954 791 468.136 791 474.5 791H523.5C529.864 791 533.046 791 535.023 792.977C537 794.954 537 798.136 537 804.5V817L537 843V856C537 861.879 537 864.819 535.292 866.737C535.118 866.933 534.933 867.118 534.737 867.292C532.819 869 529.879 869 524 869C518.121 869 515.181 869 513.263 867.292C513.067 867.118 512.882 866.933 512.708 866.737C511 864.819 511 861.879 511 856V855.5C511 850.103 511 847.404 509.545 845.563C509.22 845.152 508.848 844.78 508.437 844.455C506.596 843 503.897 843 498.5 843C493.103 843 490.404 843 488.563 841.545C488.152 841.22 487.78 840.848 487.455 840.437C486 838.596 486 835.897 486 830.5V830C486 824.121 486 821.181 484.292 819.263C484.118 819.067 483.933 818.882 483.737 818.708C481.819 817 478.879 817 473 817H461ZM410 766V778.5C410 784.864 410 788.046 408.023 790.023C406.046 792 402.864 792 396.5 792H373.5C367.136 792 363.954 792 361.977 790.023C360 788.046 360 784.864 360 778.5V766V756.5C360 750.136 360 746.954 361.977 744.977C363.954 743 367.136 743 373.5 743H396.5C402.864 743 406.046 743 408.023 744.977C410 746.954 410 750.136 410 756.5V766ZM359 551C359 545.121 359 542.181 360.708 540.263C360.882 540.067 361.067 539.882 361.263 539.708C363.181 538 366.121 538 372 538C377.879 538 380.819 538 382.737 539.708C382.933 539.882 383.118 540.067 383.292 540.263C385 542.181 385 545.121 385 551V564V577C385 582.879 385 585.819 383.292 587.737C383.118 587.933 382.933 588.118 382.737 588.292C380.819 590 377.879 590 372 590C366.121 590 363.181 590 361.263 588.292C361.067 588.118 360.882 587.933 360.708 587.737C359 585.819 359 582.879 359 577V564V551ZM600 210C604.919 210 607.378 210 609.122 211.221C609.767 211.672 610.328 212.233 610.779 212.878C612 214.622 612 217.081 612 222C612 226.919 612 229.378 610.779 231.122C610.328 231.767 609.767 232.328 609.122 232.779C607.378 234 604.919 234 600 234C595.081 234 592.622 234 590.878 232.779C590.233 232.328 589.672 231.767 589.221 231.122C588 229.378 588 226.919 588 222C588 217.081 588 214.622 589.221 212.878C589.672 212.233 590.233 211.672 590.878 211.221C592.622 210 595.081 210 600 210ZM816 374C816 368.121 816 365.181 817.707 363.263C817.881 363.067 818.067 362.882 818.262 362.708C820.181 361 823.12 361 829 361C834.879 361 837.818 361 839.737 362.708C839.933 362.882 840.118 363.067 840.292 363.263C842 365.181 842 368.121 842 374C842 379.879 842 382.819 840.292 384.737C840.118 384.933 839.933 385.118 839.737 385.292C837.818 387 834.879 387 829 387C823.12 387 820.181 387 818.262 385.292C818.067 385.118 817.881 384.933 817.707 384.737C816 382.819 816 379.879 816 374ZM664 691V678.5C664 672.136 664 668.954 665.977 666.977C667.954 665 671.136 665 677.5 665H725.5C731.864 665 735.046 665 737.023 666.977C739 668.954 739 672.136 739 678.5V691V717V729.5C739 735.864 739 739.046 737.023 741.023C735.046 743 731.864 743 725.5 743H677.5C671.136 743 667.954 743 665.977 741.023C664 739.046 664 735.864 664 729.5V717V691ZM791 551.5C791 556.897 791 559.596 792.455 561.437C792.78 561.848 793.152 562.22 793.563 562.545C795.404 564 798.103 564 803.5 564C808.897 564 811.596 564 813.437 562.545C813.848 562.22 814.22 561.848 814.545 561.437C816 559.596 816 556.897 816 551.5C816 546.103 816 543.404 814.545 541.563C814.22 541.152 813.848 540.78 813.437 540.455C811.596 539 808.897 539 803.5 539C798.103 539 795.404 539 793.563 540.455C793.152 540.78 792.78 541.152 792.455 541.563C791 543.404 791 546.103 791 551.5ZM752.5 488C747.102 488 744.403 488 742.563 489.455C742.152 489.78 741.78 490.152 741.455 490.563C740 492.404 740 495.103 740 500.5C740 505.897 740 508.596 741.455 510.437C741.78 510.848 742.152 511.22 742.563 511.545C744.403 513 747.102 513 752.5 513C757.897 513 760.596 513 762.436 511.545C762.847 511.22 763.219 510.848 763.544 510.437C765 508.596 765 505.897 765 500.5C765 495.103 765 492.404 763.544 490.563C763.219 490.152 762.847 489.78 762.436 489.455C760.596 488 757.897 488 752.5 488ZM791 501C791 505.919 791 508.378 792.22 510.122C792.672 510.767 793.233 511.328 793.878 511.779C795.621 513 798.081 513 802.999 513C807.918 513 810.378 513 812.121 511.779C812.766 511.328 813.327 510.767 813.779 510.122C814.999 508.378 814.999 505.919 814.999 501V500C814.999 495.081 814.999 492.622 813.779 490.878C813.327 490.233 812.766 489.672 812.121 489.221C810.378 488 807.918 488 802.999 488C798.081 488 795.621 488 793.878 489.221C793.233 489.672 792.672 490.233 792.22 490.878C790.999 492.622 790.999 495.081 790.999 500L791 501ZM841 601C841 595.121 841 592.181 842.708 590.263C842.882 590.067 843.067 589.882 843.263 589.708C845.181 588 848.121 588 854 588C859.879 588 862.819 588 864.737 589.708C864.933 589.882 865.118 590.067 865.292 590.263C867 592.181 867 595.121 867 601C867 606.879 867 609.819 865.292 611.737C865.118 611.933 864.933 612.118 864.737 612.292C862.819 614 859.879 614 854 614C848.121 614 845.181 614 843.263 612.292C843.067 612.118 842.882 611.933 842.708 611.737C841 609.819 841 606.879 841 601ZM867 652C867 646.121 867 643.181 865.292 641.263C865.118 641.067 864.933 640.882 864.737 640.708C862.819 639 859.879 639 854 639C848.121 639 845.181 639 843.263 640.708C843.067 640.882 842.882 641.067 842.708 641.263C841 643.181 841 646.121 841 652C841 657.879 841 660.819 842.708 662.737C842.882 662.933 843.067 663.118 843.263 663.292C845.181 665 848.121 665 854 665C859.879 665 862.819 665 864.737 663.292C864.933 663.118 865.118 662.933 865.292 662.737C867 660.819 867 657.879 867 652ZM740 782C740 787.879 740 790.819 741.708 792.737C741.882 792.933 742.067 793.118 742.263 793.292C744.181 795 747.121 795 753 795H765V807.5C765 813.864 765 817.046 766.977 819.023C768.954 821 772.136 821 778.5 821H802C807.879 821 810.819 821 812.737 819.292C812.933 819.118 813.118 818.933 813.292 818.737C815 816.819 815 813.879 815 808C815 802.121 815 799.181 813.292 797.263C813.118 797.067 812.933 796.882 812.737 796.708C810.819 795 807.879 795 802 795H765V781.5C765 776.103 765 773.404 763.545 771.563C763.22 771.152 762.848 770.78 762.437 770.455C760.596 769 757.897 769 752.5 769C747.103 769 744.404 769 742.563 770.455C742.152 770.78 741.78 771.152 741.455 771.563C740 773.404 740 776.103 740 781.5V782ZM740 833.5C740 828.103 740 825.404 738.545 823.563C738.22 823.152 737.848 822.78 737.437 822.455C735.596 821 732.897 821 727.5 821C722.103 821 719.404 821 717.563 822.455C717.152 822.78 716.78 823.152 716.455 823.563C715 825.404 715 828.103 715 833.5V834.5C715 839.898 715 842.596 716.455 844.437C716.78 844.848 717.152 845.22 717.563 845.545C719.404 847 722.103 847 727.5 847C732.897 847 735.596 847 737.437 845.545C737.848 845.22 738.22 844.848 738.545 844.437C740 842.596 740 839.898 740 834.5V833.5ZM766 705.5C766 709.943 766 712.164 767.005 713.794C767.557 714.689 768.311 715.443 769.206 715.995C770.836 717 773.057 717 777.5 717C781.943 717 784.164 717 785.794 715.995C786.689 715.443 787.443 714.689 787.995 713.794C789 712.164 789 709.943 789 705.5V702.5C789 698.057 789 695.836 787.995 694.206C787.443 693.311 786.689 692.557 785.794 692.005C784.164 691 781.943 691 777.5 691C773.057 691 770.836 691 769.206 692.005C768.311 692.557 767.557 693.311 767.005 694.206C766 695.836 766 698.057 766 702.5V705.5ZM689 703C689 697.121 689 694.181 690.708 692.263C690.882 692.067 691.067 691.882 691.263 691.708C693.181 690 696.121 690 702 690C707.879 690 710.819 690 712.737 691.708C712.933 691.882 713.118 692.067 713.292 692.263C715 694.181 715 697.121 715 703C715 708.879 715 711.819 713.292 713.737C713.118 713.933 712.933 714.118 712.737 714.292C710.819 716 707.879 716 702 716C696.121 716 693.181 716 691.263 714.292C691.067 714.118 690.882 713.933 690.708 713.737C689 711.819 689 708.879 689 703Z" fill="black"/>
<path d="M698 176.75C698 159.767 711.767 146 728.75 146H820.25C837.233 146 851 159.767 851 176.75V268.25C851 285.233 837.233 299 820.25 299H728.75C711.767 299 698 285.233 698 268.25V176.75Z" stroke="black" stroke-width="30"/>
<rect x="735" y="183" width="79" height="79" rx="7" fill="black"/>
<path d="M146 176.75C146 159.767 159.767 146 176.75 146H268.25C285.233 146 299 159.767 299 176.75V268.25C299 285.233 285.233 299 268.25 299H176.75C159.767 299 146 285.233 146 268.25V176.75Z" stroke="black" stroke-width="30"/>
<rect x="183" y="183" width="79" height="79" rx="7" fill="black"/>
<path d="M146 728.75C146 711.767 159.767 698 176.75 698H268.25C285.233 698 299 711.767 299 728.75V820.25C299 837.233 285.233 851 268.25 851H176.75C159.767 851 146 837.233 146 820.25V728.75Z" stroke="black" stroke-width="30"/>
<rect x="183" y="735" width="79" height="79" rx="7" fill="black"/>
<path d="M405.5 452C405.5 426.043 426.543 405 452.5 405H546.5C572.457 405 593.5 426.043 593.5 452V546C593.5 571.957 572.457 593 546.5 593H452.5C426.543 593 405.5 571.957 405.5 546V452Z" fill="#FF8152"/>
<path d="M456.077 454.936C456.077 447.519 464.708 443.448 470.431 448.166L499.654 472.255V516.029H464.85C460.005 516.029 456.077 512.101 456.077 507.255V454.936Z" fill="white"/>
<path d="M543.231 454.936C543.231 447.519 534.6 443.448 528.878 448.166L499.654 472.255V516.029H534.458C539.303 516.029 543.231 512.101 543.231 507.255V454.936Z" fill="white"/>
<path d="M494.077 474.881C497.317 472.216 501.991 472.217 505.229 474.884L546.919 509.224C551.18 512.734 551.179 519.261 546.916 522.77L505.226 557.081C501.989 559.745 497.319 559.747 494.08 557.084L452.344 522.773C448.076 519.264 448.074 512.731 452.341 509.221L494.077 474.881Z" fill="white"/>
<path d="M452.255 522.705C450.319 521.109 449.265 518.89 449.09 516.615C451.416 516.229 453.805 516.029 456.241 516.029C479.671 516.029 498.765 534.59 499.621 557.81C500.463 534.593 519.55 516.029 542.973 516.029C545.377 516.029 547.735 516.224 550.032 516.6C549.874 518.904 548.815 521.156 546.854 522.77L505.165 557.081C503.546 558.413 501.57 559.079 499.594 559.08C499.594 559.079 499.594 559.078 499.594 559.077C497.584 559.097 495.568 558.429 493.924 557.072L452.255 522.705Z" fill="white"/>
</svg>
