<svg width="500" height="501" viewBox="0 0 500 501" fill="none" xmlns="http://www.w3.org/2000/svg">
<path d="M59.0427 35.532C59.0427 5.55248 93.9321 -10.9027 117.065 8.16651L250.314 118.006V310.139H94.5072C74.9207 310.139 59.0427 294.261 59.0427 274.674V35.532Z" fill="#FF764C"/>
<path d="M441.585 35.532C441.585 5.55248 406.695 -10.9027 383.562 8.16651L250.314 118.006V310.139H406.12C425.707 310.139 441.585 294.261 441.585 274.674V35.532Z" fill="#FF764C"/>
<path d="M227.768 127.938C240.865 117.163 259.758 117.168 272.849 127.951L460.623 282.618C477.85 296.808 477.844 323.192 460.612 337.375L272.838 491.917C259.751 502.687 240.872 502.693 227.779 491.929L39.796 337.387C22.5435 323.204 22.5382 296.796 39.7851 282.606L227.768 127.938Z" fill="#FF8152"/>
<path d="M39.4162 337.093C31.7427 330.764 27.4932 322.014 26.6667 313.004C37.4156 311.122 48.4745 310.14 59.7626 310.14C162.596 310.14 246.403 391.603 250.169 493.516C253.869 391.614 337.645 310.14 440.451 310.14C451.599 310.14 462.524 311.098 473.147 312.937C472.394 322.074 468.125 330.971 460.34 337.378L272.566 491.92C266.023 497.304 258.033 499.998 250.042 500.001C250.042 499.997 250.042 499.993 250.042 499.988C241.908 500.076 233.749 497.374 227.094 491.885L39.4162 337.093Z" fill="#FF8E63"/>
</svg>
