<svg xmlns="http://www.w3.org/2000/svg" width="600" height="600" fill="none" viewBox="0 0 600 600"><path fill="#000" fill-opacity=".2" d="M148.752 0.996678H149.75V599.003H148.752V0.996678Z"/><path fill="#000" fill-opacity=".2" d="M0.998336 1.99336H1.99667V600H0.998336V1.99336Z"/><path fill="#000" fill-opacity=".2" d="M450.25 0.996678H449.251V599.003H450.25V0.996678Z"/><path fill="#000" fill-opacity=".2" d="M600 0H599.002V600H600V0Z"/><path fill="#000" fill-opacity=".2" d="M1.99667 449.502V450.498L599.002 450.498V449.502L1.99667 449.502Z"/><path fill="#000" fill-opacity=".2" d="M1.99667 599.003V600H599.002V599.003H1.99667Z"/><path fill="#000" fill-opacity=".2" d="M1.99667 150.498V149.502L599.002 149.502V150.498L1.99667 150.498Z"/><path fill="#000" fill-opacity=".2" d="M4.36376e-08 0.996678L0 2.61389e-05L599.002 0V0.996652L4.36376e-08 0.996678Z"/><path fill="#000" fill-opacity=".2" d="M519.387 83.3221C519.387 84.1832 519.746 84.9008 520.465 85.4749C521.207 86.049 522.07 86.336 523.052 86.336C524.442 86.336 525.676 85.8217 526.754 84.7932C527.856 83.7646 528.407 82.5566 528.407 81.1692C527.377 80.356 525.94 79.9493 524.095 79.9493C522.753 79.9493 521.627 80.2722 520.716 80.9181C519.83 81.5639 519.387 82.3653 519.387 83.3221ZM523.663 70.5486C526.107 70.5486 528.036 71.2065 529.45 72.5221C530.863 73.8138 531.57 75.5958 531.57 77.8682V88.7041H528.407V86.2643H528.264C526.898 88.2736 525.077 89.2782 522.801 89.2782C520.86 89.2782 519.231 88.7041 517.913 87.556C516.619 86.4078 515.972 84.9726 515.972 83.2503C515.972 81.4324 516.655 79.9852 518.021 78.9088C519.41 77.8324 521.255 77.2942 523.556 77.2942C525.52 77.2942 527.138 77.653 528.407 78.3706V77.6171C528.407 76.4689 527.952 75.5001 527.042 74.7108C526.131 73.8975 525.065 73.4908 523.843 73.4908C521.998 73.4908 520.537 74.2682 519.458 75.8231L516.547 73.9932C518.153 71.6968 520.525 70.5486 523.663 70.5486Z"/><path fill="#000" fill-opacity=".2" d="M70.1353 83.3221C70.1353 84.1832 70.4947 84.9008 71.2135 85.4749C71.9562 86.049 72.8188 86.336 73.8012 86.336C75.1908 86.336 76.4248 85.8217 77.503 84.7932C78.6051 83.7646 79.1562 82.5566 79.1562 81.1692C78.126 80.356 76.6883 79.9493 74.8434 79.9493C73.5017 79.9493 72.3755 80.2722 71.465 80.9181C70.5785 81.5639 70.1353 82.3653 70.1353 83.3221ZM74.4121 70.5486C76.8561 70.5486 78.7849 71.2065 80.1985 72.5221C81.6121 73.8138 82.319 75.5958 82.319 77.8682V88.7041H79.1562V86.2643H79.0125C77.6467 88.2736 75.8258 89.2782 73.5496 89.2782C71.6088 89.2782 69.9795 88.7041 68.6617 87.556C67.3679 86.4078 66.721 84.9726 66.721 83.2503C66.721 81.4324 67.4038 79.9852 68.7695 78.9088C70.1592 77.8324 72.0042 77.2942 74.3043 77.2942C76.269 77.2942 77.8864 77.653 79.1562 78.3706V77.6171C79.1562 76.4689 78.701 75.5001 77.7905 74.7108C76.88 73.8975 75.8138 73.4908 74.5918 73.4908C72.7469 73.4908 71.2853 74.2682 70.2071 75.8231L67.296 73.9932C68.9013 71.6968 71.2734 70.5486 74.4121 70.5486Z"/><path fill="#000" fill-opacity=".2" d="M70.1353 531.827C70.1353 532.688 70.4947 533.406 71.2135 533.98C71.9562 534.554 72.8188 534.841 73.8012 534.841C75.1908 534.841 76.4248 534.327 77.503 533.298C78.6051 532.27 79.1562 531.062 79.1562 529.674C78.126 528.861 76.6883 528.454 74.8434 528.454C73.5017 528.454 72.3755 528.777 71.465 529.423C70.5785 530.069 70.1353 530.87 70.1353 531.827ZM74.4121 519.054C76.8561 519.054 78.7849 519.711 80.1985 521.027C81.6121 522.319 82.319 524.101 82.319 526.373V537.209H79.1562V534.769H79.0125C77.6467 536.779 75.8258 537.783 73.5496 537.783C71.6088 537.783 69.9795 537.209 68.6617 536.061C67.3679 534.913 66.721 533.478 66.721 531.755C66.721 529.937 67.4038 528.49 68.7695 527.414C70.1592 526.337 72.0042 525.799 74.3043 525.799C76.269 525.799 77.8864 526.158 79.1562 526.876V526.122C79.1562 524.974 78.701 524.005 77.7905 523.216C76.88 522.403 75.8138 521.996 74.5918 521.996C72.7469 521.996 71.2853 522.773 70.2071 524.328L67.296 522.498C68.9013 520.202 71.2734 519.054 74.4121 519.054Z"/><path fill="#000" fill-opacity=".2" d="M519.387 531.827C519.387 532.688 519.746 533.406 520.465 533.98C521.207 534.554 522.07 534.841 523.052 534.841C524.442 534.841 525.676 534.327 526.754 533.298C527.856 532.27 528.407 531.062 528.407 529.674C527.377 528.861 525.94 528.454 524.095 528.454C522.753 528.454 521.627 528.777 520.716 529.423C519.83 530.069 519.387 530.87 519.387 531.827ZM523.663 519.054C526.107 519.054 528.036 519.711 529.45 521.027C530.863 522.319 531.57 524.101 531.57 526.373V537.209H528.407V534.769H528.264C526.898 536.779 525.077 537.783 522.801 537.783C520.86 537.783 519.231 537.209 517.913 536.061C516.619 534.913 515.972 533.478 515.972 531.755C515.972 529.937 516.655 528.49 518.021 527.414C519.41 526.337 521.255 525.799 523.556 525.799C525.52 525.799 527.138 526.158 528.407 526.876V526.122C528.407 524.974 527.952 524.005 527.042 523.216C526.131 522.403 525.065 521.996 523.843 521.996C521.998 521.996 520.537 522.773 519.458 524.328L516.547 522.498C518.153 520.202 520.525 519.054 523.663 519.054Z"/><path fill="#000" fill-opacity=".2" d="M298.112 534.052V537.209H282.442V533.908L288.803 527.485C290.936 525.309 292.409 523.682 293.224 522.606C294.039 521.505 294.446 520.357 294.446 519.161C294.446 518.085 294.027 517.164 293.188 516.398C292.349 515.633 291.271 515.25 289.953 515.25C288.827 515.25 287.857 515.585 287.042 516.255C286.228 516.925 285.7 517.738 285.461 518.695L282.442 517.475C282.921 515.968 283.844 514.7 285.209 513.672C286.575 512.619 288.18 512.093 290.025 512.093C292.253 512.093 294.11 512.775 295.596 514.138C297.081 515.501 297.824 517.176 297.824 519.161C297.824 521.529 296.518 524.089 293.907 526.84L286.719 534.052H298.112Z"/><path fill="#000" fill-opacity=".2" d="M304.097 531.827C304.097 532.688 304.456 533.406 305.175 533.98C305.918 534.554 306.78 534.841 307.763 534.841C309.152 534.841 310.386 534.327 311.465 533.298C312.567 532.27 313.118 531.062 313.118 529.674C312.088 528.861 310.65 528.454 308.805 528.454C307.463 528.454 306.337 528.777 305.427 529.423C304.54 530.069 304.097 530.87 304.097 531.827ZM308.374 519.054C310.818 519.054 312.746 519.711 314.16 521.027C315.574 522.319 316.281 524.101 316.281 526.373V537.209H313.118V534.769H312.974C311.608 536.779 309.787 537.783 307.511 537.783C305.57 537.783 303.941 537.209 302.623 536.061C301.329 534.913 300.683 533.478 300.683 531.755C300.683 529.937 301.365 528.49 302.731 527.414C304.121 526.337 305.966 525.799 308.266 525.799C310.231 525.799 311.848 526.158 313.118 526.876V526.122C313.118 524.974 312.663 524.005 311.752 523.216C310.842 522.403 309.775 521.996 308.553 521.996C306.709 521.996 305.247 522.773 304.169 524.328L301.258 522.498C302.863 520.202 305.235 519.054 308.374 519.054Z"/><path fill="#000" fill-opacity=".2" d="M298.112 85.5466V88.7041H282.442V85.4031L288.803 78.9805C290.936 76.8038 292.409 75.1772 293.224 74.1008C294.039 73.0005 294.446 71.8523 294.446 70.6563C294.446 69.5799 294.027 68.6589 293.188 67.8935C292.349 67.128 291.271 66.7453 289.953 66.7453C288.827 66.7453 287.857 67.0802 287.042 67.75C286.228 68.4197 285.7 69.233 285.461 70.1898L282.442 68.9699C282.921 67.4629 283.844 66.1952 285.209 65.1666C286.575 64.1141 288.18 63.5878 290.025 63.5878C292.253 63.5878 294.11 64.2696 295.596 65.633C297.081 66.9965 297.824 68.6709 297.824 70.6563C297.824 73.0244 296.518 75.5839 293.907 78.3347L286.719 85.5466H298.112Z"/><path fill="#000" fill-opacity=".2" d="M304.097 83.3221C304.097 84.1832 304.456 84.9008 305.175 85.4749C305.918 86.049 306.78 86.336 307.763 86.336C309.152 86.336 310.386 85.8217 311.465 84.7932C312.567 83.7646 313.118 82.5566 313.118 81.1692C312.088 80.356 310.65 79.9493 308.805 79.9493C307.463 79.9493 306.337 80.2722 305.427 80.9181C304.54 81.5639 304.097 82.3653 304.097 83.3221ZM308.374 70.5486C310.818 70.5486 312.746 71.2065 314.16 72.5221C315.574 73.8138 316.281 75.5958 316.281 77.8682V88.7041H313.118V86.2643H312.974C311.608 88.2736 309.787 89.2782 307.511 89.2782C305.57 89.2782 303.941 88.7041 302.623 87.556C301.329 86.4078 300.683 84.9726 300.683 83.2503C300.683 81.4324 301.365 79.9852 302.731 78.9088C304.121 77.8324 305.966 77.2942 308.266 77.2942C310.231 77.2942 311.848 77.653 313.118 78.3706V77.6171C313.118 76.4689 312.663 75.5001 311.752 74.7108C310.842 73.8975 309.775 73.4908 308.553 73.4908C306.709 73.4908 305.247 74.2682 304.169 75.8231L301.258 73.9932C302.863 71.6968 305.235 70.5486 308.374 70.5486Z"/><path fill="#000" fill-opacity=".2" d="M522.737 309.799V312.957H507.067V309.656L513.429 303.233C515.561 301.056 517.035 299.43 517.849 298.353C518.664 297.253 519.071 296.105 519.071 294.909C519.071 293.832 518.652 292.911 517.814 292.146C516.975 291.381 515.897 290.998 514.579 290.998C513.453 290.998 512.482 291.333 511.668 292.002C510.853 292.672 510.326 293.486 510.086 294.442L507.067 293.222C507.547 291.715 508.469 290.448 509.835 289.419C511.201 288.367 512.806 287.84 514.651 287.84C516.879 287.84 518.736 288.522 520.222 289.886C521.707 291.249 522.45 292.923 522.45 294.909C522.45 297.277 521.144 299.836 518.532 302.587L511.344 309.799H522.737Z"/><path fill="#000" fill-opacity=".2" d="M528.723 307.575C528.723 308.436 529.082 309.153 529.801 309.727C530.543 310.302 531.406 310.589 532.388 310.589C533.778 310.589 535.012 310.074 536.09 309.046C537.192 308.017 537.743 306.809 537.743 305.422C536.713 304.608 535.276 304.202 533.431 304.202C532.089 304.202 530.963 304.525 530.052 305.171C529.166 305.816 528.723 306.618 528.723 307.575ZM532.999 294.801C535.443 294.801 537.372 295.459 538.786 296.775C540.199 298.066 540.906 299.848 540.906 302.121V312.957H537.743V310.517H537.6C536.234 312.526 534.413 313.531 532.137 313.531C530.196 313.531 528.567 312.957 527.249 311.808C525.955 310.66 525.308 309.225 525.308 307.503C525.308 305.685 525.991 304.238 527.357 303.161C528.746 302.085 530.591 301.547 532.892 301.547C534.856 301.547 536.474 301.905 537.743 302.623V301.87C537.743 300.721 537.288 299.753 536.378 298.963C535.467 298.15 534.401 297.743 533.179 297.743C531.334 297.743 529.873 298.521 528.794 300.076L525.883 298.246C527.489 295.949 529.861 294.801 532.999 294.801Z"/><path fill="#000" fill-opacity=".2" d="M73.4861 309.799V312.957H57.8162V309.656L64.1776 303.233C66.3101 301.056 67.7836 299.43 68.5983 298.353C69.4129 297.253 69.8202 296.105 69.8202 294.909C69.8202 293.832 69.4009 292.911 68.5623 292.146C67.7237 291.381 66.6455 290.998 65.3277 290.998C64.2016 290.998 63.2312 291.333 62.4166 292.002C61.6019 292.672 61.0748 293.486 60.8352 294.442L57.8162 293.222C58.2954 291.715 59.2179 290.448 60.5836 289.419C61.9493 288.367 63.5547 287.84 65.3996 287.84C67.6279 287.84 69.4848 288.522 70.9703 289.886C72.4558 291.249 73.1986 292.923 73.1986 294.909C73.1986 297.277 71.8928 299.836 69.2811 302.587L62.0931 309.799H73.4861Z"/><path fill="#000" fill-opacity=".2" d="M79.4713 307.575C79.4713 308.436 79.8307 309.153 80.5495 309.727C81.2922 310.302 82.1548 310.589 83.1372 310.589C84.5268 310.589 85.7608 310.074 86.839 309.046C87.9411 308.017 88.4922 306.809 88.4922 305.422C87.462 304.608 86.0243 304.202 84.1794 304.202C82.8377 304.202 81.7115 304.525 80.801 305.171C79.9145 305.816 79.4713 306.618 79.4713 307.575ZM83.7481 294.801C86.1921 294.801 88.1209 295.459 89.5345 296.775C90.9481 298.066 91.655 299.848 91.655 302.121V312.957H88.4922V310.517H88.3485C86.9827 312.526 85.1618 313.531 82.8856 313.531C80.9448 313.531 79.3155 312.957 77.9977 311.808C76.7039 310.66 76.057 309.225 76.057 307.503C76.057 305.685 76.7398 304.238 78.1055 303.161C79.4952 302.085 81.3402 301.547 83.6403 301.547C85.605 301.547 87.2224 301.905 88.4922 302.623V301.87C88.4922 300.721 88.037 299.753 87.1265 298.963C86.216 298.15 85.1498 297.743 83.9278 297.743C82.0829 297.743 80.6213 298.521 79.5431 300.076L76.632 298.246C78.2373 295.949 80.6094 294.801 83.7481 294.801Z"/><path fill="#FF764C" d="M185.426 171.319C185.426 153.331 206.359 143.458 220.239 154.9L300.188 220.804V336.083H206.704C194.953 336.083 185.426 326.557 185.426 314.805V171.319Z"/><path fill="#FF764C" d="M414.951 171.319C414.951 153.331 394.017 143.458 380.137 154.9L300.188 220.804V336.083H393.672C405.424 336.083 414.951 326.557 414.951 314.805V171.319Z"/><path fill="#FF8152" d="M286.661 226.763C294.519 220.298 305.855 220.301 313.709 226.77L426.374 319.571C436.71 328.085 436.707 343.915 426.367 352.425L313.702 445.15C305.85 451.612 294.523 451.615 286.667 445.157L173.877 352.432C163.526 343.922 163.523 328.078 173.871 319.564L286.661 226.763Z"/><path fill="#FF8E63" d="M173.65 352.256C169.046 348.458 166.496 343.208 166 337.802C172.449 336.673 179.085 336.084 185.858 336.084C247.558 336.084 297.842 384.962 300.101 446.11C302.322 384.969 352.587 336.084 414.271 336.084C420.96 336.084 427.514 336.659 433.888 337.762C433.436 343.245 430.875 348.583 426.204 352.427L313.539 445.152C309.614 448.383 304.82 449.999 300.025 450.001C300.025 449.998 300.025 449.996 300.025 449.993C295.144 450.046 290.249 448.425 286.256 445.131L173.65 352.256Z"/></svg>