<svg width="250" height="250" viewBox="0 0 250 250" fill="none" xmlns="http://www.w3.org/2000/svg">
<path d="M67.256 66.403C67.256 56.5407 78.7334 51.1275 86.3435 57.4006L125.204 89.4345V147.644H78.9226C72.4793 147.644 67.256 142.421 67.256 135.977V66.403Z" fill="#FF8152"/>
<path d="M183.153 66.403C183.153 56.5407 171.675 51.1275 164.065 57.4006L125.204 89.4345V147.644H171.486C177.929 147.644 183.153 142.421 183.153 135.977V66.403Z" fill="#FF8152"/>
<path d="M117.788 92.9265C122.096 89.3817 128.311 89.3834 132.618 92.9305L188.056 138.595C193.723 143.263 193.721 151.942 188.052 156.608L132.614 202.235C128.309 205.778 122.098 205.78 117.791 202.239L62.2911 156.612C56.6155 151.946 56.6138 143.259 62.2875 138.591L117.788 92.9265Z" fill="#FF8152"/>
<path d="M62.1732 156.522C59.5995 154.399 58.1967 151.449 57.9644 148.423C61.0581 147.911 64.2349 147.644 67.4741 147.644C98.6304 147.644 124.022 172.327 125.161 203.205C126.28 172.33 151.662 147.644 182.809 147.644C186.006 147.644 189.141 147.904 192.196 148.404C191.986 151.467 190.578 154.462 187.97 156.608L132.532 202.235C130.38 204.006 127.752 204.892 125.124 204.893C125.124 204.892 125.124 204.891 125.124 204.889C122.451 204.916 119.771 204.027 117.584 202.223L62.1732 156.522Z" fill="#FF8152"/>
</svg>
