<svg width="250" height="275" viewBox="0 0 250 275" fill="none" xmlns="http://www.w3.org/2000/svg">
<path d="M0 68.75C0 30.7804 27.9822 0 62.5 0H187.5C222.018 0 250 30.7804 250 68.75V206.25C250 244.22 222.018 275 187.5 275H62.5C27.9822 275 0 244.22 0 206.25V68.75Z" fill="#FF8152"/>
<path d="M67.2564 73.0433C67.2564 62.1948 78.7339 56.2403 86.344 63.1407L125.205 98.378V162.408H78.9231C72.4798 162.408 67.2564 156.663 67.2564 149.575V73.0433Z" fill="white"/>
<path d="M183.153 73.0433C183.153 62.1948 171.676 56.2403 164.066 63.1407L125.205 98.378V162.408H171.486C177.93 162.408 183.153 156.663 183.153 149.575V73.0433Z" fill="white"/>
<path d="M117.788 102.219C122.096 98.3199 128.312 98.3217 132.618 102.224L188.057 152.454C193.724 157.589 193.722 167.136 188.053 172.269L132.614 222.458C128.309 226.356 122.099 226.358 117.792 222.463L62.2916 172.273C56.616 167.141 56.6143 157.585 62.288 152.45L117.788 102.219Z" fill="white"/>
<path d="M62.1736 172.174C59.6 169.839 58.1972 166.593 57.9648 163.266C61.0586 162.702 64.2354 162.408 67.4746 162.408C98.6309 162.408 124.022 189.559 125.161 223.525C126.28 189.563 151.662 162.408 182.81 162.408C186.006 162.408 189.142 162.694 192.196 163.244C191.987 166.614 190.578 169.908 187.971 172.269L132.532 222.458C130.381 224.406 127.753 225.381 125.124 225.383C125.124 225.381 125.124 225.38 125.124 225.378C122.451 225.407 119.771 224.43 117.585 222.446L62.1736 172.174Z" fill="white"/>
</svg>
