<svg xmlns="http://www.w3.org/2000/svg" width="500" height="500" fill="none" viewBox="0 0 500 500"><path fill="#FF8152" d="M0 125C0 55.9644 55.9644 0 125 0H375C444.036 0 500 55.9644 500 125V375C500 444.036 444.036 500 375 500H125C55.9644 500 0 444.036 0 375V125Z"/><path fill="#fff" d="M134.512 132.807C134.512 113.083 157.467 102.256 172.687 114.803L250.409 178.871V295.289H157.845C144.959 295.289 134.512 284.843 134.512 271.956V132.807Z"/><path fill="#fff" d="M366.305 132.807C366.305 113.083 343.35 102.256 328.13 114.803L250.409 178.871V295.289H342.972C355.858 295.289 366.305 284.843 366.305 271.956V132.807Z"/><path fill="#fff" d="M235.575 185.854C244.192 178.765 256.622 178.768 265.235 185.863L376.112 277.191C387.446 286.527 387.443 303.886 376.105 313.217L265.228 404.471C256.618 411.557 244.197 411.561 235.582 404.479L124.582 313.225C113.231 303.894 113.228 286.519 124.575 277.183L235.575 185.854Z"/><path fill="#fff" d="M124.346 313.045C119.199 308.799 116.393 302.899 115.929 296.848C122.116 295.823 128.47 295.289 134.948 295.289C197.261 295.289 248.043 344.655 250.321 406.411C252.559 344.661 303.323 295.289 365.619 295.289C372.011 295.289 378.282 295.809 384.392 296.809C383.973 302.935 381.156 308.925 375.941 313.217L265.064 404.471C260.76 408.013 255.504 409.785 250.248 409.788C250.248 409.785 250.248 409.782 250.248 409.78C244.902 409.833 239.542 408.055 235.168 404.448L124.346 313.045Z"/></svg>