<svg width="500" height="500" viewBox="0 0 500 500" fill="none" xmlns="http://www.w3.org/2000/svg">
<path fill-rule="evenodd" clip-rule="evenodd" d="M125 0C55.9644 0 0 55.9644 0 125V375C0 444.036 55.9644 500 125 500H375C444.036 500 500 444.036 500 375V125C500 55.9644 444.036 0 375 0H125ZM172.687 114.802C157.467 102.256 134.512 113.082 134.512 132.807V269.006L124.575 277.182C118.445 282.226 115.627 289.615 116.122 296.816L115.929 296.848C116.393 302.898 119.199 308.799 124.346 313.044L235.168 404.447C239.413 407.949 244.588 409.726 249.778 409.779C249.934 409.783 250.091 409.786 250.248 409.787V409.787L250.32 409.787C255.607 409.805 260.899 408.033 265.228 404.47L376.105 313.216C387.443 303.885 387.446 286.526 376.112 277.19L366.305 269.112V132.807C366.305 113.082 343.35 102.256 328.13 114.802L250.409 178.87L172.687 114.802Z" fill="white"/>
</svg>
