<svg width="462" height="71" viewBox="0 0 462 71" fill="none" xmlns="http://www.w3.org/2000/svg">
<path d="M0.5 69.1444V0.984375H39.668V11.6404H12.884V30.9364H35.444V41.5924H12.884V69.1444H0.5Z" fill="black"/>
<path d="M51.6657 63.0964C46.4817 58.2324 43.8898 52.0884 43.8898 44.6644C43.8898 37.2404 46.4817 31.1284 51.6657 26.3284C56.8498 21.4644 63.1858 19.0324 70.6738 19.0324C78.2258 19.0324 84.5938 21.4644 89.7778 26.3284C95.0258 31.1284 97.6497 37.2404 97.6497 44.6644C97.6497 52.0884 95.0578 58.2324 89.8738 63.0964C84.6898 67.8964 78.3218 70.2964 70.7698 70.2964C63.2178 70.2964 56.8498 67.8964 51.6657 63.0964ZM56.2738 44.6644C56.2738 49.1444 57.6497 52.8244 60.4017 55.7044C63.2178 58.5204 66.6738 59.9284 70.7698 59.9284C74.8658 59.9284 78.3217 58.5204 81.1377 55.7044C83.9538 52.8244 85.3617 49.1444 85.3617 44.6644C85.3617 40.2484 83.9218 36.6004 81.0418 33.7204C78.2258 30.8404 74.8018 29.4004 70.7698 29.4004C66.7378 29.4004 63.3138 30.8404 60.4977 33.7204C57.6817 36.6004 56.2738 40.2484 56.2738 44.6644Z" fill="black"/>
<path d="M100.934 69.1444L117.062 44.3764L101.318 20.1844H115.142L122.726 33.5284L124.262 36.6004H124.454C125.094 35.3844 125.638 34.3604 126.086 33.5284L133.67 20.1844H147.494L131.75 44.3764L147.974 69.1444H134.342L125.894 54.9364L124.454 52.3444H124.262C123.814 53.3684 123.366 54.2324 122.918 54.9364L114.47 69.1444H100.934Z" fill="black"/>
<path d="M181.531 69.1444V0.984375H193.915V29.8804H225.115V0.984375H237.403V69.1444H225.115V40.5364H193.915V69.1444H181.531Z" fill="black"/>
<path d="M251.136 51.6724V20.1844H263.328V49.1764C263.328 52.4404 263.872 54.9364 264.96 56.6644C266.112 58.3284 268.096 59.1604 270.912 59.1604C275.136 59.1604 278.464 57.5604 280.896 54.3604C283.392 51.1604 284.64 47.2564 284.64 42.6484V20.1844H296.736V69.1444H285.024V63.3844L285.312 60.0244H285.12C283.84 62.7764 281.664 65.1764 278.592 67.2244C275.52 69.2724 272.032 70.2964 268.128 70.2964C256.8 70.2964 251.136 64.0884 251.136 51.6724Z" fill="black"/>
<path d="M305.992 63.0964L311.464 55.0324C315.368 58.6164 320.008 60.4084 325.384 60.4084C327.56 60.4084 329.224 59.9924 330.376 59.1604C331.592 58.2644 332.2 57.0484 332.2 55.5124C332.2 54.1044 331.368 52.8884 329.704 51.8644C328.04 50.8404 326.024 49.9124 323.656 49.0804C321.288 48.2484 318.888 47.2884 316.456 46.2004C314.088 45.0484 312.072 43.4164 310.408 41.3044C308.744 39.1924 307.912 36.6644 307.912 33.7204C307.912 29.1124 309.672 25.5284 313.192 22.9684C316.776 20.3444 321.256 19.0324 326.632 19.0324C333.416 19.0324 338.92 20.8884 343.144 24.6004L338.632 33.1444C337.224 31.9284 335.336 30.9364 332.968 30.1684C330.664 29.3364 328.424 28.9204 326.248 28.9204C321.704 28.9204 319.432 30.4884 319.432 33.6244C319.432 35.0324 320.264 36.2484 321.928 37.2724C323.592 38.2964 325.608 39.2244 327.976 40.0564C330.408 40.8884 332.808 41.8484 335.176 42.9364C337.544 43.9604 339.56 45.5284 341.224 47.6404C342.888 49.7524 343.72 52.2804 343.72 55.2244C343.72 59.5764 342.024 63.1924 338.632 66.0724C335.24 68.8884 330.76 70.2964 325.192 70.2964C317.384 70.2964 310.984 67.8964 305.992 63.0964Z" fill="black"/>
<path d="M356.203 51.1924V30.5524H349.867V20.8564H356.491V6.84037H368.395V20.8564H379.531V30.5524H368.395V49.6564C368.395 53.1764 369.387 55.6084 371.371 56.9524C373.419 58.2324 375.659 58.8724 378.091 58.8724C378.923 58.8724 379.659 58.8084 380.299 58.6804V69.3364C378.379 69.5284 377.131 69.6244 376.555 69.6244C374.891 69.6244 373.291 69.4964 371.755 69.2404C370.219 69.0484 368.459 68.5684 366.475 67.8004C364.491 67.0324 362.763 66.0404 361.291 64.8244C359.883 63.5444 358.667 61.7524 357.643 59.4484C356.683 57.0804 356.203 54.3284 356.203 51.1924Z" fill="black"/>
<path d="M389.616 53.8804V0.984375H401.712V52.0564C401.712 54.6164 402.096 56.3764 402.864 57.3364C403.696 58.2964 404.976 58.7764 406.704 58.7764C407.472 58.7764 408.08 58.7444 408.528 58.6804V69.3364C406.8 69.5284 405.52 69.6244 404.688 69.6244C402.704 69.6244 400.944 69.4644 399.408 69.1444C397.872 68.7604 396.304 68.0884 394.704 67.1284C393.104 66.1044 391.856 64.4724 390.96 62.2324C390.064 59.9924 389.616 57.2084 389.616 53.8804Z" fill="black"/>
<path d="M414.39 44.6644C414.39 37.1124 416.694 30.9684 421.302 26.2324C425.974 21.4324 431.99 19.0324 439.35 19.0324C446.134 19.0324 451.446 21.2404 455.286 25.6564C459.126 30.0084 461.046 35.5444 461.046 42.2644C461.046 43.3524 460.918 44.9204 460.662 46.9684H426.966C427.35 51.0644 428.918 54.2644 431.67 56.5684C434.422 58.8084 437.75 59.9284 441.654 59.9284C446.518 59.9284 451.19 58.1364 455.67 54.5524L460.47 63.2884C458.038 65.4644 455.03 67.1924 451.446 68.4724C447.926 69.6884 444.374 70.2964 440.79 70.2964C432.918 70.2964 426.55 67.8324 421.686 62.9044C416.822 57.9124 414.39 51.8324 414.39 44.6644ZM427.254 38.6164H448.854C448.79 35.4164 447.83 32.8884 445.974 31.0324C444.182 29.1764 441.878 28.2484 439.062 28.2484C435.99 28.2484 433.398 29.2084 431.286 31.1284C429.174 32.9844 427.83 35.4804 427.254 38.6164Z" fill="black"/>
</svg>
