<svg width="461" height="70" viewBox="0 0 461 70" fill="none" xmlns="http://www.w3.org/2000/svg">
<path d="M0 68.16V0H39.168V10.656H12.384V29.952H34.944V40.608H12.384V68.16H0Z" fill="#FF8152"/>
<path d="M51.1657 62.112C45.9817 57.248 43.3898 51.104 43.3898 43.68C43.3898 36.256 45.9817 30.144 51.1657 25.344C56.3498 20.48 62.6858 18.048 70.1738 18.048C77.7258 18.048 84.0938 20.48 89.2778 25.344C94.5258 30.144 97.1497 36.256 97.1497 43.68C97.1497 51.104 94.5578 57.248 89.3738 62.112C84.1898 66.912 77.8218 69.312 70.2698 69.312C62.7178 69.312 56.3498 66.912 51.1657 62.112ZM55.7738 43.68C55.7738 48.16 57.1497 51.84 59.9017 54.72C62.7178 57.536 66.1738 58.944 70.2698 58.944C74.3658 58.944 77.8217 57.536 80.6377 54.72C83.4538 51.84 84.8617 48.16 84.8617 43.68C84.8617 39.264 83.4218 35.616 80.5418 32.736C77.7258 29.856 74.3018 28.416 70.2698 28.416C66.2378 28.416 62.8138 29.856 59.9977 32.736C57.1817 35.616 55.7738 39.264 55.7738 43.68Z" fill="#FF8152"/>
<path d="M100.434 68.16L116.562 43.392L100.818 19.2H114.642L122.226 32.544L123.762 35.616H123.954C124.594 34.4 125.138 33.376 125.586 32.544L133.17 19.2H146.994L131.25 43.392L147.474 68.16H133.842L125.394 53.952L123.954 51.36H123.762C123.314 52.384 122.866 53.248 122.418 53.952L113.97 68.16H100.434Z" fill="#FF8152"/>
<path d="M181.031 68.16V0H193.415V28.896H224.615V0H236.903V68.16H224.615V39.552H193.415V68.16H181.031Z" fill="#FF8152"/>
<path d="M250.636 50.688V19.2H262.828V48.192C262.828 51.456 263.372 53.952 264.46 55.68C265.612 57.344 267.596 58.176 270.412 58.176C274.636 58.176 277.964 56.576 280.396 53.376C282.892 50.176 284.14 46.272 284.14 41.664V19.2H296.236V68.16H284.524V62.4L284.812 59.04H284.62C283.34 61.792 281.164 64.192 278.092 66.24C275.02 68.288 271.532 69.312 267.628 69.312C256.3 69.312 250.636 63.104 250.636 50.688Z" fill="#FF8152"/>
<path d="M305.492 62.112L310.964 54.048C314.868 57.632 319.508 59.424 324.884 59.424C327.06 59.424 328.724 59.008 329.876 58.176C331.092 57.28 331.7 56.064 331.7 54.528C331.7 53.12 330.868 51.904 329.204 50.88C327.54 49.856 325.524 48.928 323.156 48.096C320.788 47.264 318.388 46.304 315.956 45.216C313.588 44.064 311.572 42.432 309.908 40.32C308.244 38.208 307.412 35.68 307.412 32.736C307.412 28.128 309.172 24.544 312.692 21.984C316.276 19.36 320.756 18.048 326.132 18.048C332.916 18.048 338.42 19.904 342.644 23.616L338.132 32.16C336.724 30.944 334.836 29.952 332.468 29.184C330.164 28.352 327.924 27.936 325.748 27.936C321.204 27.936 318.932 29.504 318.932 32.64C318.932 34.048 319.764 35.264 321.428 36.288C323.092 37.312 325.108 38.24 327.476 39.072C329.908 39.904 332.308 40.864 334.676 41.952C337.044 42.976 339.06 44.544 340.724 46.656C342.388 48.768 343.22 51.296 343.22 54.24C343.22 58.592 341.524 62.208 338.132 65.088C334.74 67.904 330.26 69.312 324.692 69.312C316.884 69.312 310.484 66.912 305.492 62.112Z" fill="#FF8152"/>
<path d="M355.703 50.208V29.568H349.367V19.872H355.991V5.856H367.895V19.872H379.031V29.568H367.895V48.672C367.895 52.192 368.887 54.624 370.871 55.968C372.919 57.248 375.159 57.888 377.591 57.888C378.423 57.888 379.159 57.824 379.799 57.696V68.352C377.879 68.544 376.631 68.64 376.055 68.64C374.391 68.64 372.791 68.512 371.255 68.256C369.719 68.064 367.959 67.584 365.975 66.816C363.991 66.048 362.263 65.056 360.791 63.84C359.383 62.56 358.167 60.768 357.143 58.464C356.183 56.096 355.703 53.344 355.703 50.208Z" fill="#FF8152"/>
<path d="M389.116 52.896V0H401.212V51.072C401.212 53.632 401.596 55.392 402.364 56.352C403.196 57.312 404.476 57.792 406.204 57.792C406.972 57.792 407.58 57.76 408.028 57.696V68.352C406.3 68.544 405.02 68.64 404.188 68.64C402.204 68.64 400.444 68.48 398.908 68.16C397.372 67.776 395.804 67.104 394.204 66.144C392.604 65.12 391.356 63.488 390.46 61.248C389.564 59.008 389.116 56.224 389.116 52.896Z" fill="#FF8152"/>
<path d="M413.89 43.68C413.89 36.128 416.194 29.984 420.802 25.248C425.474 20.448 431.49 18.048 438.85 18.048C445.634 18.048 450.946 20.256 454.786 24.672C458.626 29.024 460.546 34.56 460.546 41.28C460.546 42.368 460.418 43.936 460.162 45.984H426.466C426.85 50.08 428.418 53.28 431.17 55.584C433.922 57.824 437.25 58.944 441.154 58.944C446.018 58.944 450.69 57.152 455.17 53.568L459.97 62.304C457.538 64.48 454.53 66.208 450.946 67.488C447.426 68.704 443.874 69.312 440.29 69.312C432.418 69.312 426.05 66.848 421.186 61.92C416.322 56.928 413.89 50.848 413.89 43.68ZM426.754 37.632H448.354C448.29 34.432 447.33 31.904 445.474 30.048C443.682 28.192 441.378 27.264 438.562 27.264C435.49 27.264 432.898 28.224 430.786 30.144C428.674 32 427.33 34.496 426.754 37.632Z" fill="#FF8152"/>
</svg>
