<svg width="516" height="100" viewBox="0 0 516 100" fill="none" xmlns="http://www.w3.org/2000/svg">
<path d="M44.7083 33.984V3.216H32.6123V0.24H60.1642V3.216H48.0203V33.984H44.7083Z" fill="#1C1C21"/>
<path d="M64.8405 33.984V0.24H68.1045V13.488L67.9605 15.456H68.0565C68.6325 13.984 69.7685 12.592 71.4645 11.28C73.1925 9.936 75.2725 9.264 77.7045 9.264C80.6165 9.264 82.6965 10.048 83.9445 11.616C85.1925 13.184 85.8165 15.52 85.8165 18.624V33.984H82.5525V19.488C82.5525 17.216 82.2005 15.456 81.4965 14.208C80.7925 12.96 79.3845 12.336 77.2725 12.336C74.7125 12.336 72.5365 13.28 70.7445 15.168C68.9845 17.056 68.1045 19.44 68.1045 22.32V33.984H64.8405Z" fill="#1C1C21"/>
<path d="M91.7085 21.936C91.7085 18.096 92.8445 15.024 95.1165 12.72C97.4205 10.416 100.269 9.264 103.66 9.264C106.861 9.264 109.34 10.336 111.101 12.48C112.861 14.592 113.741 17.232 113.741 20.4C113.741 20.784 113.709 21.328 113.645 22.032H95.1165C95.1805 25.008 96.1085 27.344 97.9005 29.04C99.6925 30.736 101.884 31.584 104.477 31.584C107.26 31.584 109.709 30.624 111.821 28.704L113.309 31.2C112.188 32.224 110.812 33.04 109.181 33.648C107.581 34.256 105.98 34.56 104.381 34.56C100.765 34.56 97.7405 33.376 95.3085 31.008C92.9085 28.64 91.7085 25.616 91.7085 21.936ZM95.2605 19.44H110.428C110.332 17.04 109.645 15.2 108.365 13.92C107.085 12.608 105.484 11.952 103.564 11.952C101.484 11.952 99.6765 12.608 98.1405 13.92C96.6045 15.232 95.6445 17.072 95.2605 19.44Z" fill="#1C1C21"/>
<path d="M133.168 31.056C131.28 28.72 130.336 25.664 130.336 21.888C130.336 18.112 131.344 15.072 133.36 12.768C135.376 10.432 138 9.264 141.232 9.264C142.928 9.264 144.496 9.696 145.936 10.56C147.376 11.424 148.48 12.608 149.248 14.112H149.344C149.248 13.6 149.2 12.992 149.2 12.288V9.84H152.368V43.584H149.104V31.776L149.248 29.664H149.152C148.448 31.04 147.392 32.208 145.984 33.168C144.608 34.096 142.896 34.56 140.848 34.56C137.648 34.56 135.088 33.392 133.168 31.056ZM133.696 21.888C133.696 24.832 134.4 27.2 135.808 28.992C137.248 30.752 139.104 31.632 141.376 31.632C143.584 31.632 145.424 30.816 146.896 29.184C148.4 27.552 149.152 25.104 149.152 21.84C149.152 19.216 148.48 16.96 147.136 15.072C145.824 13.184 143.952 12.24 141.52 12.24C139.312 12.24 137.456 13.104 135.952 14.832C134.448 16.56 133.696 18.912 133.696 21.888Z" fill="#1C1C21"/>
<path d="M159.849 25.2V9.84H163.161V24.336C163.161 26.608 163.497 28.368 164.169 29.616C164.873 30.864 166.281 31.488 168.393 31.488C171.049 31.488 173.193 30.496 174.825 28.512C176.489 26.528 177.321 24.16 177.321 21.408V9.84H180.585V33.984H177.369V30.192L177.561 28.272H177.465C176.889 29.776 175.753 31.2 174.057 32.544C172.393 33.888 170.361 34.56 167.961 34.56C165.145 34.56 163.081 33.792 161.769 32.256C160.489 30.72 159.849 28.368 159.849 25.2Z" fill="#1C1C21"/>
<path d="M188.212 4.32V0.24H191.764V4.32H188.212ZM188.356 33.984V9.84H191.62V33.984H188.356Z" fill="#1C1C21"/>
<path d="M197.787 21.936C197.787 18.256 199.003 15.232 201.435 12.864C203.867 10.464 206.875 9.264 210.459 9.264C212.123 9.264 213.755 9.568 215.355 10.176C216.955 10.752 218.267 11.6 219.291 12.72L217.611 15.168C216.747 14.272 215.675 13.552 214.395 13.008C213.147 12.464 211.867 12.192 210.555 12.192C207.867 12.192 205.627 13.104 203.835 14.928C202.043 16.752 201.147 19.088 201.147 21.936C201.147 24.752 202.043 27.072 203.835 28.896C205.659 30.688 207.931 31.584 210.651 31.584C212.059 31.584 213.467 31.296 214.875 30.72C216.283 30.112 217.451 29.296 218.379 28.272L219.867 30.72C218.811 31.904 217.435 32.848 215.739 33.552C214.075 34.224 212.315 34.56 210.459 34.56C206.843 34.56 203.819 33.392 201.387 31.056C198.987 28.688 197.787 25.648 197.787 21.936Z" fill="#1C1C21"/>
<path d="M225.434 33.984V0.24H228.698V19.056H232.586L239.786 9.84H243.722L235.322 20.352V20.448L244.586 33.984H240.65L232.634 21.936H228.698V33.984H225.434Z" fill="#1C1C21"/>
<path d="M261.247 33.984V0.24H264.511V12.144L264.367 14.16H264.463C265.199 12.656 266.303 11.472 267.775 10.608C269.247 9.712 270.895 9.264 272.719 9.264C275.951 9.264 278.511 10.432 280.399 12.768C282.287 15.072 283.231 18.112 283.231 21.888C283.231 25.696 282.223 28.768 280.207 31.104C278.191 33.408 275.567 34.56 272.335 34.56C270.639 34.56 269.071 34.112 267.631 33.216C266.191 32.32 265.087 31.12 264.319 29.616H264.223C264.319 30.16 264.367 30.816 264.367 31.584V33.984H261.247ZM264.415 21.984C264.415 24.608 265.087 26.88 266.431 28.8C267.775 30.688 269.663 31.632 272.095 31.632C274.303 31.632 276.159 30.768 277.663 29.04C279.167 27.28 279.919 24.912 279.919 21.936C279.919 19.024 279.199 16.688 277.759 14.928C276.351 13.136 274.511 12.24 272.239 12.24C270.031 12.24 268.175 13.056 266.671 14.688C265.167 16.32 264.415 18.752 264.415 21.984Z" fill="#1C1C21"/>
<path d="M289.512 33.984V9.84H292.728V14.304L292.536 16.224H292.632C293.272 14.304 294.264 12.72 295.608 11.472C296.984 10.224 298.568 9.6 300.36 9.6C300.84 9.6 301.272 9.648 301.656 9.744V12.96C301.464 12.896 301.064 12.864 300.456 12.864C298.76 12.864 297.304 13.456 296.088 14.64C294.872 15.824 294.008 17.216 293.496 18.816C293.016 20.384 292.776 22.032 292.776 23.76V33.984H289.512Z" fill="#1C1C21"/>
<path d="M304.005 21.792C304.005 18.24 305.237 15.264 307.701 12.864C310.165 10.464 313.173 9.264 316.725 9.264C320.277 9.264 323.285 10.464 325.749 12.864C328.245 15.264 329.493 18.24 329.493 21.792C329.493 25.408 328.245 28.448 325.749 30.912C323.285 33.344 320.277 34.56 316.725 34.56C313.173 34.56 310.165 33.344 307.701 30.912C305.237 28.448 304.005 25.408 304.005 21.792ZM307.365 21.792C307.365 24.608 308.261 26.944 310.053 28.8C311.877 30.656 314.101 31.584 316.725 31.584C319.349 31.584 321.573 30.656 323.397 28.8C325.221 26.944 326.133 24.608 326.133 21.792C326.133 19.072 325.221 16.8 323.397 14.976C321.573 13.12 319.349 12.192 316.725 12.192C314.101 12.192 311.877 13.12 310.053 14.976C308.261 16.8 307.365 19.072 307.365 21.792Z" fill="#1C1C21"/>
<path d="M340.645 33.984L332.485 9.84H335.989L341.797 27.792L342.517 30.384H342.613C342.869 29.456 343.125 28.592 343.381 27.792L349.285 9.936H352.549L358.453 27.792L359.221 30.384H359.317C359.509 29.488 359.749 28.624 360.037 27.792L365.845 9.84H369.301L361.189 33.984H357.589L351.685 16.8L350.965 14.16H350.869C350.613 15.12 350.357 16 350.101 16.8L344.245 33.984H340.645Z" fill="#1C1C21"/>
<path d="M374.591 33.984V9.84H377.806V13.632L377.615 15.552H377.711C378.319 14.08 379.454 12.672 381.118 11.328C382.815 9.952 384.927 9.264 387.454 9.264C390.366 9.264 392.447 10.048 393.694 11.616C394.942 13.184 395.566 15.52 395.566 18.624V33.984H392.302V19.488C392.302 17.216 391.951 15.456 391.246 14.208C390.542 12.96 389.134 12.336 387.022 12.336C384.43 12.336 382.255 13.28 380.495 15.168C378.734 17.056 377.854 19.392 377.854 22.176V33.984H374.591Z" fill="#1C1C21"/>
<path d="M416.003 33.984V12.768H412.978V10.032H416.003V8.928C416.003 7.072 416.29 5.504 416.866 4.224C417.474 2.944 418.259 2.032 419.219 1.488C420.178 0.911998 421.059 0.527998 421.858 0.335999C422.69 0.112 423.522 0 424.354 0C424.866 0 425.362 0.0479994 425.842 0.143998V3.024C425.586 2.96 425.202 2.928 424.69 2.928C424.115 2.928 423.555 3.008 423.01 3.168C422.499 3.296 421.939 3.552 421.331 3.936C420.723 4.288 420.227 4.912 419.842 5.808C419.491 6.672 419.315 7.728 419.315 8.976V10.032H425.458V12.768H419.315V33.984H416.003Z" fill="#1C1C21"/>
<path d="M428.13 21.792C428.13 18.24 429.362 15.264 431.826 12.864C434.29 10.464 437.298 9.264 440.85 9.264C444.402 9.264 447.41 10.464 449.874 12.864C452.37 15.264 453.618 18.24 453.618 21.792C453.618 25.408 452.37 28.448 449.874 30.912C447.41 33.344 444.402 34.56 440.85 34.56C437.298 34.56 434.29 33.344 431.826 30.912C429.362 28.448 428.13 25.408 428.13 21.792ZM431.49 21.792C431.49 24.608 432.386 26.944 434.178 28.8C436.002 30.656 438.226 31.584 440.85 31.584C443.474 31.584 445.698 30.656 447.522 28.8C449.346 26.944 450.258 24.608 450.258 21.792C450.258 19.072 449.346 16.8 447.522 14.976C445.698 13.12 443.474 12.192 440.85 12.192C438.226 12.192 436.002 13.12 434.178 14.976C432.386 16.8 431.49 19.072 431.49 21.792Z" fill="#1C1C21"/>
<path d="M455.991 33.984L464.439 21.408L456.663 9.84H460.503L465.687 17.952L466.503 19.344H466.599C466.887 18.832 467.159 18.368 467.415 17.952L472.599 9.84H476.391L468.615 21.408L477.111 33.984H473.271L467.415 24.912L466.599 23.568H466.503C466.247 24.016 465.975 24.464 465.687 24.912L459.783 33.984H455.991Z" fill="#1C1C21"/>
<path d="M6.384 59.32V55.24H9.936V59.32H6.384ZM6.528 89.752V64.84H9.792V89.848C9.792 91.736 9.488 93.32 8.88 94.6C8.304 95.912 7.536 96.84 6.576 97.384C5.616 97.96 4.72 98.344 3.888 98.536C3.088 98.76 2.256 98.872 1.392 98.872C0.944 98.872 0.48 98.824 0 98.728V95.848C0.256 95.912 0.608 95.944 1.056 95.944C1.632 95.944 2.176 95.864 2.688 95.704C3.232 95.576 3.808 95.32 4.416 94.936C5.056 94.552 5.568 93.912 5.952 93.016C6.336 92.12 6.528 91.032 6.528 89.752Z" fill="#1C1C21"/>
<path d="M17.3025 80.2V64.84H20.6145V79.336C20.6145 81.608 20.9505 83.368 21.6225 84.616C22.3265 85.864 23.7345 86.488 25.8465 86.488C28.5025 86.488 30.6465 85.496 32.2785 83.512C33.9425 81.528 34.7745 79.16 34.7745 76.408V64.84H38.0385V88.984H34.8225V85.192L35.0145 83.272H34.9185C34.3425 84.776 33.2065 86.2 31.5105 87.544C29.8465 88.888 27.8145 89.56 25.4145 89.56C22.5985 89.56 20.5345 88.792 19.2225 87.256C17.9425 85.72 17.3025 83.368 17.3025 80.2Z" fill="#1C1C21"/>
<path d="M45.8092 88.984V64.84H49.0252V68.632L48.8333 70.552H48.9293C49.5373 68.888 50.7052 67.432 52.4333 66.184C54.1613 64.904 55.9532 64.264 57.8092 64.264C62.0653 64.264 64.5452 66.28 65.2493 70.312H65.3453C66.0493 68.68 67.2173 67.272 68.8493 66.088C70.5133 64.872 72.3053 64.264 74.2253 64.264C77.0732 64.264 79.1213 65.048 80.3693 66.616C81.6173 68.184 82.2412 70.52 82.2412 73.624V88.984H78.9772V74.44C78.9772 72.168 78.6093 70.408 77.8733 69.16C77.1693 67.912 75.8092 67.288 73.7933 67.288C71.4573 67.288 69.5213 68.312 67.9853 70.36C66.4492 72.376 65.6813 74.696 65.6813 77.32V88.984H62.4173V74.44C62.4173 72.2 62.0813 70.456 61.4093 69.208C60.7373 67.928 59.3773 67.288 57.3293 67.288C54.9613 67.288 52.9933 68.328 51.4253 70.408C49.8573 72.456 49.0732 74.76 49.0732 77.32V88.984H45.8092Z" fill="#1C1C21"/>
<path d="M89.778 98.584V64.84H92.898V67.384L92.754 69.256H92.85C93.586 67.688 94.69 66.472 96.162 65.608C97.666 64.712 99.362 64.264 101.25 64.264C104.482 64.264 107.042 65.432 108.93 67.768C110.818 70.072 111.762 73.112 111.762 76.888C111.762 80.696 110.754 83.768 108.738 86.104C106.722 88.408 104.13 89.56 100.962 89.56C99.266 89.56 97.714 89.144 96.306 88.312C94.898 87.448 93.794 86.264 92.994 84.76H92.898C92.994 85.336 93.042 86.04 93.042 86.872V98.584H89.778ZM92.946 76.984C92.946 79.576 93.634 81.832 95.01 83.752C96.418 85.672 98.29 86.632 100.626 86.632C102.834 86.632 104.69 85.768 106.194 84.04C107.698 82.28 108.45 79.912 108.45 76.936C108.45 74.024 107.73 71.688 106.29 69.928C104.882 68.136 103.042 67.24 100.77 67.24C98.562 67.24 96.706 68.056 95.202 69.688C93.698 71.32 92.946 73.752 92.946 76.984Z" fill="#1C1C21"/>
<path d="M115.932 86.056L117.66 83.752C119.548 85.704 121.98 86.68 124.956 86.68C126.364 86.68 127.516 86.344 128.412 85.672C129.34 84.968 129.804 84.008 129.804 82.792C129.804 81.8 129.356 80.968 128.46 80.296C127.596 79.592 126.524 79.016 125.244 78.568C123.996 78.088 122.732 77.576 121.452 77.032C120.204 76.488 119.132 75.72 118.236 74.728C117.372 73.704 116.94 72.456 116.94 70.984C116.94 68.872 117.724 67.224 119.292 66.04C120.86 64.856 122.812 64.264 125.148 64.264C128.252 64.264 130.732 65.144 132.588 66.904L131.052 69.352C130.38 68.68 129.484 68.152 128.364 67.768C127.244 67.352 126.124 67.144 125.004 67.144C123.628 67.144 122.476 67.464 121.548 68.104C120.62 68.712 120.156 69.64 120.156 70.888C120.156 71.88 120.588 72.728 121.452 73.432C122.348 74.136 123.436 74.728 124.716 75.208C125.996 75.656 127.26 76.152 128.508 76.696C129.788 77.24 130.86 78.024 131.724 79.048C132.62 80.04 133.068 81.272 133.068 82.744C133.068 84.728 132.3 86.36 130.764 87.64C129.228 88.92 127.276 89.56 124.908 89.56C121.164 89.56 118.172 88.392 115.932 86.056Z" fill="#1C1C21"/>
<path d="M149.458 76.792C149.458 73.24 150.69 70.264 153.154 67.864C155.618 65.464 158.626 64.264 162.178 64.264C165.73 64.264 168.738 65.464 171.202 67.864C173.699 70.264 174.947 73.24 174.947 76.792C174.947 80.408 173.699 83.448 171.202 85.912C168.738 88.344 165.73 89.56 162.178 89.56C158.626 89.56 155.618 88.344 153.154 85.912C150.69 83.448 149.458 80.408 149.458 76.792ZM152.818 76.792C152.818 79.608 153.714 81.944 155.507 83.8C157.331 85.656 159.555 86.584 162.178 86.584C164.802 86.584 167.026 85.656 168.85 83.8C170.674 81.944 171.587 79.608 171.587 76.792C171.587 74.072 170.674 71.8 168.85 69.976C167.026 68.12 164.802 67.192 162.178 67.192C159.555 67.192 157.331 68.12 155.507 69.976C153.714 71.8 152.818 74.072 152.818 76.792Z" fill="#1C1C21"/>
<path d="M186.918 88.984L177.606 64.84H181.11L187.782 82.552L188.598 85.48H188.694C188.982 84.328 189.27 83.352 189.558 82.552L196.23 64.84H199.686L190.47 88.984H186.918Z" fill="#1C1C21"/>
<path d="M202.474 76.936C202.474 73.096 203.61 70.024 205.882 67.72C208.186 65.416 211.034 64.264 214.426 64.264C217.626 64.264 220.106 65.336 221.866 67.48C223.626 69.592 224.506 72.232 224.506 75.4C224.506 75.784 224.474 76.328 224.41 77.032H205.882C205.946 80.008 206.874 82.344 208.666 84.04C210.458 85.736 212.65 86.584 215.242 86.584C218.026 86.584 220.474 85.624 222.586 83.704L224.074 86.2C222.954 87.224 221.578 88.04 219.946 88.648C218.346 89.256 216.746 89.56 215.146 89.56C211.53 89.56 208.506 88.376 206.074 86.008C203.674 83.64 202.474 80.616 202.474 76.936ZM206.026 74.44H221.194C221.098 72.04 220.41 70.2 219.13 68.92C217.85 67.608 216.25 66.952 214.33 66.952C212.25 66.952 210.442 67.608 208.906 68.92C207.37 70.232 206.41 72.072 206.026 74.44Z" fill="#1C1C21"/>
<path d="M230.637 88.984V64.84H233.853V69.304L233.661 71.224H233.757C234.397 69.304 235.389 67.72 236.733 66.472C238.109 65.224 239.693 64.6 241.485 64.6C241.965 64.6 242.397 64.648 242.781 64.744V67.96C242.589 67.896 242.189 67.864 241.581 67.864C239.885 67.864 238.429 68.456 237.213 69.64C235.997 70.824 235.133 72.216 234.621 73.816C234.141 75.384 233.901 77.032 233.901 78.76V88.984H230.637Z" fill="#1C1C21"/>
<path d="M258.642 80.2V67.768H255.474V65.032H258.69V58.168H261.906V65.032H268.002V67.768H261.906V79.864C261.906 81.176 262.098 82.296 262.482 83.224C262.866 84.12 263.362 84.776 263.97 85.192C264.578 85.576 265.154 85.848 265.698 86.008C266.242 86.168 266.802 86.248 267.378 86.248C267.826 86.248 268.194 86.216 268.482 86.152V89.08C268.098 89.144 267.634 89.176 267.09 89.176C266.418 89.176 265.762 89.128 265.122 89.032C264.482 88.936 263.746 88.712 262.914 88.36C262.114 87.976 261.41 87.48 260.802 86.872C260.194 86.264 259.682 85.384 259.266 84.232C258.85 83.08 258.642 81.736 258.642 80.2Z" fill="#1C1C21"/>
<path d="M273.387 88.984V55.24H276.651V68.488L276.507 70.456H276.603C277.179 68.984 278.315 67.592 280.011 66.28C281.739 64.936 283.819 64.264 286.251 64.264C289.163 64.264 291.243 65.048 292.491 66.616C293.739 68.184 294.363 70.52 294.363 73.624V88.984H291.099V74.488C291.099 72.216 290.747 70.456 290.043 69.208C289.339 67.96 287.931 67.336 285.819 67.336C283.259 67.336 281.083 68.28 279.291 70.168C277.531 72.056 276.651 74.44 276.651 77.32V88.984H273.387Z" fill="#1C1C21"/>
<path d="M300.255 76.936C300.255 73.096 301.391 70.024 303.663 67.72C305.967 65.416 308.815 64.264 312.207 64.264C315.407 64.264 317.887 65.336 319.647 67.48C321.407 69.592 322.287 72.232 322.287 75.4C322.287 75.784 322.255 76.328 322.191 77.032H303.663C303.727 80.008 304.655 82.344 306.447 84.04C308.239 85.736 310.431 86.584 313.023 86.584C315.807 86.584 318.255 85.624 320.367 83.704L321.855 86.2C320.735 87.224 319.359 88.04 317.727 88.648C316.127 89.256 314.527 89.56 312.927 89.56C309.311 89.56 306.287 88.376 303.855 86.008C301.455 83.64 300.255 80.616 300.255 76.936ZM303.807 74.44H318.975C318.879 72.04 318.191 70.2 316.911 68.92C315.631 67.608 314.031 66.952 312.111 66.952C310.031 66.952 308.223 67.608 306.687 68.92C305.151 70.232 304.191 72.072 303.807 74.44Z" fill="#1C1C21"/>
<path d="M340.419 83.272V55.24H343.683V82.552C343.683 84.984 344.595 86.2 346.419 86.2C346.739 86.2 346.995 86.184 347.187 86.152V89.08C346.803 89.144 346.403 89.176 345.987 89.176C345.507 89.176 345.059 89.144 344.643 89.08C344.227 89.016 343.747 88.872 343.203 88.648C342.659 88.392 342.195 88.056 341.811 87.64C341.427 87.224 341.091 86.648 340.803 85.912C340.547 85.144 340.419 84.264 340.419 83.272Z" fill="#1C1C21"/>
<path d="M350.119 82.504C350.119 76.904 355.015 74.104 364.807 74.104H366.247V73.432C366.247 69.272 364.263 67.192 360.295 67.192C357.831 67.192 355.543 67.96 353.431 69.496L351.943 67C352.903 66.168 354.167 65.512 355.735 65.032C357.303 64.52 358.887 64.264 360.487 64.264C363.399 64.264 365.623 65.064 367.159 66.664C368.727 68.232 369.511 70.52 369.511 73.528V88.984H366.391V86.152L366.535 84.136H366.439C365.767 85.672 364.695 86.968 363.223 88.024C361.783 89.048 360.135 89.56 358.279 89.56C356.071 89.56 354.151 88.936 352.519 87.688C350.919 86.44 350.119 84.712 350.119 82.504ZM353.431 82.216C353.431 83.432 353.911 84.504 354.871 85.432C355.831 86.36 357.159 86.824 358.855 86.824C361.063 86.824 362.839 85.896 364.183 84.04C365.559 82.184 366.247 80.104 366.247 77.8V76.696H364.855C363.831 76.696 362.935 76.712 362.167 76.744C361.431 76.776 360.455 76.904 359.239 77.128C358.055 77.32 357.079 77.592 356.311 77.944C355.543 78.296 354.871 78.84 354.295 79.576C353.719 80.312 353.431 81.192 353.431 82.216Z" fill="#1C1C21"/>
<path d="M374.916 88.984V86.872L388.404 69.928L390.324 67.72V67.624C389.78 67.688 388.98 67.72 387.924 67.72H375.492V64.84H394.74V67L381.252 83.896L379.284 86.104V86.2C379.828 86.136 380.628 86.104 381.684 86.104H395.22V88.984H374.916Z" fill="#1C1C21"/>
<path d="M399.206 95.032C400.102 95.768 401.062 96.136 402.086 96.136C404.006 96.136 405.542 94.824 406.694 92.2L408.134 88.744L398.102 64.84H401.702L408.758 82.456L409.67 85H409.766C409.99 84.104 410.262 83.256 410.582 82.456L417.542 64.84H421.046L409.142 94.024C408.502 95.592 407.574 96.824 406.358 97.72C405.174 98.616 403.798 99.064 402.23 99.064C401.494 99.064 400.758 98.936 400.022 98.68C399.318 98.456 398.806 98.232 398.486 98.008L397.958 97.624L399.206 95.032Z" fill="#1C1C21"/>
<path d="M438.183 86.056C436.295 83.72 435.351 80.664 435.351 76.888C435.351 73.112 436.359 70.072 438.375 67.768C440.391 65.432 443.015 64.264 446.247 64.264C447.943 64.264 449.495 64.696 450.903 65.56C452.343 66.392 453.431 67.544 454.167 69.016H454.263C454.167 68.472 454.119 67.864 454.119 67.192V55.24H457.383V88.984H454.215V86.248L454.359 84.52H454.263C453.527 85.992 452.439 87.208 450.999 88.168C449.559 89.096 447.847 89.56 445.863 89.56C442.663 89.56 440.103 88.392 438.183 86.056ZM438.711 76.888C438.711 79.832 439.415 82.2 440.823 83.992C442.263 85.752 444.119 86.632 446.391 86.632C448.599 86.632 450.439 85.816 451.911 84.184C453.415 82.552 454.167 80.104 454.167 76.84C454.167 74.216 453.495 71.96 452.151 70.072C450.839 68.184 448.967 67.24 446.535 67.24C444.327 67.24 442.471 68.104 440.967 69.832C439.463 71.56 438.711 73.912 438.711 76.888Z" fill="#1C1C21"/>
<path d="M463.521 76.792C463.521 73.24 464.753 70.264 467.217 67.864C469.681 65.464 472.689 64.264 476.241 64.264C479.793 64.264 482.801 65.464 485.265 67.864C487.761 70.264 489.009 73.24 489.009 76.792C489.009 80.408 487.761 83.448 485.265 85.912C482.801 88.344 479.793 89.56 476.241 89.56C472.689 89.56 469.681 88.344 467.217 85.912C464.753 83.448 463.521 80.408 463.521 76.792ZM466.881 76.792C466.881 79.608 467.777 81.944 469.569 83.8C471.393 85.656 473.617 86.584 476.241 86.584C478.865 86.584 481.089 85.656 482.913 83.8C484.737 81.944 485.649 79.608 485.649 76.792C485.649 74.072 484.737 71.8 482.913 69.976C481.089 68.12 478.865 67.192 476.241 67.192C473.617 67.192 471.393 68.12 469.569 69.976C467.777 71.8 466.881 74.072 466.881 76.792Z" fill="#1C1C21"/>
<path d="M496.978 94.456C499.09 95.544 501.282 96.088 503.554 96.088C506.082 96.088 508.114 95.464 509.65 94.216C511.186 93 511.954 91.112 511.954 88.552V86.152L512.146 84.376H512.05C510.482 87.352 507.922 88.84 504.37 88.84C501.138 88.84 498.53 87.688 496.546 85.384C494.594 83.08 493.618 80.104 493.618 76.456C493.618 72.808 494.562 69.864 496.45 67.624C498.338 65.384 500.882 64.264 504.082 64.264C505.81 64.264 507.394 64.616 508.834 65.32C510.306 66.024 511.394 67.08 512.098 68.488H512.194C512.13 68.296 512.098 68.024 512.098 67.672V64.84H515.266V88.408C515.266 91.992 514.146 94.664 511.906 96.424C509.698 98.184 506.946 99.064 503.65 99.064C500.866 99.064 498.242 98.408 495.778 97.096L496.978 94.456ZM498.898 69.64C497.586 71.272 496.93 73.528 496.93 76.408C496.93 79.288 497.65 81.592 499.09 83.32C500.53 85.048 502.45 85.912 504.85 85.912C506.994 85.912 508.722 85.176 510.034 83.704C511.378 82.2 512.05 79.784 512.05 76.456C512.05 70.28 509.506 67.192 504.418 67.192C502.082 67.192 500.242 68.008 498.898 69.64Z" fill="#1C1C21"/>
</svg>
